<?xml version="1.0" encoding="utf-8"?>
<!-- Generator: Adobe Illustrator 22.1.0, SVG Export Plug-In . SVG Version: 6.00 Build 0)  -->
<svg version="1.1" id="Calque_1" xmlns="http://www.w3.org/2000/svg" xmlns:xlink="http://www.w3.org/1999/xlink" x="0px" y="0px"
	 viewBox="0 0 434.8 427.3" style="enable-background:new 0 0 434.8 427.3;" xml:space="preserve">
<style type="text/css">
	.st0{fill:#8DBE22;}
	.st1{fill:#82CFEF;}
	.st2{fill:#006633;}
	.st3{fill:#E6332A;}
	.st4{fill:#F9B233;}
	.st5{fill:#3AAA35;}
	.st6{fill:#BE1622;}
	.st7{fill:#D60B52;}
	.st8{fill:#71CBF4;}
	.st9{fill:#432918;}
	.st10{fill:#FFED00;}
	.st11{fill:#99D7F7;}
</style>
<path class="st0" d="M434.8,213.7c0,23-3.7,45.2-10.6,66C396,365.4,314.3,427.3,218,427.3S39.9,365.4,11.7,279.7
	c-6.9-20.8-10.6-43-10.6-66C1.1,95.7,98.2,0,218,0S434.8,95.7,434.8,213.7z"/>
<path class="st1" d="M434.8,213.7c0,23-3.7,45.2-10.6,66H11.7c-6.9-20.8-10.6-43-10.6-66C1.1,95.7,98.2,0,218,0
	S434.8,95.7,434.8,213.7z"/>
<g>
	<path class="st2" d="M284.3,299.9c-23.6-39.6-11.8-118.7-5.2-145.9l3.9,0.9c-2.6,10.8-7.3,36.4-8.4,64.3
		c-1.4,34.6,3.2,61.7,13.2,78.6L284.3,299.9z"/>
</g>
<path class="st2" d="M285.2,299.6c-41.1,9.5-64.5-11.6-53.1-27.2C243.4,256.8,270.3,265.9,285.2,299.6z"/>
<path class="st2" d="M272.3,233.5c10.3-16.4,24.7-17.2,26.1-8.4C299.7,233.8,288.1,239.6,272.3,233.5z"/>
<path class="st3" d="M276,138.8c-31.4-35-63.6-22.9-73.6-12.9c-10,10,18.6,24.3,36.8,23.6c-34.7,3.6-61.8,9.3-66.1,20.7
	c-4.3,11.4,63.6,15.7,87.9,0c-12.1,17.2,12.9,20.7,25,20.7s43.6-2.1,27.9-19.3c27.9,9.3,57.2,16.4,65,6.4c7.9-10-15-30-65-30.7
	c29.3-8.6,50.7-15.7,46.5-21.4S326.7,85.2,276,138.8z"/>
<path class="st4" d="M248,152.4c2.9-15.5,40-31.4,62.2,0C298.8,160.3,265.9,163.1,248,152.4z"/>
<g>
	<path class="st5" d="M156.1,314.7c-23.6-39.6-11.8-118.7-5.2-145.9l3.9,0.9c-2.6,10.8-7.3,36.4-8.4,64.3
		c-1.4,34.6,3.2,61.7,13.2,78.6L156.1,314.7z"/>
</g>
<path class="st5" d="M157,314.3c-41.1,9.5-64.5-11.6-53.1-27.2S142.1,280.6,157,314.3z"/>
<path class="st5" d="M144,248.2c10.3-16.4,24.7-17.2,26.1-8.4S159.8,254.3,144,248.2z"/>
<path class="st6" d="M147.8,153.5c-31.4-35-63.6-22.9-73.6-12.9c-10,10,18.6,24.3,36.8,23.6c-34.7,3.6-61.8,9.3-66.1,20.7
	c-4.3,11.4,63.6,15.7,87.9,0c-12.1,17.2,12.9,20.7,25,20.7s43.6-2.1,27.9-19.3c27.9,9.3,57.2,16.4,65,6.4c7.9-10-15-30-65-30.7
	c29.3-8.6,50.7-15.7,46.5-21.4C227.8,135,198.5,99.9,147.8,153.5z"/>
<path class="st4" d="M119.8,167.1c2.9-15.5,40-31.4,62.2,0C170.6,175,137.7,177.8,119.8,167.1z"/>
<g>
	<path class="st5" d="M250.7,379.3c-23.6-39.6-11.8-118.7-5.2-145.9l3.9,0.9c-2.6,10.8-7.3,36.4-8.4,64.3
		c-1.4,34.6,3.2,61.7,13.2,78.6L250.7,379.3z"/>
</g>
<path class="st5" d="M251.6,379c-41.1,9.5-64.5-11.6-53.1-27.2C209.9,336.1,236.7,345.2,251.6,379z"/>
<path class="st5" d="M238.7,312.8c10.3-16.4,24.7-17.2,26.1-8.4C266.2,313.1,254.5,318.9,238.7,312.8z"/>
<path class="st7" d="M242.4,218.2c-31.4-35-63.6-22.9-73.6-12.9c-10,10,18.6,24.3,36.8,23.6c-34.7,3.6-61.8,9.3-66.1,20.7
	c-4.3,11.4,63.6,15.7,87.9,0c-12.1,17.2,12.9,20.7,25,20.7c12.1,0,43.6-2.1,27.9-19.3c27.9,9.3,57.2,16.4,65,6.4
	c7.9-10-15-30-65-30.7c29.3-8.6,50.7-15.7,46.5-21.4C322.5,199.6,293.2,164.6,242.4,218.2z"/>
<path class="st4" d="M214.5,231.8c2.9-15.5,40-31.4,62.2,0C265.2,239.6,232.3,242.5,214.5,231.8z"/>
<g>
	<path class="st8" d="M231.4,42.7c3.5-7.1,6.5-26.8-4.3-25.3S230.4,44.8,231.4,42.7z"/>
	<path d="M251.7,34.7c-1.5,1.6,0.2,10,6.1,8.8C263.7,42.2,255.4,30.7,251.7,34.7z"/>
	<path class="st9" d="M248,53.8c-1.1,1-2.3,1.9-3.6,2.7c-1.3,0.8-2.8,1.5-4.3,2.2c-2.8,1.2-5.8,2-9,2.5c-1.7,0.3-3.4,0.5-5.2,0.5
		c-1.3,0.1-2.7,0.1-4,0c-1,0-1.9-0.1-2.9-0.2c-1.5-0.2-3.1-0.4-4.5-0.7c-2.2-0.5-4.3-1.2-6.2-2.1c0.6-2.6,1.8-5,3.5-7
		c0.7-0.9,1.6-1.8,2.5-2.5c0,0,0,0,0,0c1.2-1.1,2.5-2,3.9-2.9c1.2-0.8,2.5-1.4,3.8-2c1.5-0.7,2.9-1.3,4.4-1.8c2-0.7,4.1-1.2,6-1.5
		c1.4-0.2,2.7-0.3,3.9-0.4c2.7-0.1,5.1,0.3,6.7,1.1C243.1,41.7,253,49.8,248,53.8z"/>
	<path class="st10" d="M219.1,61.5c-1.5-0.2-3.1-0.4-4.5-0.7c-2.4-3.2-2.8-6.1-2.7-9.1c0.7-0.9,1.6-1.8,2.5-2.5
		C215.2,55.8,217.3,59.5,219.1,61.5z"/>
	<path class="st10" d="M248,53.8c-1.1,1-2.3,1.9-3.6,2.7c-7.4-4.5-8.2-11.6-8-15.9c2.7-0.1,5.1,0.3,6.7,1.1
		C243.1,41.7,253,49.8,248,53.8z"/>
	<circle class="st9" cx="249.4" cy="42.8" r="9.7"/>
	<path class="st10" d="M240.2,58.6c-2.8,1.2-5.8,2-9,2.5c-2.8-3.2-6.3-9.2-4.7-18.7c2-0.7,4.1-1.2,6-1.5
		C231.8,45.5,230.7,52.3,240.2,58.6z"/>
	<path class="st10" d="M226,61.7c-1.3,0.1-2.7,0.1-4,0c-1.9-2.5-5-7.9-3.7-15.5c1.2-0.8,2.5-1.4,3.8-2C221.6,48.6,221.3,55,226,61.7
		z"/>
	<path d="M246.8,37.8c-1.5,1.6,0.2,10,6.1,8.8C258.8,45.3,250.5,33.8,246.8,37.8z"/>
	<path class="st11" d="M230.5,44.7c-0.9-7.8-9.2-26.1-17.3-19C205,32.8,230.8,47.1,230.5,44.7z"/>
	<g>
		<path d="M249.4,33.1c-0.2-1.6-0.1-3.2,0.1-4.8c0.2-1.6,0.5-3.2,0.8-4.7c0.4-1.5,0.9-3.1,1.6-4.5c0.4-0.7,0.8-1.4,1.4-2
			c0.3-0.3,0.7-0.6,1.1-0.7c0.4-0.1,0.9,0,1.2,0.2c-0.8-0.3-1.5,0.1-1.9,0.8c-0.4,0.6-0.8,1.3-1,2c-0.5,1.4-1,3-1.3,4.5
			c-0.4,1.5-0.7,3.1-1,4.6C250,30,249.6,31.5,249.4,33.1z"/>
	</g>
	<g>
		<path d="M247.3,35.4c-1.3-2.4-2.2-5.1-2.8-7.8c-0.3-1.4-0.4-2.8-0.4-4.2c0-0.7,0.2-1.4,0.5-2.1c0.2-0.3,0.4-0.7,0.7-0.9
			c0.3-0.2,0.7-0.4,1-0.4c-0.3,0.1-0.6,0.3-0.8,0.6c-0.2,0.2-0.3,0.6-0.4,0.9c-0.2,0.6-0.2,1.3-0.1,2c0.1,1.3,0.3,2.7,0.6,4
			C246,30,246.7,32.7,247.3,35.4z"/>
	</g>
</g>
<g>
	<path class="st8" d="M163.1,111c3.5-7.1,6.5-26.8-4.3-25.3C148.1,87.2,162,113.2,163.1,111z"/>
	<path d="M183.4,103c-1.5,1.6,0.2,10,6.1,8.8S187.1,99.1,183.4,103z"/>
	<path class="st9" d="M179.7,122.1c-1.1,1-2.3,1.9-3.6,2.7c-1.3,0.8-2.8,1.5-4.3,2.2c-2.8,1.2-5.8,2-9,2.5c-1.7,0.3-3.4,0.5-5.2,0.5
		c-1.3,0.1-2.7,0.1-4,0c-1,0-1.9-0.1-2.9-0.2c-1.5-0.2-3.1-0.4-4.5-0.7c-2.2-0.5-4.3-1.2-6.2-2.1c0.6-2.6,1.8-5,3.5-7
		c0.7-0.9,1.6-1.8,2.5-2.5c0,0,0,0,0,0c1.2-1.1,2.5-2,3.9-2.9c1.2-0.8,2.5-1.4,3.8-2c1.5-0.7,2.9-1.3,4.4-1.8c2-0.7,4.1-1.2,6-1.5
		c1.4-0.2,2.7-0.3,3.9-0.4c2.7-0.1,5.1,0.3,6.7,1.1C174.8,110.1,184.7,118.1,179.7,122.1z"/>
	<path class="st10" d="M150.7,129.9c-1.5-0.2-3.1-0.4-4.5-0.7c-2.4-3.2-2.8-6.1-2.7-9.1c0.7-0.9,1.6-1.8,2.5-2.5
		C146.9,124.1,149,127.8,150.7,129.9z"/>
	<path class="st10" d="M179.7,122.1c-1.1,1-2.3,1.9-3.6,2.7c-7.4-4.5-8.2-11.6-8-15.9c2.7-0.1,5.1,0.3,6.7,1.1
		C174.8,110.1,184.7,118.1,179.7,122.1z"/>
	<circle class="st9" cx="181.1" cy="111.2" r="9.7"/>
	<path class="st10" d="M171.8,127c-2.8,1.2-5.8,2-9,2.5c-2.8-3.2-6.3-9.2-4.7-18.7c2-0.7,4.1-1.2,6-1.5
		C163.5,113.8,162.3,120.6,171.8,127z"/>
	<path class="st10" d="M157.6,130c-1.3,0.1-2.7,0.1-4,0c-1.9-2.5-5-7.9-3.7-15.5c1.2-0.8,2.5-1.4,3.8-2
		C153.3,117,153,123.3,157.6,130z"/>
	<path d="M178.5,106.1c-1.5,1.6,0.2,10,6.1,8.8C190.5,113.6,182.2,102.1,178.5,106.1z"/>
	<path class="st11" d="M162.2,113c-0.9-7.8-9.2-26.1-17.3-19C136.6,101.1,162.5,115.4,162.2,113z"/>
	<g>
		<path d="M181.1,101.5c-0.2-1.6-0.1-3.2,0.1-4.8c0.2-1.6,0.5-3.2,0.8-4.7c0.4-1.5,0.9-3.1,1.6-4.5c0.4-0.7,0.8-1.4,1.4-2
			c0.3-0.3,0.7-0.6,1.1-0.7c0.4-0.1,0.9,0,1.2,0.2c-0.8-0.3-1.5,0.1-1.9,0.8c-0.4,0.6-0.8,1.3-1,2c-0.5,1.4-1,3-1.3,4.5
			c-0.4,1.5-0.7,3.1-1,4.6C181.6,98.3,181.3,99.9,181.1,101.5z"/>
	</g>
	<g>
		<path d="M179,103.7c-1.3-2.4-2.2-5.1-2.8-7.8c-0.3-1.4-0.4-2.8-0.4-4.2c0-0.7,0.2-1.4,0.5-2.1c0.2-0.3,0.4-0.7,0.7-0.9
			c0.3-0.2,0.7-0.4,1-0.4c-0.3,0.1-0.6,0.3-0.8,0.6c-0.2,0.2-0.3,0.6-0.4,0.9c-0.2,0.6-0.2,1.3-0.1,2c0.1,1.3,0.3,2.7,0.6,4
			C177.7,98.3,178.4,101,179,103.7z"/>
	</g>
</g>
<g>
	<path class="st8" d="M236.5,184.5c3.5-7.1,6.5-26.8-4.3-25.3C221.5,160.6,235.4,186.6,236.5,184.5z"/>
	<path d="M256.8,176.5c-1.5,1.6,0.2,10,6.1,8.8C268.8,184,260.5,172.5,256.8,176.5z"/>
	<path class="st9" d="M253.1,195.6c-1.1,1-2.3,1.9-3.6,2.7c-1.3,0.8-2.8,1.5-4.3,2.2c-2.8,1.2-5.8,2-9,2.5c-1.7,0.3-3.4,0.5-5.2,0.5
		c-1.3,0.1-2.7,0.1-4,0c-1,0-1.9-0.1-2.9-0.2c-1.5-0.2-3.1-0.4-4.5-0.7c-2.2-0.5-4.3-1.2-6.2-2.1c0.6-2.6,1.8-5,3.5-7
		c0.7-0.9,1.6-1.8,2.5-2.5c0,0,0,0,0,0c1.2-1.1,2.5-2,3.9-2.9c1.2-0.8,2.5-1.4,3.8-2c1.5-0.7,2.9-1.3,4.4-1.8c2-0.7,4.1-1.2,6-1.5
		c1.4-0.2,2.7-0.3,3.9-0.4c2.7-0.1,5.1,0.3,6.7,1.1C248.2,183.5,258.1,191.5,253.1,195.6z"/>
	<path class="st10" d="M224.2,203.3c-1.5-0.2-3.1-0.4-4.5-0.7c-2.4-3.2-2.8-6.1-2.7-9.1c0.7-0.9,1.6-1.8,2.5-2.5
		C220.3,197.5,222.4,201.3,224.2,203.3z"/>
	<path class="st10" d="M253.1,195.6c-1.1,1-2.3,1.9-3.6,2.7c-7.4-4.5-8.2-11.6-8-15.9c2.7-0.1,5.1,0.3,6.7,1.1
		C248.2,183.5,258.1,191.5,253.1,195.6z"/>
	<circle class="st9" cx="254.5" cy="184.6" r="9.7"/>
	<path class="st10" d="M245.2,200.4c-2.8,1.2-5.8,2-9,2.5c-2.8-3.2-6.3-9.2-4.7-18.7c2-0.7,4.1-1.2,6-1.5
		C236.9,187.2,235.8,194.1,245.2,200.4z"/>
	<path class="st10" d="M231.1,203.5c-1.3,0.1-2.7,0.1-4,0c-1.9-2.5-5-7.9-3.7-15.5c1.2-0.8,2.5-1.4,3.8-2
		C226.7,190.4,226.4,196.7,231.1,203.5z"/>
	<path d="M251.9,179.5c-1.5,1.6,0.2,10,6.1,8.8C263.9,187,255.6,175.6,251.9,179.5z"/>
	<path class="st11" d="M235.6,186.5c-0.9-7.8-9.2-26.1-17.3-19S235.9,188.8,235.6,186.5z"/>
	<g>
		<path d="M254.5,174.9c-0.2-1.6-0.1-3.2,0.1-4.8c0.2-1.6,0.5-3.2,0.8-4.7c0.4-1.5,0.9-3.1,1.6-4.5c0.4-0.7,0.8-1.4,1.4-2
			c0.3-0.3,0.7-0.6,1.1-0.7c0.4-0.1,0.9,0,1.2,0.2c-0.8-0.3-1.5,0.1-1.9,0.8c-0.4,0.6-0.8,1.3-1,2c-0.5,1.4-1,3-1.3,4.5
			c-0.4,1.5-0.7,3.1-1,4.6C255.1,171.8,254.7,173.3,254.5,174.9z"/>
	</g>
	<g>
		<path d="M252.4,177.1c-1.3-2.4-2.2-5.1-2.8-7.8c-0.3-1.4-0.4-2.8-0.4-4.2c0-0.7,0.2-1.4,0.5-2.1c0.2-0.3,0.4-0.7,0.7-0.9
			c0.3-0.2,0.7-0.4,1-0.4c-0.3,0.1-0.6,0.3-0.8,0.6c-0.2,0.2-0.3,0.6-0.4,0.9c-0.2,0.6-0.2,1.3-0.1,2c0.1,1.3,0.3,2.7,0.6,4
			C251.1,171.8,251.8,174.4,252.4,177.1z"/>
	</g>
</g>
</svg>
