<?xml version="1.0" encoding="utf-8"?>
<!-- Generator: Adobe Illustrator 22.1.0, SVG Export Plug-In . SVG Version: 6.00 Build 0)  -->
<svg version="1.1" id="Calque_2" xmlns="http://www.w3.org/2000/svg" xmlns:xlink="http://www.w3.org/1999/xlink" x="0px" y="0px"
	 viewBox="0 0 580.8 349.4" style="enable-background:new 0 0 580.8 349.4;" xml:space="preserve">
<style type="text/css">
	.st0{fill:#ADCE6D;}
	.st1{fill:#EE7019;}
	.st2{fill:#E6332A;}
	.st3{fill:#E94E1B;}
	.st4{fill:#A11F2F;}
	.st5{fill:#BE1622;}
	.st6{fill:#FFCA00;}
	.st7{fill:#F7C5DD;}
	.st8{fill:#F29AC2;}
	.st9{fill:#F5B5D2;}
	.st10{fill:#A3195B;}
	.st11{fill:#00B7ED;}
	.st12{fill:#432918;}
	.st13{fill:#FFED00;}
	.st14{fill:#99D7F7;}
	.st15{fill:#F39200;}
	.st16{fill:#FBBA00;}
	.st17{fill:#FFFFFF;}
	.st18{fill:none;stroke:#FFFFFF;stroke-miterlimit:10;}
</style>
<g>
	<path class="st0" d="M118.4,355.9c-25.7-25.8-17.4-88.6,6.5-131c20.9-37.1-1.3-83.5-9.7-100.9c-0.7-1.6-1.4-2.9-1.9-4l6.5-3
		c0.5,1,1.1,2.3,1.8,3.8c8.8,18.4,32.2,67.2,9.4,107.6c-22.1,39.3-30.7,99.2-7.6,122.4L118.4,355.9z"/>
</g>
<g>
	<path class="st1" d="M208.9,149.4c-10.4,3.8-23.6,16.8-37,17.7c-2.1,0.1-4.3-0.3-6.3-1.2c-10.7-4.7-19.8-22.1-25.1-34.1l-2-5.8
		c0,0,11.4,1.8,47.7,3.3c12.4,0.5,21.7-2.3,28.7-5.6c13.6-6.4,18.9-14.8,21.8-5.5C241.2,132.2,219.3,145.6,208.9,149.4z"/>
	<g>
		<path class="st2" d="M148.8,116.3c15.8-6.5,60.5-40.8,65.7-52.7c5.2-12-3.4-19-3.8-22.2c-0.5-3.2,4-20.2-7.3-23.5
			s-16.2-3.5-22.2-2.9c-5.9,0.6-20.8,3.6-23.8,9s-15.7,16.2-16.3,37.7c-0.6,21.5-6.6,56.8-6.6,56.8L148.8,116.3z"/>
		<path class="st3" d="M108.3,115.9c-4.2-7.6-32-25.9-35.8-33.9S66,54.4,73,52.5c0.5-5.9,3.4-12.7,8.4-13.4
			c-0.5-8.1,8.8-29.2,21.2-30.9s13.2,10.4,20.3,9.4c7.1-1,15.4,3.3,16,8.2c0.7,4.9-1.5,12.4-3.9,17.7c-2.4,5.3,3.9,11.7,3.7,20.3
			c-0.2,8.6-3,50.6-3.9,57S108.3,115.9,108.3,115.9z"/>
		<path class="st3" d="M268.5,108.7c0,0.5-0.2,1.1-0.4,1.6c-2.7,6.3-26,12.1-47.5,10.7c-2.8,3.1-16.8,7.3-38.4,8.1
			c-9.5,0.3-20.3,0-32.3-1.3c-39.4-4.5-8.7-12.7-4.4-13.9c4.4-1.3,39.7-26.8,47.8-34s8.5-13.4,34.5-13c8.9,0.2,6.3,8.5,19.2,11.2
			c13,2.7,5.4,11.2,9.4,13.9C260.1,94.4,269.2,102.5,268.5,108.7z"/>
		<path class="st4" d="M268.5,108.7c0,0.5-0.2,1.1-0.4,1.6c-2.7,6.3-26,12.1-47.5,10.7c-2.8,3.1-16.8,7.3-38.4,8.1
			c11.4-4.7,22.3-11.2,26.7-12.5c7.5-2.2,13.1-15.2,27.4-12.1C254.7,108.5,264.1,109.5,268.5,108.7z"/>
		<path class="st4" d="M208.9,149.4c-10.4,3.8-23.6,16.8-37,17.7c-2.1,0.1-4.3-0.3-6.3-1.2c13.8,1.5,10.9,0.5,16.7-3.7
			c5.8-4.2,8.8-10.3,10.6-15.2c1.8-4.9,5.4,0.4,12.5-11.2c2.7-4.4,5.9-8.6,9.5-12.2c13.6-6.4,18.9-14.8,21.8-5.5
			C241.2,132.2,219.3,145.6,208.9,149.4z"/>
		<path class="st2" d="M171.9,192.6c-3.3,6.6-12.2,7.7-21,7.3c-7.9-0.4-15.7-2.1-18.9-2.3c-6.7-0.4-10.7,10.3-20.6,12.5
			c-3.2,0.7-5.1-0.4-6.2-2.7h0c-2.3-4.9-1.1-15.1-0.5-25.1c0.9-14.8,23.7-49.7,27.3-53.3c0,0,31.8,26,33.6,28.7
			C167.4,160.4,178.1,180.1,171.9,192.6z"/>
		<path class="st4" d="M171.9,192.6c-3.3,6.6-12.2,7.7-21,7.3c-1.2-0.1-2.3-0.1-3.5-0.3c-0.6-0.1-1.1-0.1-1.6-0.2
			c-0.7-0.1-1.4-0.2-2.1-0.3c-1.4-0.2-2.8-0.4-4-0.6c-0.8-0.1-1.6-0.3-2.3-0.4c-2.3-0.4-4.1-0.6-5.3-0.7
			c-6.7-0.4-10.7,10.3-20.6,12.5c-3.2,0.7-5.1-0.4-6.2-2.7c5.9,3.5,16.3-3.2,18.3-7.4c1.9-3.8,6.4-9.5,13.2-10.3
			c1.3-0.2,2.5-0.6,3.7-1.1c5.4-2.2,8.3,0.4,12.7,1.3C159.3,191.3,156.7,200.7,171.9,192.6z"/>
		<path class="st2" d="M113.6,113.9c-8.1-6.4-16.1-12.5-30-15.9S59,75.8,47.4,75.3c-11.6-0.4-5.8,4.5-10.3,4.5S19.6,78,16.9,85.2
			c-2.7,7.2-9,0.4-9.8,2.7c-0.9,2.2,5.8,9.8,4.9,16.1s0,10.8,6.3,17c6.3,6.3-1.3,13.6,4.9,19.5c6.3,6,15.7,18.5,24.6,16.7
			s15.7-4.5,21.5-2.7s44.8-32.7,50.1-32.2C124.8,122.8,113.6,113.9,113.6,113.9z"/>
		<path class="st3" d="M120.9,167.1c-3.5,12.6-22,28.6-34.1,31.9c-12.1,3.3-35.8-6.4-42.5-7.7s-18.4,4-17.9-3.6
			c0.4-7.6,11.6-9.9,14.3-9c2.7,0.9,4.9-2.7,9-2.2c0.5,0.1,0.9,0.1,1.4,0.1c3.1-0.1,4.9-2.1,8.5-6.9c15.2-21.2,51-42.5,60-47.3
			c0,0,0,0,6.7,3.1C132.9,128.6,124.4,154.6,120.9,167.1z"/>
		<path class="st4" d="M86.8,199c-12.1,3.3-35.8-6.4-42.5-7.7s-18.4,4-17.9-3.6c0.4-7.6,11.6-9.9,14.3-9c2.7,0.9,4.9-2.7,9-2.2
			c0.5,0.1,0.9,0.1,1.4,0.1c1.9,0.8,3.2,2,4.5,4.4c6.7,0,11.2,7.6,15.7,11.6C75.6,191.3,77.8,198.7,86.8,199z"/>
		<path class="st5" d="M120.9,100.5c2.2-1.2,1.9-2.8,1.9-9.9c0-7.1,2.8,16.5,4,10c1.2-6.5,5,4.3,5-2.5s5.4,11.8,7.2,0
			s8.6-33.5,11.4-36.9c-2.8,10.6-9.9,25.1-8.4,36.9c4.3-4,16.2-23.9,16.8-27.9c-3.1,12.7-11.5,32-15.8,36c6.5-5.6,28.6-41.6,28.9-50
			c-3.4,13.4-19.9,40.4-22.4,44.4c4.3-1.9,11.8-5,13-9.9c-5.6,11.2-11.5,10.6-12.4,13.4c5,0,20.8-11.2,25.2-18.4
			c-8.1,10.6-24.6,19.4-25.2,22.7c-0.5,3.3,16.9-1.2,23.7-4.3c-5,5.2-15.9,7.5-22.1,8.7c-6.2,1.1,2.2,1.4,7.8,1.3
			c5.6-0.1,24.2-12.5,30.1-11.6c-4,1.9-25,14.3-32.9,14.1c-7.9-0.2-3.4,4.2-1.4,3.6c2-0.6,14.5-3.1,20.1-1.6
			c5.6,1.6,1.5,0.1-5.6,1.6c-7.1,1.5-16.1,2.6-16.2,4.9c0,2.3-4.9,5.9,12,7.1c16.9,1.2,14.4,3.7,14.4,3.7s-24.8-2.2-26.7-3.7
			c5.3,3.4,24.8,6.8,25.8,12.7c-4.7-2.8-28.9-10.6-29.5-12.4c3.4,4.3,7.5,8.6,9.6,8c-3.4,2.2-13.4-6.2-13.7-7.4
			c1.9,5.6-2.7,10,3.1,14.6c-5.9-6.6-8.1-7.6-9.6-10.9c-1.5-3.3-5.3-5-4.5-1.6c0.7,3.4,2.7,5.9,4.5,14.9c1.8,9,1.3,13.4,0,16.9
			c0.3-6.7-1.6-23.9-7.2-32.8c-1.6,7.5-2.9,12.7-1.8,20.2c-2.6-3.1-4.7-13.6-1.4-19.6c-1.8,1.1-12.7,1.2-16.1,12.7
			c0-5.6,5.9-12.7,8.4-14c-14,11.5-16.7,25.3-22.6,27.3c3.7-5.2,17.1-31,19.9-29.1c-7.5,0.6-12.1,9.9-15.8,12.4
			c3.7-6.8,10.2-15,12.4-15.2c-18.3,10-38.5,15.2-46.1,13.7c7.6-0.6,40.5-9.4,42.7-17.1c-6.2,3.1-18.9,8.7-24.5,8.7
			c10.2-4.7,23-11.6,26.1-12c-25.5,0.8-24.2,8.6-54,2.1c20.5,1.2,24.2-0.1,36.7-2.1c12.4-2,15.7-1,17.1-2.6
			c-7.8-4.3-15.5-6.7-20.8-5.8c8.7-2.9,22.2,5.3,24.2,4.6c-11.2-11.2-17.4-13-20.5-25.1c2.5,2.8,11.2,19.7,22.4,20.6
			c-5.6-6-6.8-8.5-7.1-12.5c3.7,4.3,1,5.5,8.1,10.2c-1.1-4.9,0.6-6-4-14.3S117.8,102.2,120.9,100.5z"/>
		<path class="st6" d="M122.2,131c2.2-0.4,3.5,4.1,7.9,2.1c4.3-2,7.2-1.1,10.4-1.3c3.2-0.2,10.4-0.5,9.4-4c-1-3.5,1.3-4.6,0.1-8
			c-1.2-3.4-1-7.8-1.5-7.5s0.8-3.2-2.3-4.7c-3.1-1.5-5.6-5.2-7.1-4.9c-1.5,0.4-6.2-0.4-8.4,0s-8.2-1.3-8.4,0.6
			c-0.2,1.9-4.1,2.5-3.9,4.5c0.2,2-2.9,1.5-3.8,3.8c-0.9,2.3,1.3,4.3,1.5,6.9s-2,2.2-0.7,5.2c1.3,3,2.8,2.1,3.2,3.7
			C118.8,129.1,119.4,131.5,122.2,131z"/>
	</g>
</g>
<g>
	<path class="st0" d="M423.7,355.9c-25.7-25.8-17.4-88.6,6.5-131c20.9-37.1-1.3-83.5-9.7-100.9c-0.7-1.6-1.4-2.9-1.9-4l6.5-3
		c0.5,1,1.1,2.3,1.8,3.8c8.8,18.4,32.2,67.2,9.4,107.6c-22.1,39.3-30.7,99.2-7.6,122.4L423.7,355.9z"/>
</g>
<g>
	<path class="st7" d="M514.2,149.4c-10.4,3.8-23.6,16.8-37,17.7c-2.1,0.1-4.3-0.3-6.3-1.2c-10.7-4.7-19.8-22.1-25.1-34.1l-2-5.8
		c0,0,11.4,1.8,47.7,3.3c12.4,0.5,21.7-2.3,28.7-5.6c13.6-6.4,18.9-14.8,21.8-5.5C546.5,132.2,524.6,145.6,514.2,149.4z"/>
	<g>
		<path class="st8" d="M515.2,70.1c-9.2,10.5-29.3,26.6-45,37c-2.2,1.5-4.4,2.9-6.4,4.1c-1.7,1-3.2,1.9-4.7,2.7c0,0,0,0,0,0
			c-1.7,0.9-3.2,1.7-4.6,2.3c-0.1,0-0.3,0.1-0.4,0.2l-13.7,2.1l-0.5,0.1c0,0,0.1-0.3,0.2-1c0.2-1.2,0.5-3.3,1-6.2v0
			c0.4-2.4,0.8-5.3,1.3-8.5c0-0.3,0.1-0.5,0.1-0.8c1.7-12.1,3.7-28.3,4.1-40.3c0.6-21.5,13.3-32.2,16.3-37.7c3-5.5,17.8-8.5,23.8-9
			c5.9-0.6,10.9-0.4,22.2,2.9c0.5,0.1,0.9,0.3,1.3,0.5c-8.1,5.2-13.5,14.2-13.5,24.5c0,11.4,6.6,21.3,16.1,26
			C513.4,69.4,514.3,69.8,515.2,70.1z"/>
		<path class="st9" d="M413.6,115.9c-4.2-7.6-32-25.9-35.8-33.9c-3.8-8.1-6.5-27.6,0.5-29.4c0.5-5.9,3.4-12.7,8.4-13.4
			c-0.5-8.1,8.8-29.2,21.2-30.9s13.2,10.4,20.3,9.4s15.4,3.3,16,8.2s-1.5,12.4-3.9,17.7c-2.4,5.3,3.9,11.7,3.7,20.3s-3,50.6-3.9,57
			C439.1,127.3,413.6,115.9,413.6,115.9z"/>
		<path class="st9" d="M573.8,108.7c0,0.5-0.2,1.1-0.4,1.6c0,0.1-0.1,0.2-0.2,0.3c0,0.1-0.1,0.1-0.1,0.2c0,0.1-0.1,0.2-0.2,0.3
			c0,0.1-0.1,0.1-0.1,0.2c-0.7,0.9-1.8,1.8-3.3,2.6c-0.3,0.2-0.5,0.3-0.8,0.5c-0.1,0.1-0.3,0.2-0.5,0.2c-0.3,0.2-0.6,0.3-1,0.5
			c-0.2,0.1-0.3,0.2-0.5,0.2c0,0-0.1,0-0.1,0.1c-0.2,0.1-0.4,0.2-0.6,0.2c-1.4,0.6-3,1.1-4.7,1.6c-0.4,0.1-0.9,0.3-1.4,0.4
			c-0.2,0.1-0.5,0.1-0.7,0.2c-0.5,0.1-1,0.2-1.4,0.4c-0.2,0.1-0.5,0.1-0.7,0.2c-0.5,0.1-1,0.2-1.5,0.3c-0.4,0.1-0.9,0.2-1.3,0.3
			c-1.1,0.2-2.2,0.4-3.4,0.6c-0.5,0.1-1.1,0.2-1.7,0.3c-1.1,0.2-2.2,0.3-3.4,0.5c-0.6,0.1-1.1,0.1-1.7,0.2c-0.5,0-1,0.1-1.5,0.1
			c-1,0.1-2,0.2-3,0.2c-0.5,0-1.1,0.1-1.6,0.1c-0.2,0-0.5,0-0.7,0c-0.8,0-1.6,0.1-2.4,0.1c-3,0.1-6,0-8.9-0.2
			c-0.3,0.3-0.6,0.6-1.1,0.9c-0.1,0.1-0.2,0.1-0.3,0.2c-0.6,0.4-1.4,0.8-2.2,1.1c-0.3,0.1-0.6,0.3-1,0.4c-0.2,0.1-0.4,0.1-0.6,0.2
			c-0.4,0.1-0.8,0.3-1.2,0.4c-0.2,0.1-0.5,0.2-0.8,0.2c-0.3,0.1-0.5,0.2-0.8,0.2c-0.5,0.2-1.1,0.3-1.7,0.5c0,0,0,0-0.1,0
			c-0.4,0.1-0.8,0.2-1.3,0.3s-0.9,0.2-1.4,0.3c-0.3,0.1-0.6,0.1-1,0.2c-0.4,0.1-0.8,0.2-1.2,0.2c-0.3,0.1-0.6,0.1-0.8,0.2
			c-0.5,0.1-0.9,0.2-1.4,0.3c-2.6,0.5-5.6,0.9-8.8,1.3c-1.3,0.1-2.6,0.3-3.9,0.4c-0.6,0-1.2,0.1-1.8,0.1c-2.1,0.2-4.4,0.3-6.7,0.4
			c0,0,0,0,0,0c-0.1,0-0.3,0-0.4,0c-8.7,0.3-18.5,0.1-29.3-1c-1-0.1-2-0.2-3-0.3c-4.8-0.5-8.5-1.2-11.4-1.8c-4.5-1-6.9-2.1-7.9-3.1
			c-1.7-1.8,0.7-3.7,4.1-5.3c0.2-0.1,0.3-0.2,0.5-0.2c3.9-1.8,8.8-3.1,10.4-3.5c0.5-0.2,1.5-0.7,2.9-1.5c1.2-0.7,2.8-1.7,4.5-2.9
			c12-7.9,34.2-24.1,40.3-29.6c5-4.4,7-8.5,14-10.9c0.8,0.4,1.7,0.8,2.6,1.2c3.2,1.3,6.8,2,10.5,2c4.7,0,9.2-1.1,13.2-3.2
			c3,2.7,4.5,7.3,13.5,9.1c13,2.7,5.4,11.2,9.4,13.9C565.4,94.4,574.5,102.5,573.8,108.7z"/>
		<path class="st10" d="M573.8,108.7c0,0.5-0.2,1.1-0.4,1.6c-2.7,6.3-26,12.1-47.5,10.7c-2.8,3.1-16.8,7.3-38.4,8.1
			c11.4-4.7,22.3-11.2,26.7-12.5c7.5-2.2,13.1-15.2,27.4-12.1C560,108.5,569.4,109.5,573.8,108.7z"/>
		<path class="st10" d="M514.2,149.4c-10.4,3.8-23.6,16.8-37,17.7c-2.1,0.1-4.3-0.3-6.3-1.2c13.8,1.5,10.9,0.5,16.7-3.7
			c5.8-4.2,8.8-10.3,10.6-15.2c1.8-4.9,5.4,0.4,12.5-11.2c2.7-4.4,5.9-8.6,9.5-12.2c13.6-6.4,18.9-14.8,21.8-5.5
			C546.5,132.2,524.6,145.6,514.2,149.4z"/>
		<path class="st8" d="M477.2,192.6c-3.3,6.6-12.2,7.7-21,7.3c-7.9-0.4-15.7-2.1-18.9-2.3c-6.7-0.4-10.7,10.3-20.6,12.5
			c-3.2,0.7-5.1-0.4-6.2-2.7h0c-2.3-4.9-1.1-15.1-0.5-25.1c0.9-14.8,23.7-49.7,27.3-53.3c0,0,31.8,26,33.6,28.7
			C472.7,160.4,483.4,180.1,477.2,192.6z"/>
		<path class="st10" d="M477.2,192.6c-3.3,6.6-12.2,7.7-21,7.3c-1.2-0.1-2.3-0.1-3.5-0.3c-0.6-0.1-1.1-0.1-1.6-0.2
			c-0.7-0.1-1.4-0.2-2.1-0.3c-1.4-0.2-2.8-0.4-4-0.6c-0.8-0.1-1.6-0.3-2.3-0.4c-2.3-0.4-4.1-0.6-5.3-0.7
			c-6.7-0.4-10.7,10.3-20.6,12.5c-3.2,0.7-5.1-0.4-6.2-2.7c5.9,3.5,16.3-3.2,18.3-7.4c1.9-3.8,6.4-9.5,13.2-10.3
			c1.3-0.2,2.5-0.6,3.7-1.1c5.4-2.2,8.3,0.4,12.7,1.3C464.6,191.3,462,200.7,477.2,192.6z"/>
		<path class="st8" d="M418.9,113.9c-8.1-6.4-16.1-12.5-30-15.9s-24.6-22.2-36.3-22.7c-11.6-0.4-5.8,4.5-10.3,4.5
			s-17.5-1.8-20.1,5.4c-2.7,7.2-9,0.4-9.8,2.7c-0.9,2.2,5.8,9.8,4.9,16.1c-0.9,6.3,0,10.8,6.3,17c6.3,6.3-1.3,13.6,4.9,19.5
			c6.3,6,15.7,18.5,24.6,16.7s15.7-4.5,21.5-2.7s44.8-32.7,50.1-32.2C430.1,122.8,418.9,113.9,418.9,113.9z"/>
		<path class="st9" d="M426.2,167.1c-3.5,12.6-22,28.6-34.1,31.9c-12.1,3.3-35.8-6.4-42.5-7.7s-18.4,4-17.9-3.6
			c0.4-7.6,11.6-9.9,14.3-9c2.7,0.9,4.9-2.7,9-2.2c0.5,0.1,0.9,0.1,1.4,0.1c3.1-0.1,4.9-2.1,8.5-6.9c15.2-21.2,51-42.5,60-47.3
			c0,0,0,0,6.7,3.1S429.7,154.6,426.2,167.1z"/>
		<path class="st10" d="M392.1,199c-12.1,3.3-35.8-6.4-42.5-7.7s-18.4,4-17.9-3.6c0.4-7.6,11.6-9.9,14.3-9c2.7,0.9,4.9-2.7,9-2.2
			c0.5,0.1,0.9,0.1,1.4,0.1c1.9,0.8,3.2,2,4.5,4.4c6.7,0,11.2,7.6,15.7,11.6C380.9,191.3,383.1,198.7,392.1,199z"/>
		<path class="st10" d="M426.2,100.5c2.2-1.2,1.9-2.8,1.9-9.9c0-7.1,2.8,16.5,4,10c1.2-6.5,5,4.3,5-2.5s5.4,11.8,7.2,0
			c1.8-11.8,8.6-33.5,11.4-36.9c-2.8,10.6-9.9,25.1-8.4,36.9c4.3-4,16.2-23.9,16.8-27.9c-3.1,12.7-11.5,32-15.8,36
			c6.5-5.6,28.6-41.6,28.9-50c-3.4,13.4-19.9,40.4-22.4,44.4c4.3-1.9,11.8-5,13-9.9c-5.6,11.2-11.5,10.6-12.4,13.4
			c5,0,20.8-11.2,25.2-18.4c-8.1,10.6-24.6,19.4-25.2,22.7s16.9-1.2,23.7-4.3c-5,5.2-15.9,7.5-22.1,8.7c-6.2,1.1,2.2,1.4,7.8,1.3
			c5.6-0.1,24.2-12.5,30.1-11.6c-4,1.9-25,14.3-32.9,14.1c-7.9-0.2-3.4,4.2-1.4,3.6c2-0.6,14.5-3.1,20.1-1.6s1.5,0.1-5.6,1.6
			c-7.1,1.5-16.1,2.6-16.2,4.9c0,2.3-4.9,5.9,12,7.1c16.9,1.2,14.4,3.7,14.4,3.7s-24.8-2.2-26.7-3.7c5.3,3.4,24.8,6.8,25.8,12.7
			c-4.7-2.8-28.9-10.6-29.5-12.4c3.4,4.3,7.5,8.6,9.6,8c-3.4,2.2-13.4-6.2-13.7-7.4c1.9,5.6-2.7,10,3.1,14.6
			c-5.9-6.6-8.1-7.6-9.6-10.9c-1.5-3.3-5.3-5-4.5-1.6c0.7,3.4,2.7,5.9,4.5,14.9c1.8,9,1.3,13.4,0,16.9c0.3-6.7-1.6-23.9-7.2-32.8
			c-1.6,7.5-2.9,12.7-1.8,20.2c-2.6-3.1-4.7-13.6-1.4-19.6c-1.8,1.1-12.7,1.2-16.1,12.7c0-5.6,5.9-12.7,8.4-14
			c-14,11.5-16.7,25.3-22.6,27.3c3.7-5.2,17.1-31,19.9-29.1c-7.5,0.6-12.1,9.9-15.8,12.4c3.7-6.8,10.2-15,12.4-15.2
			c-18.3,10-38.5,15.2-46.1,13.7c7.6-0.6,40.5-9.4,42.7-17.1c-6.2,3.1-18.9,8.7-24.5,8.7c10.2-4.7,23-11.6,26.1-12
			c-25.5,0.8-24.2,8.6-54,2.1c20.5,1.2,24.2-0.1,36.7-2.1c12.4-2,15.7-1,17.1-2.6c-7.8-4.3-15.5-6.7-20.8-5.8
			c8.7-2.9,22.2,5.3,24.2,4.6c-11.2-11.2-17.4-13-20.5-25.1c2.5,2.8,11.2,19.7,22.4,20.6c-5.6-6-6.8-8.5-7.1-12.5
			c3.7,4.3,1,5.5,8.1,10.2c-1.1-4.9,0.6-6-4-14.3C415.5,89,423.1,102.2,426.2,100.5z"/>
		<path class="st6" d="M427.5,131c2.2-0.4,3.5,4.1,7.9,2.1c4.3-2,7.2-1.1,10.4-1.3c3.2-0.2,10.4-0.5,9.4-4c-1-3.5,1.3-4.6,0.1-8
			c-1.2-3.4-1-7.8-1.5-7.5c-0.6,0.3,0.8-3.2-2.3-4.7s-5.6-5.2-7.1-4.9c-1.5,0.4-6.2-0.4-8.4,0c-2.2,0.4-8.2-1.3-8.4,0.6
			c-0.2,1.9-4.1,2.5-3.9,4.5c0.2,2-2.9,1.5-3.8,3.8c-0.9,2.3,1.3,4.3,1.5,6.9s-2,2.2-0.7,5.2c1.3,3,2.8,2.1,3.2,3.7
			S424.7,131.5,427.5,131z"/>
	</g>
</g>
<g>
	<g>
		<path d="M124.2,112.2c0.2,0.1,0.3,0.2,0.5,0.3c0.1,0.2,0.2,0.3,0.3,0.5c0.2,0.3,0.3,0.7,0.3,1.1c0.1,0.4,0.1,0.7,0.1,1.1l0,0.5
			c-0.1,0.2-0.1,0.4-0.3,0.5c-0.1-0.2-0.2-0.4-0.2-0.5l0-0.5c0-0.3,0-0.7-0.1-1c-0.1-0.3-0.2-0.6-0.3-1c-0.1-0.2-0.1-0.3-0.2-0.4
			L124.2,112.2z"/>
	</g>
	<g>
		<path d="M112.9,113.4c0.2,0.1,0.4,0.2,0.5,0.3c0.1,0.2,0.2,0.4,0.2,0.5c0.1,0.4,0.2,0.8,0.2,1.1c0,0.4,0,0.8,0,1.1
			c0,0.2,0,0.4-0.1,0.6c-0.1,0.2-0.2,0.3-0.4,0.5l-0.1-0.6c0-0.2,0.1-0.4,0.1-0.5c0-0.4,0-0.7,0-1.1c0-0.4-0.1-0.7-0.2-1
			c-0.1-0.2-0.1-0.3-0.2-0.5C113,113.8,112.9,113.6,112.9,113.4z"/>
	</g>
	<g>
		<path d="M130.9,108.1c0.3-0.1,0.6-0.2,0.9-0.2c0.3,0.1,0.6,0.2,0.9,0.3c0.6,0.2,1.1,0.5,1.6,0.9c0.5,0.4,1,0.7,1.4,1.2
			c0.2,0.2,0.4,0.4,0.6,0.7c0.1,0.3,0.2,0.6,0.3,0.9c-0.2-0.2-0.4-0.4-0.7-0.6c-0.2-0.2-0.4-0.4-0.6-0.6c-0.4-0.4-0.8-0.8-1.3-1.1
			c-0.5-0.3-1-0.6-1.5-0.8c-0.3-0.1-0.5-0.2-0.8-0.2l-0.4-0.2C131.2,108.2,131.1,108.1,130.9,108.1z"/>
	</g>
	<g>
		<path class="st11" d="M118.8,98.1c3-6.2,5.6-23.4-3.7-22.1C105.7,77.3,117.9,100,118.8,98.1z"/>
		<path d="M136.5,91.2c-1.3,1.4,0.2,8.7,5.3,7.6C147,97.7,139.7,87.7,136.5,91.2z"/>
		<path class="st12" d="M133.3,107.8c-1,0.9-2,1.6-3.2,2.3c-1.2,0.7-2.4,1.3-3.7,1.9c-2.4,1-5.1,1.8-7.9,2.2c-1.5,0.3-3,0.4-4.5,0.5
			c-1.2,0.1-2.3,0.1-3.5,0c-0.8,0-1.7-0.1-2.5-0.2c-1.4-0.1-2.7-0.3-4-0.6c-1.9-0.4-3.8-1-5.4-1.8c0.5-2.3,1.6-4.3,3.1-6.1
			c0.6-0.8,1.4-1.5,2.2-2.2c0,0,0,0,0,0c1-0.9,2.2-1.8,3.4-2.6c1.1-0.7,2.2-1.2,3.3-1.8c1.3-0.6,2.6-1.1,3.9-1.5
			c1.8-0.6,3.6-1,5.3-1.3c1.2-0.2,2.3-0.3,3.4-0.3c2.4-0.1,4.4,0.3,5.9,1C129,97.3,137.6,104.3,133.3,107.8z"/>
		<path class="st13" d="M108,114.6c-1.4-0.1-2.7-0.3-4-0.6c-2.1-2.8-2.4-5.3-2.4-7.9c0.6-0.8,1.4-1.5,2.2-2.2
			C104.6,109.6,106.5,112.8,108,114.6z"/>
		<path class="st13" d="M133.3,107.8c-1,0.9-2,1.6-3.2,2.3c-6.5-3.9-7.2-10.1-7-13.9c2.4-0.1,4.4,0.3,5.9,1
			C129,97.3,137.6,104.3,133.3,107.8z"/>
		<circle class="st12" cx="134.5" cy="98.3" r="8.5"/>
		<path class="st13" d="M126.4,112.1c-2.4,1-5.1,1.8-7.9,2.2c-2.4-2.8-5.5-8.1-4.1-16.3c1.8-0.6,3.6-1,5.3-1.3
			C119.1,100.6,118.1,106.5,126.4,112.1z"/>
		<path class="st13" d="M114,114.7c-1.2,0.1-2.3,0.1-3.5,0c-1.6-2.2-4.3-6.9-3.2-13.5c1.1-0.7,2.2-1.2,3.3-1.8
			C110.2,103.3,110,108.8,114,114.7z"/>
		<path d="M132.2,93.9c-1.3,1.4,0.2,8.7,5.3,7.6C142.7,100.4,135.4,90.4,132.2,93.9z"/>
		<path class="st14" d="M118,99.9c-0.8-6.8-8-22.7-15.1-16.5C95.7,89.5,118.2,102,118,99.9z"/>
		<g>
			<path d="M134.5,89.8c-0.2-1.4-0.1-2.8,0-4.2c0.1-1.4,0.4-2.8,0.7-4.1c0.3-1.4,0.8-2.7,1.4-4c0.3-0.6,0.7-1.3,1.2-1.8
				c0.3-0.3,0.6-0.5,1-0.6c0.4-0.1,0.8,0,1,0.2c-0.7-0.3-1.3,0.1-1.6,0.7c-0.4,0.5-0.6,1.1-0.9,1.8c-0.5,1.3-0.8,2.6-1.1,3.9
				c-0.3,1.3-0.6,2.7-0.9,4C135,87.1,134.7,88.4,134.5,89.8z"/>
		</g>
		<g>
			<path d="M132.6,91.8c-0.6-1.1-1.1-2.2-1.5-3.3c-0.4-1.1-0.7-2.3-1-3.5c-0.2-1.2-0.4-2.4-0.3-3.7c0-0.6,0.2-1.3,0.4-1.9
				c0.2-0.3,0.3-0.6,0.6-0.8c0.3-0.2,0.6-0.3,0.9-0.3c-0.6,0.2-0.9,0.7-1,1.3c-0.1,0.5-0.1,1.1-0.1,1.7c0.1,1.2,0.3,2.3,0.5,3.5
				C131.6,87.1,132.2,89.4,132.6,91.8z"/>
		</g>
	</g>
	<g>
		<path d="M128.2,108.1c0.3,0.2,0.6,0.4,0.9,0.6l0.7,0.7c0.5,0.5,1,1,1.4,1.5c0.5,0.5,0.9,1.1,1.2,1.8c0.1,0.3,0.3,0.7,0.3,1
			c0,0.4,0,0.7-0.1,1.1c-0.1-0.3-0.2-0.7-0.4-1c-0.1-0.3-0.2-0.6-0.3-0.9c-0.3-0.6-0.6-1.2-1.1-1.7c-0.4-0.5-0.9-1-1.4-1.5l-0.7-0.7
			C128.5,108.7,128.4,108.4,128.2,108.1z"/>
	</g>
	<g>
		<path d="M122,111.1l0.1,1.1c0,0.3-0.1,0.7-0.1,1c0,0.7,0,1.4,0.1,2c0.1,0.7,0.2,1.3,0.4,2c0.1,0.3,0.2,0.6,0.4,0.9
			c0.1,0.3,0.3,0.6,0.5,0.8c-0.4-0.1-0.7-0.3-1-0.6c-0.2-0.3-0.4-0.7-0.5-1c-0.2-0.7-0.4-1.4-0.4-2.1c-0.1-0.7-0.1-1.4-0.1-2.1
			c0-0.4,0-0.7,0.1-1.1C121.7,111.8,121.9,111.4,122,111.1z"/>
	</g>
	<g>
		<path d="M111.2,113.9c0.1,0.3,0.2,0.5,0.3,0.8c0,0.3,0,0.5,0,0.8c0,0.5-0.1,1.1-0.1,1.6c0,0.5,0.1,1,0.2,1.5
			c0.1,0.2,0.2,0.5,0.3,0.7c0,0.3,0.1,0.5,0.1,0.8c-0.2-0.2-0.4-0.4-0.6-0.6c-0.1-0.2-0.2-0.5-0.3-0.8c-0.2-0.5-0.3-1.1-0.3-1.6
			c0-0.6,0.1-1.1,0.1-1.6c0-0.3,0-0.5,0-0.8C111.1,114.4,111.1,114.1,111.2,113.9z"/>
	</g>
	<path class="st15" d="M121.7,110.2c-1.2,0.6-1.8,6.3,0.1,6.3c2,0,2.4-5.1,1.7-5.7C122.8,110.3,122.9,109.6,121.7,110.2z"/>
	<path class="st15" d="M111.5,112.2c-0.9,0-2.2,3.9-1.8,4.8c0.4,0.9,1.9,1.8,2.4,0.6C112.6,116.4,113.4,112.2,111.5,112.2z"/>
</g>
<path class="st16" d="M436.7,118c1.8-4,1.7-17.6-2.3-21s-10.8,3.4-8-5.2S452,79,448.9,87.4c-3.2,8.4-7.4-0.3-9.9,6.8
	c3.2,4.6,2.8,22.8,1.8,24.2S437.6,119.8,436.7,118z"/>
<circle class="st15" cx="422.2" cy="82.2" r="0.6"/>
<circle class="st15" cx="426.6" cy="82.8" r="0.7"/>
<circle class="st15" cx="425" cy="87" r="0.7"/>
<circle class="st15" cx="431.3" cy="88.6" r="0.8"/>
<circle class="st15" cx="429.1" cy="91.9" r="0.4"/>
<circle class="st15" cx="433.3" cy="92.3" r="0.6"/>
<circle class="st15" cx="428.7" cy="85.3" r="0.4"/>
<circle class="st15" cx="427.3" cy="88.6" r="0.6"/>
<circle class="st15" cx="424.1" cy="90.7" r="0.5"/>
<circle class="st15" cx="427.9" cy="94.3" r="0.4"/>
<circle class="st15" cx="437.1" cy="85.3" r="1"/>
<circle class="st15" cx="434.5" cy="88.6" r="0.8"/>
<circle class="st15" cx="436.4" cy="92.3" r="0"/>
<path class="st0" d="M112.5,271.8c-7.7-26-32.4-63.5-80.5-61.5c20.9,15.6,15.4,61.5,47.1,61.5S112.5,271.8,112.5,271.8z"/>
<path class="st0" d="M419.6,271.8c-7.7-26-32.4-63.5-80.5-61.5c20.9,15.6,15.4,61.5,47.1,61.5S419.6,271.8,419.6,271.8z"/>
<g>
	<path class="st9" d="M551.8,42.9c0,4.6-1.2,8.9-3.3,12.6c-2.2,4-5.5,7.4-9.4,9.8c-1.2,0.7-2.4,1.3-3.6,1.8c-3,1.2-6.3,1.9-9.8,1.9
		c-2.9,0-5.6-0.5-8.2-1.3c-0.1,0-0.3,0-0.4,0.1c0-0.1,0.1-0.1,0.1-0.2c-10.3-3.5-17.7-13.3-17.7-24.7c0-9.4,5-17.7,12.5-22.3
		c0.3-0.2,0.5-0.3,0.8-0.4c0.8-0.4,1.5-0.8,2.3-1.2c3.2-1.5,6.8-2.2,10.6-2.2c6.2,0,11.9,2.2,16.4,5.8c5.8,4.7,9.6,11.8,9.8,19.9
		C551.8,42.6,551.8,42.7,551.8,42.9z"/>
	<path class="st17" d="M517.2,67.6c0,0-0.1,0.1-0.1,0.2c0.1,0,0.3,0,0.4-0.1C517.4,67.7,517.3,67.7,517.2,67.6z"/>
</g>
<g>
	<g>
		<path class="st18" d="M440.2,87.6c6-6.1,37.5-13.3,51.9-27.9"/>
		<g>
			<path class="st17" d="M495.9,55c-1,2.9-1.9,6.7-1.9,9.6l-2.5-4.4l-4.7-1.7C489.6,58.1,493.3,56.5,495.9,55z"/>
		</g>
	</g>
</g>
<circle class="st18" cx="431.3" cy="91.2" r="9.9"/>
<g>
	<g>
		<path d="M426.1,76.8c0.2,0.1,0.3,0.2,0.5,0.3c0.1,0.2,0.2,0.3,0.3,0.5c0.2,0.3,0.3,0.7,0.3,1.1c0.1,0.4,0.1,0.7,0.1,1.1l0,0.5
			c-0.1,0.2-0.1,0.4-0.3,0.5c-0.1-0.2-0.2-0.4-0.2-0.5l0-0.5c0-0.3,0-0.7-0.1-1c-0.1-0.3-0.2-0.6-0.3-1c-0.1-0.2-0.1-0.3-0.2-0.4
			L426.1,76.8z"/>
	</g>
	<g>
		<path d="M414.8,78c0.2,0.1,0.4,0.2,0.5,0.3c0.1,0.2,0.2,0.4,0.2,0.5c0.1,0.4,0.2,0.8,0.2,1.1c0,0.4,0,0.8,0,1.1
			c0,0.2,0,0.4-0.1,0.6c-0.1,0.2-0.2,0.3-0.4,0.5l-0.1-0.6c0-0.2,0.1-0.4,0.1-0.5c0-0.4,0-0.7,0-1.1c0-0.4-0.1-0.7-0.2-1
			c-0.1-0.2-0.1-0.3-0.2-0.5C414.9,78.4,414.8,78.2,414.8,78z"/>
	</g>
	<g>
		<path d="M432.9,72.7c0.3-0.1,0.6-0.2,0.9-0.2c0.3,0.1,0.6,0.2,0.9,0.3c0.6,0.2,1.1,0.5,1.6,0.9c0.5,0.4,1,0.7,1.4,1.2
			c0.2,0.2,0.4,0.4,0.6,0.7c0.1,0.3,0.2,0.6,0.3,0.9c-0.2-0.2-0.4-0.4-0.7-0.6c-0.2-0.2-0.4-0.4-0.6-0.6c-0.4-0.4-0.8-0.8-1.3-1.1
			c-0.5-0.3-1-0.6-1.5-0.8c-0.3-0.1-0.5-0.2-0.8-0.2l-0.4-0.2C433.2,72.8,433,72.7,432.9,72.7z"/>
	</g>
	<g>
		<path class="st11" d="M420.7,62.8c3-6.2,5.6-23.4-3.7-22.1C407.6,41.9,419.8,64.6,420.7,62.8z"/>
		<path d="M438.4,55.8c-1.3,1.4,0.2,8.7,5.3,7.6C448.9,62.3,441.7,52.3,438.4,55.8z"/>
		<path class="st12" d="M435.2,72.4c-1,0.9-2,1.6-3.2,2.3c-1.2,0.7-2.4,1.3-3.7,1.9c-2.4,1-5.1,1.8-7.9,2.2c-1.5,0.3-3,0.4-4.5,0.5
			c-1.2,0.1-2.3,0.1-3.5,0c-0.8,0-1.7-0.1-2.5-0.2c-1.4-0.1-2.7-0.3-4-0.6c-1.9-0.4-3.8-1-5.4-1.8c0.5-2.3,1.6-4.3,3.1-6.1
			c0.6-0.8,1.4-1.5,2.2-2.2c0,0,0,0,0,0c1-0.9,2.2-1.8,3.4-2.6c1.1-0.7,2.2-1.2,3.3-1.8c1.3-0.6,2.6-1.1,3.9-1.5
			c1.8-0.6,3.6-1,5.3-1.3c1.2-0.2,2.3-0.3,3.4-0.3c2.4-0.1,4.4,0.3,5.9,1C430.9,61.9,439.6,68.9,435.2,72.4z"/>
		<path class="st13" d="M409.9,79.2c-1.4-0.1-2.7-0.3-4-0.6c-2.1-2.8-2.4-5.3-2.4-7.9c0.6-0.8,1.4-1.5,2.2-2.2
			C406.6,74.2,408.4,77.4,409.9,79.2z"/>
		<path class="st13" d="M435.2,72.4c-1,0.9-2,1.6-3.2,2.3c-6.5-3.9-7.2-10.1-7-13.9c2.4-0.1,4.4,0.3,5.9,1
			C430.9,61.9,439.6,68.9,435.2,72.4z"/>
		<circle class="st12" cx="436.4" cy="62.9" r="8.5"/>
		<path class="st13" d="M428.3,76.7c-2.4,1-5.1,1.8-7.9,2.2c-2.4-2.8-5.5-8.1-4.1-16.3c1.8-0.6,3.6-1,5.3-1.3
			C421.1,65.2,420.1,71.1,428.3,76.7z"/>
		<path class="st13" d="M416,79.3c-1.2,0.1-2.3,0.1-3.5,0c-1.6-2.2-4.3-6.9-3.2-13.5c1.1-0.7,2.2-1.2,3.3-1.8
			C412.1,67.9,411.9,73.5,416,79.3z"/>
		<path d="M434.1,58.5c-1.3,1.4,0.2,8.7,5.3,7.6C444.6,65,437.3,55,434.1,58.5z"/>
		<path class="st14" d="M419.9,64.5c-0.8-6.8-8-22.7-15.1-16.5C397.6,54.1,420.2,66.6,419.9,64.5z"/>
		<g>
			<path d="M436.4,54.4c-0.2-1.4-0.1-2.8,0-4.2c0.1-1.4,0.4-2.8,0.7-4.1c0.3-1.4,0.8-2.7,1.4-4c0.3-0.6,0.7-1.3,1.2-1.8
				c0.3-0.3,0.6-0.5,1-0.6c0.4-0.1,0.8,0,1,0.2c-0.7-0.3-1.3,0.1-1.6,0.7c-0.4,0.5-0.6,1.1-0.9,1.8c-0.5,1.3-0.8,2.6-1.1,3.9
				c-0.3,1.3-0.6,2.7-0.9,4C436.9,51.7,436.6,53,436.4,54.4z"/>
		</g>
		<g>
			<path d="M434.5,56.4c-0.6-1.1-1.1-2.2-1.5-3.3c-0.4-1.1-0.7-2.3-1-3.5c-0.2-1.2-0.4-2.4-0.3-3.7c0-0.6,0.2-1.3,0.4-1.9
				c0.2-0.3,0.3-0.6,0.6-0.8c0.3-0.2,0.6-0.3,0.9-0.3c-0.6,0.2-0.9,0.7-1,1.3c-0.1,0.5-0.1,1.1-0.1,1.7c0.1,1.2,0.3,2.3,0.5,3.5
				C433.5,51.7,434.1,54,434.5,56.4z"/>
		</g>
	</g>
	<g>
		<path d="M430.1,72.7c0.3,0.2,0.6,0.4,0.9,0.6l0.7,0.7c0.5,0.5,1,1,1.4,1.5c0.5,0.5,0.9,1.1,1.2,1.8c0.1,0.3,0.3,0.7,0.3,1
			c0,0.4,0,0.7-0.1,1.1c-0.1-0.3-0.2-0.7-0.4-1c-0.1-0.3-0.2-0.6-0.3-0.9c-0.3-0.6-0.6-1.2-1.1-1.7c-0.4-0.5-0.9-1-1.4-1.5l-0.7-0.7
			C430.5,73.3,430.3,73,430.1,72.7z"/>
	</g>
	<g>
		<path d="M423.9,75.7l0.1,1.1c0,0.3-0.1,0.7-0.1,1c0,0.7,0,1.4,0.1,2c0.1,0.7,0.2,1.3,0.4,2c0.1,0.3,0.2,0.6,0.4,0.9
			c0.1,0.3,0.3,0.6,0.5,0.8c-0.4-0.1-0.7-0.3-1-0.6c-0.2-0.3-0.4-0.7-0.5-1c-0.2-0.7-0.4-1.4-0.4-2.1c-0.1-0.7-0.1-1.4-0.1-2.1
			c0-0.4,0-0.7,0.1-1.1C423.7,76.4,423.8,76,423.9,75.7z"/>
	</g>
	<g>
		<path d="M413.1,78.5c0.1,0.3,0.2,0.5,0.3,0.8c0,0.3,0,0.5,0,0.8c0,0.5-0.1,1.1-0.1,1.6c0,0.5,0.1,1,0.2,1.5
			c0.1,0.2,0.2,0.5,0.3,0.7c0,0.3,0.1,0.5,0.1,0.8c-0.2-0.2-0.4-0.4-0.6-0.6c-0.1-0.2-0.2-0.5-0.3-0.8c-0.2-0.5-0.3-1.1-0.3-1.6
			c0-0.6,0.1-1.1,0.1-1.6c0-0.3,0-0.5,0-0.8C413,79,413,78.7,413.1,78.5z"/>
	</g>
	<path class="st15" d="M423.6,74.8c-1.2,0.6-1.8,6.3,0.1,6.3s2.4-5.1,1.7-5.7C424.7,74.9,424.8,74.2,423.6,74.8z"/>
	<path class="st15" d="M413.5,76.8c-0.9,0-2.2,3.9-1.8,4.8c0.4,0.9,1.9,1.8,2.4,0.6C414.5,81,415.3,76.8,413.5,76.8z"/>
</g>
<path class="st16" d="M546,50c1,1.4,1.8,3.3,2.5,5.5c-2.2,4-5.5,7.4-9.4,9.8c-1.3-3.6-3-6.5-5.2-8.3c-10.5-8.8-28.1,9-20.8-13.6
	c3.1-9.7,16-17.2,28.9-20.9c5.8,4.7,9.6,11.8,9.8,19.9C549.6,43.2,547.7,45.2,546,50z"/>
<path class="st15" d="M515.4,20.1c0,1-0.8,1.8-1.8,1.8c-0.8,0-1.5-0.5-1.7-1.2c0.3-0.2,0.5-0.3,0.8-0.4c0.8-0.4,1.5-0.8,2.3-1.2
	C515.3,19.3,515.4,19.7,515.4,20.1z"/>
<circle class="st15" cx="509.5" cy="30.9" r="1.8"/>
<circle class="st15" cx="526" cy="35.2" r="2.1"/>
<circle class="st15" cx="520.1" cy="43.8" r="1.1"/>
<circle class="st15" cx="531.3" cy="44.9" r="1.7"/>
<circle class="st15" cx="519.1" cy="26.7" r="1.1"/>
<circle class="st15" cx="515.4" cy="35.2" r="1.6"/>
<circle class="st15" cx="507.1" cy="40.7" r="1.2"/>
<circle class="st15" cx="517" cy="50" r="1"/>
<circle class="st15" cx="541.2" cy="26.7" r="2.5"/>
<circle class="st15" cx="534.4" cy="35.2" r="2.1"/>
</svg>
