<?xml version="1.0" encoding="utf-8"?>
<!-- Generator: Adobe Illustrator 22.1.0, SVG Export Plug-In . SVG Version: 6.00 Build 0)  -->
<svg version="1.1" id="Calque_2" xmlns="http://www.w3.org/2000/svg" xmlns:xlink="http://www.w3.org/1999/xlink" x="0px" y="0px"
	 viewBox="0 0 623 357.1" style="enable-background:new 0 0 623 357.1;" xml:space="preserve">
<style type="text/css">
	.st0{fill:#5E1058;}
	.st1{fill:#B276B0;}
	.st2{fill:#3560AB;}
	.st3{fill:#254798;}
	.st4{fill:#CC567C;}
	.st5{fill:#F9B233;}
	.st6{fill:#A3195B;}
	.st7{fill:#EA527C;}
	.st8{fill:#D60B52;}
	.st9{fill:#F49824;}
	.st10{fill:#FFD000;}
	.st11{fill:#E94E1B;}
	.st12{fill:#F49600;}
	.st13{fill:#2B1759;}
	.st14{fill:#6E68AD;}
	.st15{fill:#29235C;}
	.st16{fill:#006491;}
	.st17{fill:#4BB0E4;}
	.st18{fill:#00527A;}
	.st19{fill:#71CBF4;}
	.st20{fill:#432918;}
	.st21{fill:#FFED00;}
	.st22{fill:#99D7F7;}
</style>
<path class="st0" d="M605.1,167.3c0.3,1,2.8,6.2,0.3,10.5c-1,1.7-1.2,3.8-0.3,5.6c1,2.1,1.2,4.3-0.7,6.3c-2.7,3.1-2,4.7-1.1,6.7
	c0.5,1.1-7.7,4.2-16.7,6.3c-4.3,1-5.7,6.5-2.4,9.4c5.3,4.7,10.3,9.3,10.9,10.6c1.3,2.8-0.3,5.6-3,6.6c-2.7,1.1-3.6,2.1-2,5.1
	c1.6,3,0.7,10.9-4.6,14c-5.3,3.1-6.3-3.2-9.9-0.6c-3.6,2.7-7.9,2.7-8.9,1.6c-0.9-1.2-4.4-3.5-8.8-5.1c-4.3-1.6-4.2-14.4-6.3-21.5
	c-0.8-2.8-0.3-6.2,1-9.5c0.1-0.3,0.2-0.5,0.3-0.8c-0.2,0.2-0.4,0.5-0.6,0.7c-5.7,7.3-13.6,17.1-17.5,20c-6.4,4.8-4,1-10.8-0.3
	c-6.8-1.3-2.5-5.5-8.5-5.6c-6.1-0.1-9-8.2-8.6-10.2c0.4-2.1-2-7.2,1.4-8.6c3.2-1.3,4.9-4.7,10.6-7.5c0.5-0.2,0.9-0.5,1.3-0.9l5-4.7
	c2.7-2.5,2.2-6.8-0.9-8.7c-6.1-3.8-10.8-7.2-11.1-8.1c-0.8-2.6,7.6-3,5.8-7.3c-1.8-4.4,0.2-6.8,1.6-8.9c1.4-2.1-0.6-3.5,1.7-4.6
	c6.5-2,2.1-0.2,11.2-2.6c8.9-2.4,14.5,6.7,17.2,12.8c0.1,0.3,0.3,0.5,0.4,0.7c0.9,1.4,4.4,6.6,7.3,11.3c0.9,1.4,2.5,2.4,4.2,2.5
	c0,0,0.1,0,0.1,0c2.5,0.2,4.8-1.3,5.6-3.7c4.1-11.9,11-25.4,22.5-23.7c0.2,0,0.4,0.1,0.7,0.1C604.7,158.6,604.7,166.1,605.1,167.3z"
	/>
<path class="st1" d="M612.9,215.3c0.9,2-1.5,9.5-6.5,8.7c-5-0.9-4.3,1.4-9.7,2c-12.7,2.5-26.7-11.1-30.3-16.2c0,0-1.6-2.5-3-5.1
	c-0.2,0.1-0.3,0.2-0.5,0.3c3.4,9.1,10.1,35.4,0.6,43.4c-10.9,9.1-10.3,1.2-13.7,3.1c-3.5,2-4.9,3.2-7.6,2.7
	c-2.7-0.6-4.1-0.7-7.6-3.4c-3.5-2.8-4.7-9.6-4.4-13.2c0.3-3.4,5.3-21.3,23.1-33.4c0,0-0.1-0.1-0.1-0.1c-21.1,11.4-38.4,3.7-44.3-0.7
	c-0.5-0.3-0.2-1.1,0.3-1.1c0,0,0,0,0,0c0.5,0,0.8-0.7,0.4-1c-10.7-10.5-3.5-23.9,9-27c9.3-2.3,23.9,8,32.3,15.5
	c1.5,1.5,2.9,2.9,4.1,3.9c0.5,0.5,1.1,0.9,1.6,1.2c-4.6-10.6-13.8-39.9,6.3-49.9c4.4-2.1,9,2.9,12.5,2.3c3.5-0.6,9.1,1,10.5,8.3
	c1.4,7-8.6,30.5-21.5,42.3c-0.2,0.2-0.4,0.4-0.7,0.6c0.4,0.1,0.7,0.1,1.2,0.2c3.7,0.7,9.9,1.6,21.1-3c15.1-6.1,24.3,2.2,28.1,8.8
	C618,210.8,612,213.3,612.9,215.3z"/>
<path class="st2" d="M564.9,198.4c-0.4-0.1-0.8-0.2-1.2-0.2c0.2-0.2,0.4-0.4,0.7-0.6C564.6,197.9,564.7,198.2,564.9,198.4z"/>
<path class="st2" d="M555,193.4c-1.2-1-2.6-2.4-4.1-3.9C552.5,191,553.9,192.3,555,193.4z"/>
<path class="st3" d="M552.9,212.5c-0.1,0.3-0.2,0.5-0.3,0.8c-0.1,0-0.2,0-0.2-0.1C552.6,213,552.8,212.8,552.9,212.5z"/>
<path class="st4" d="M550.3,192.7c0.6,2,1.1,3.9-0.7,3.3c-1.8-0.6-3.8-1.1-3.8-1.1s3.6,1.8,3.4,2.8s-2.6-0.4-1.4,1.4
	c1.2,1.8,1.8,1.2-1.1,1.9c-3,0.7,3.1-0.3,2.6,1.2c-0.5,1.5-2,4.6-6.1,4.3c5.7-0.4,5.3,1.1,6.9-0.1s-0.8,2.8-0.8,2.8s2.1-0.3,2.7-1.3
	c0.6-1,0.8,2.9,0.4,3.3c-0.4,0.4,2.3-1.1,2.3-1.1s0.7,4.2-0.6,4.9c2.9-2.1,1.9-3.6,3.1-3.8c1.3-0.2-0.1,3.8,1.3,3.1
	c1.4-0.7-2-3.2,0-3.3c2-0.1,2.6,4.6,4.3,4c-0.5-0.4-2.1-3-0.7-4c1.3-1,3.1,0.1,3.9,0.9c0.9,0.8-1.1-1.9-1-2.9c0.2-1,1.6,1.4,2.4,1
	c0.8-0.4-1-1.1-0.3-1.5s2.1,0.7,3,0.2c0.9-0.5-3.1-1.5-2-3c1.2-1.6,5.3,1.4,6.3,0.5c1-0.9-2.8-0.4-4.3-2.3c-1.5-1.8,1.2-0.7,2.4-1.5
	c1.2-0.8,0.5-1.1-1.3-1s-2.7-1.9,2.6-4.3c5.2-2.3,8.7-4.7,6-3.8c-2.7,1-6.5,3.7-8.7,3.7c-2.2-0.1,7.6-6.4,8-7.4
	c0.4-1-8.6,6.7-9.9,6.6c-1.3-0.2,0.4-1.7,0.6-2.2c0.2-0.6-0.2,1.1-1.8,0.9c-1.6-0.2-1.2-6.4,0.7-8.1c1.9-1.7-0.4-0.3-1.2,0.3
	s-2,5-3.7,4.7s-0.2-0.7-0.6-1.2c-0.4-0.5,0.2,2.2-1.3,1.6c-1.5-0.6-0.7-2.6-0.7-2.6s-0.2,2-1.1,2.3s-1.5-2.6-1.6-2.9
	c-0.1-0.2,1,3.2,0,3.4c-1,0.2-1.8-0.5-2.6-1.8s1.3,1.8,0.5,2.2c-0.9,0.5-2.2-1.6-3.1-2s2.2,3.1,1.1,3.2c-1.1,0.1-2.6-1.2-3-1.5
	c-0.4-0.3,1.8,1.9,1,1.9C551.6,194.3,550.3,192.7,550.3,192.7z"/>
<path class="st5" d="M554,197.2c-1.7,1.6-3,1.7-2.7,2.7s-0.3,2.7,0.2,3.3c0.6,0.7,1,3.4,2,3.5c1,0,1.3,1.8,2.3,1.4
	c1-0.4,2.1,1.5,4.2,0.7c2.1-0.9,3.9-0.3,4.9-1.6c1.1-1.3,2.7-3.6,2.3-4.5c-0.3-0.9-0.4-1.3,0-2.2c0.4-0.8-0.6-3.5-1-3.6
	s-0.7-2.5-2.9-2.4s-3.5-1.1-4.3-0.8s-1.4,0.9-2.9,1.7C554.8,196.4,554,197.2,554,197.2z"/>
<path class="st6" d="M561.6,103.2c0.3,1,2.8,6.2,0.3,10.5c-1,1.7-1.2,3.8-0.3,5.6c1,2.1,1.2,4.3-0.7,6.3c-2.7,3.1-2,4.7-1.1,6.7
	c0.5,1.1-7.7,4.2-16.7,6.3c-4.3,1-5.7,6.5-2.4,9.4c5.3,4.7,10.3,9.3,10.9,10.6c1.3,2.8-0.3,5.6-3,6.6c-2.7,1.1-3.6,2.1-2,5.1
	c1.6,3,0.7,10.9-4.6,14c-5.3,3.1-6.3-3.2-9.9-0.6c-3.6,2.7-7.9,2.7-8.9,1.6c-0.9-1.2-4.4-3.5-8.8-5.1c-4.3-1.6-4.2-14.4-6.3-21.5
	c-0.8-2.8-0.3-6.2,1-9.5c0.1-0.3,0.2-0.5,0.3-0.8c-0.2,0.2-0.4,0.5-0.6,0.7c-5.7,7.3-13.6,17.1-17.5,20c-6.4,4.8-4,1-10.8-0.3
	c-6.8-1.3-2.5-5.5-8.5-5.6c-6.1-0.1-9-8.2-8.6-10.2c0.4-2.1-2-7.2,1.4-8.6c3.2-1.3,4.9-4.7,10.6-7.5c0.5-0.2,0.9-0.5,1.3-0.9l5-4.7
	c2.7-2.5,2.2-6.8-0.9-8.7c-6.1-3.8-10.8-7.2-11.1-8.1c-0.8-2.6,7.6-3,5.8-7.3c-1.8-4.4,0.2-6.8,1.6-8.9c1.4-2.1-0.6-3.5,1.7-4.6
	c6.5-2,2.1-0.2,11.2-2.6c8.9-2.4,14.5,6.7,17.2,12.8c0.1,0.3,0.3,0.5,0.4,0.7c0.9,1.4,4.4,6.6,7.3,11.3c0.9,1.4,2.5,2.4,4.2,2.5
	c0,0,0.1,0,0.1,0c2.5,0.2,4.8-1.3,5.6-3.7c4.1-11.9,11-25.4,22.5-23.7c0.2,0,0.4,0.1,0.7,0.1C561.3,94.5,561.2,102,561.6,103.2z"/>
<path class="st7" d="M569.1,151.4c0.9,2-1.6,9.5-6.6,8.6c-5-0.9-4.3,1.4-9.8,1.9c-12.7,2.5-26.6-11.3-30.2-16.4c0,0-1.6-2.5-3-5.2
	c-0.2,0.1-0.3,0.2-0.5,0.3c3.4,9.1,9.9,35.5,0.3,43.4c-11,9-10.3,1.1-13.8,3c-3.5,1.9-4.9,3.2-7.6,2.6c-2.7-0.6-4.1-0.7-7.6-3.5
	c-3.5-2.8-4.6-9.6-4.3-13.2c0.3-3.4,5.4-21.2,23.4-33.3c0,0-0.1-0.1-0.1-0.1c-21.2,11.3-38.4,3.4-44.3-1c-0.5-0.3-0.2-1.1,0.3-1.1
	c0,0,0,0,0,0c0.5,0,0.8-0.7,0.4-1c-10.7-10.6-3.3-23.9,9.2-27c9.3-2.3,23.8,8.2,32.2,15.7c1.5,1.5,2.9,2.9,4.1,3.9
	c0.5,0.5,1.1,0.9,1.5,1.2c-4.5-10.7-13.5-40,6.7-49.8c4.4-2,8.9,3,12.5,2.4c3.5-0.6,9.1,1.1,10.4,8.4c1.3,7-8.8,30.4-21.7,42.1
	c-0.2,0.2-0.4,0.4-0.7,0.6c0.4,0.1,0.7,0.2,1.1,0.2c3.7,0.7,9.9,1.6,21.2-2.8c15.2-6,24.2,2.4,28,9
	C574.2,146.9,568.2,149.4,569.1,151.4z"/>
<path class="st2" d="M521.4,134.3c-0.4-0.1-0.8-0.2-1.2-0.2c0.2-0.2,0.4-0.4,0.7-0.6C521.1,133.8,521.3,134.1,521.4,134.3z"/>
<path class="st2" d="M511.5,129.3c-1.2-1-2.6-2.4-4.1-3.9C509,126.9,510.4,128.2,511.5,129.3z"/>
<path class="st3" d="M509.5,148.4c-0.1,0.3-0.2,0.5-0.3,0.8c-0.1,0-0.2,0-0.2-0.1C509.1,148.9,509.3,148.6,509.5,148.4z"/>
<path class="st8" d="M506.9,128.6c0.6,2,1.1,3.9-0.7,3.3c-1.8-0.6-3.8-1.1-3.8-1.1s3.6,1.8,3.4,2.8s-2.6-0.4-1.4,1.4
	c1.2,1.8,1.8,1.2-1.1,1.9c-3,0.7,3.1-0.3,2.6,1.2c-0.5,1.5-2,4.6-6.1,4.3c5.7-0.4,5.3,1.1,6.9-0.1c1.6-1.2-0.8,2.8-0.8,2.8
	s2.1-0.3,2.7-1.3c0.6-1,0.8,2.9,0.4,3.3c-0.4,0.4,2.3-1.1,2.3-1.1s0.7,4.2-0.6,4.9c2.9-2.1,1.9-3.6,3.1-3.8s-0.1,3.8,1.3,3.1
	c1.4-0.7-2-3.2,0-3.3c2-0.1,2.6,4.6,4.3,4c-0.5-0.4-2.1-3-0.7-4c1.3-1,3.1,0.1,3.9,0.9c0.9,0.8-1.1-1.9-1-2.9c0.2-1,1.6,1.4,2.4,1
	c0.8-0.4-1-1.1-0.3-1.5c0.7-0.3,2.1,0.7,3,0.2c0.9-0.5-3.1-1.5-2-3c1.2-1.6,5.3,1.4,6.3,0.5c1-0.9-2.8-0.4-4.3-2.3
	c-1.5-1.8,1.2-0.7,2.4-1.5s0.5-1.1-1.3-1c-1.7,0-2.7-1.9,2.6-4.3c5.2-2.3,8.7-4.7,6-3.8s-6.5,3.7-8.7,3.7s7.6-6.4,8-7.4
	s-8.6,6.7-9.9,6.6c-1.3-0.2,0.4-1.7,0.6-2.2s-0.2,1.1-1.8,0.9c-1.6-0.2-1.2-6.4,0.7-8.1c1.8-1.7-0.4-0.3-1.2,0.3
	c-0.8,0.5-2,5-3.7,4.7c-1.7-0.2-0.2-0.7-0.6-1.2c-0.4-0.5,0.2,2.2-1.3,1.6c-1.5-0.6-0.7-2.6-0.7-2.6s-0.2,2-1.1,2.3
	c-0.9,0.2-1.5-2.6-1.6-2.9c-0.1-0.2,1,3.2,0,3.4c-1,0.2-1.8-0.5-2.6-1.8c-0.8-1.3,1.3,1.8,0.5,2.2s-2.2-1.6-3.1-2
	c-0.9-0.4,2.2,3.1,1.1,3.2c-1.1,0.1-2.6-1.2-3-1.5s1.8,1.9,1,1.9C508.2,130.2,506.9,128.6,506.9,128.6z"/>
<path class="st5" d="M510.5,133.1c-1.7,1.6-3,1.7-2.7,2.7c0.2,1-0.3,2.7,0.2,3.3c0.6,0.7,1,3.4,2,3.5s1.3,1.8,2.3,1.4
	c1-0.4,2.1,1.5,4.2,0.7s3.9-0.3,4.9-1.6c1.1-1.3,2.7-3.6,2.3-4.5c-0.3-0.9-0.4-1.3,0-2.2c0.4-0.8-0.6-3.5-1-3.6
	c-0.4-0.1-0.7-2.5-2.9-2.4c-2.2,0.2-3.5-1.1-4.3-0.8c-0.8,0.4-1.4,0.9-2.9,1.7S510.5,133.1,510.5,133.1z"/>
<path class="st9" d="M529,185.5c0.3,1,2.8,6.2,0.3,10.5c-1,1.7-1.2,3.8-0.3,5.6c1,2.1,1.2,4.3-0.7,6.3c-2.7,3.1-2,4.7-1.1,6.7
	c0.5,1.1-7.7,4.2-16.7,6.3c-4.3,1-5.7,6.5-2.4,9.4c5.3,4.7,10.3,9.3,10.9,10.6c1.3,2.8-0.3,5.6-3,6.6c-2.7,1.1-3.6,2.1-2,5.1
	c1.6,3,0.7,10.9-4.6,14c-5.3,3.1-6.3-3.2-9.9-0.6c-3.6,2.7-7.9,2.7-8.9,1.6c-0.9-1.2-4.4-3.5-8.8-5.1c-4.3-1.6-4.2-14.4-6.3-21.5
	c-0.8-2.8-0.3-6.2,1-9.5c0.1-0.3,0.2-0.5,0.3-0.8c-0.2,0.2-0.4,0.5-0.6,0.7c-5.7,7.3-13.6,17.1-17.5,20c-6.4,4.8-4,1-10.8-0.3
	c-6.8-1.3-2.5-5.5-8.5-5.6c-6.1-0.1-9-8.2-8.6-10.2c0.4-2.1-2-7.2,1.4-8.6c3.2-1.3,4.9-4.7,10.6-7.5c0.5-0.2,0.9-0.5,1.3-0.9l5-4.7
	c2.7-2.5,2.2-6.8-0.9-8.7c-6.1-3.8-10.8-7.2-11.1-8.1c-0.8-2.6,7.6-3,5.8-7.3c-1.8-4.4,0.2-6.8,1.6-8.9c1.4-2.1-0.6-3.5,1.7-4.6
	c6.5-2,2.1-0.2,11.2-2.6c8.9-2.4,14.5,6.7,17.2,12.8c0.1,0.3,0.3,0.5,0.4,0.7c0.9,1.4,4.4,6.6,7.3,11.3c0.9,1.4,2.5,2.4,4.2,2.5
	c0,0,0.1,0,0.1,0c2.5,0.2,4.8-1.3,5.6-3.7c4.1-11.9,11-25.4,22.5-23.7c0.2,0,0.4,0.1,0.7,0.1C528.6,176.8,528.6,184.3,529,185.5z"/>
<path class="st10" d="M536.8,233.4c0.9,2-1.5,9.5-6.5,8.7c-5-0.9-4.3,1.4-9.7,2c-12.7,2.5-26.7-11.1-30.3-16.2c0,0-1.6-2.5-3-5.1
	c-0.2,0.1-0.3,0.2-0.5,0.3c3.4,9.1,10.1,35.4,0.6,43.4c-10.9,9.1-10.3,1.2-13.7,3.1c-3.5,2-4.9,3.2-7.6,2.7
	c-2.7-0.6-4.1-0.7-7.6-3.4c-3.5-2.8-4.7-9.6-4.4-13.2c0.3-3.4,5.3-21.3,23.1-33.4c0,0-0.1-0.1-0.1-0.1c-21.1,11.4-38.4,3.7-44.3-0.7
	c-0.5-0.3-0.2-1.1,0.3-1.1c0,0,0,0,0,0c0.5,0,0.8-0.7,0.4-1c-10.7-10.5-3.5-23.9,9-27c9.3-2.3,23.9,8,32.3,15.5
	c1.5,1.5,2.9,2.9,4.1,3.9c0.5,0.5,1.1,0.9,1.6,1.2c-4.6-10.6-13.8-39.9,6.3-49.9c4.4-2.1,9,2.9,12.5,2.3c3.5-0.6,9.1,1,10.5,8.3
	c1.4,7-8.6,30.5-21.5,42.3c-0.2,0.2-0.4,0.4-0.7,0.6c0.4,0.1,0.7,0.1,1.2,0.2c3.7,0.7,9.9,1.6,21.1-3c15.1-6.1,24.3,2.2,28.1,8.8
	C541.9,228.9,535.9,231.4,536.8,233.4z"/>
<path class="st2" d="M488.8,216.6c-0.4-0.1-0.8-0.2-1.2-0.2c0.2-0.2,0.4-0.4,0.7-0.6C488.5,216,488.7,216.3,488.8,216.6z"/>
<path class="st2" d="M478.9,211.6c-1.2-1-2.6-2.4-4.1-3.9C476.4,209.1,477.8,210.5,478.9,211.6z"/>
<path class="st3" d="M476.9,230.7c-0.1,0.3-0.2,0.5-0.3,0.8c-0.1,0-0.2,0-0.2-0.1C476.5,231.1,476.7,230.9,476.9,230.7z"/>
<path class="st11" d="M474.2,210.8c0.6,2,1.1,3.9-0.7,3.3c-1.8-0.6-3.8-1.1-3.8-1.1s3.6,1.8,3.4,2.8s-2.6-0.4-1.4,1.4
	c1.2,1.8,1.8,1.2-1.1,1.9c-3,0.7,3.1-0.3,2.6,1.2c-0.5,1.5-2,4.6-6.1,4.3c5.7-0.4,5.3,1.1,6.9-0.1c1.6-1.2-0.8,2.8-0.8,2.8
	s2.1-0.3,2.7-1.3c0.6-1,0.8,2.9,0.4,3.3c-0.4,0.4,2.3-1.1,2.3-1.1s0.7,4.2-0.6,4.9c2.9-2.1,1.9-3.6,3.1-3.8c1.3-0.2-0.1,3.8,1.3,3.1
	s-2-3.2,0-3.3c2-0.1,2.6,4.6,4.3,4c-0.5-0.4-2.1-3-0.7-4c1.3-1,3.1,0.1,3.9,0.9c0.9,0.8-1.1-1.9-1-2.9c0.2-1,1.6,1.4,2.4,1
	c0.8-0.4-1-1.1-0.3-1.5c0.7-0.3,2.1,0.7,3,0.2s-3.1-1.5-2-3c1.2-1.6,5.3,1.4,6.3,0.5c1-0.9-2.8-0.4-4.3-2.3
	c-1.5-1.8,1.2-0.7,2.4-1.5c1.2-0.8,0.5-1.1-1.3-1s-2.7-1.9,2.6-4.3c5.2-2.3,8.7-4.7,6-3.8c-2.7,1-6.5,3.7-8.7,3.7
	c-2.2-0.1,7.6-6.4,8-7.4s-8.6,6.7-9.9,6.6c-1.3-0.2,0.4-1.7,0.6-2.2c0.2-0.6-0.2,1.1-1.8,0.9c-1.6-0.2-1.2-6.4,0.7-8.1
	c1.9-1.7-0.4-0.3-1.2,0.3c-0.8,0.5-2,5-3.7,4.7c-1.7-0.2-0.2-0.7-0.6-1.2c-0.4-0.5,0.2,2.2-1.3,1.6c-1.5-0.6-0.7-2.6-0.7-2.6
	s-0.2,2-1.1,2.3c-0.9,0.2-1.5-2.6-1.6-2.9c-0.1-0.2,1,3.2,0,3.4c-1,0.2-1.8-0.5-2.6-1.8c-0.8-1.3,1.3,1.8,0.5,2.2
	c-0.9,0.5-2.2-1.6-3.1-2c-0.9-0.4,2.2,3.1,1.1,3.2c-1.1,0.1-2.6-1.2-3-1.5c-0.4-0.3,1.8,1.9,1,1.9
	C475.5,212.5,474.2,210.8,474.2,210.8z"/>
<path class="st5" d="M477.9,215.4c-1.7,1.6-3,1.7-2.7,2.7c0.2,1-0.3,2.7,0.2,3.3c0.6,0.7,1,3.4,2,3.5s1.3,1.8,2.3,1.4
	s2.1,1.5,4.2,0.7s3.9-0.3,4.9-1.6c1.1-1.3,2.7-3.6,2.3-4.5c-0.3-0.9-0.4-1.3,0-2.2c0.4-0.8-0.6-3.5-1-3.6c-0.4-0.1-0.7-2.5-2.9-2.4
	c-2.2,0.2-3.5-1.1-4.3-0.8c-0.8,0.4-1.4,0.9-2.9,1.7C478.7,214.5,477.9,215.4,477.9,215.4z"/>
<path class="st6" d="M534.3,227.2c0.9,0.5,6.4,2.4,7.6,7.2c0.5,1.9,1.8,3.5,3.7,4.2c2.2,0.8,3.9,2.2,4,4.9c0.2,4.1,1.9,4.7,4,5.5
	c1.1,0.4-2.5,8.4-7.4,16.2c-2.4,3.8,0.5,8.6,5,8.4c7.1-0.4,13.9-0.7,15.1-0.2c2.9,1.1,3.7,4.2,2.5,6.8c-1.2,2.7-1.1,4,2.2,5
	c3.3,1,8.2,7.2,6.6,13.2c-1.6,6-6.8,2.2-7.4,6.6c-0.6,4.4-3.7,7.5-5.2,7.4c-1.5-0.2-5.6,0.7-9.8,2.6c-4.2,2-13.2-7.3-19.6-10.8
	c-2.5-1.4-4.6-4.2-6-7.4c-0.1-0.3-0.2-0.5-0.3-0.8c0,0.3,0.1,0.6,0.1,0.9c1.1,9.2,2.4,21.7,1.8,26.5c-1.1,7.9-2.2,3.6-7.9,7.4
	c-5.7,3.9-5.6-2.1-10,2.1c-4.4,4.2-12.2,0.6-13.3-1.2c-1.1-1.8-6.5-3.7-5.1-7c1.3-3.2,0.2-6.8,2.1-12.8c0.2-0.5,0.3-1,0.3-1.6
	l0.3-6.9c0.1-3.6-3.2-6.4-6.7-5.5c-7,1.6-12.7,2.6-13.6,2.1c-2.4-1.3,3.3-7.5-1.1-9.3c-4.4-1.8-4.7-5-5.2-7.5
	c-0.4-2.5-2.9-2-2.1-4.4c3.1-6,1.4-1.6,6-9.8c4.6-8,15-5.5,21.2-3.2c0.3,0.1,0.5,0.2,0.8,0.2c1.6,0.3,7.8,1.6,13.2,2.8
	c1.7,0.4,3.4-0.1,4.7-1.2c0,0,0,0,0.1-0.1c1.9-1.6,2.5-4.3,1.4-6.6c-5.5-11.4-10.1-25.7-0.8-32.6c0.2-0.1,0.4-0.3,0.6-0.4
	C527.8,221.3,533.1,226.6,534.3,227.2z"/>
<path class="st7" d="M573.7,255.6c2,0.7,5.6,7.8,1.5,10.7c-4.1,2.9-2,4.1-5.5,8.3c-7.2,10.8-26.7,11.1-32.9,10c0,0-2.9-0.6-5.8-1.5
	c0,0.2-0.1,0.4-0.1,0.6c8.9,4,32.2,17.9,31.1,30.3c-1.3,14.2-6.4,8.1-7.5,11.9c-1.1,3.8-1.2,5.7-3.5,7.2c-2.3,1.5-3.4,2.4-7.8,2.9
	c-4.4,0.5-10.1-3.5-12.4-6.2c-2.2-2.6-11.3-18.8-7.3-40c-0.1,0-0.1,0-0.2,0c-6.8,23-24.5,29.7-31.8,30.8c-0.6,0.1-0.9-0.6-0.5-1
	c0,0,0,0,0,0c0.4-0.4,0.1-1-0.4-1c-15,0.2-19.3-14.4-12.7-25.5c4.9-8.2,22.5-11.2,33.8-11.9c2.1,0,4.1,0,5.7-0.1
	c0.7-0.1,1.4-0.1,1.9-0.3c-10.8-4.3-38-18.4-30.8-39.7c1.7-4.6,8.4-4.3,10.5-7.2c2.1-2.9,7.1-5.7,13.3-1.5
	c5.9,4,15.5,27.6,14.7,45.1c0,0.3,0,0.6-0.1,0.9c0.3-0.2,0.6-0.4,1-0.7c3.1-2.1,8.1-5.9,12.8-17c6.4-15,18.7-15.6,26.1-13.7
	C574.1,248.8,571.6,254.8,573.7,255.6z"/>
<path class="st2" d="M527.8,277.6c-0.3,0.2-0.7,0.5-1,0.7c0-0.3,0-0.6,0.1-0.9C527.2,277.5,527.5,277.6,527.8,277.6z"/>
<path class="st2" d="M517.3,281.1c-1.6,0.1-3.5,0.1-5.7,0.1C513.8,281.1,515.7,281.1,517.3,281.1z"/>
<path class="st3" d="M529.3,296c0.1,0.3,0.2,0.5,0.3,0.8c-0.1,0-0.1,0.1-0.2,0.1C529.4,296.6,529.4,296.3,529.3,296z"/>
<path class="st8" d="M513.5,283.9c1.9,1,3.5,1.9,1.8,2.8c-1.7,0.9-3.5,1.9-3.5,1.9s3.8-1.3,4.4-0.4c0.5,0.9-2.1,1.5-0.1,2
	c2.2,0.4,2.1-0.4,0.5,2.2c-1.6,2.6,2-2.4,2.7-1s1.9,4.7-1.2,7.4c3.7-4.3,4.6-3,4.8-4.9c0.3-1.9,1.4,2.6,1.4,2.6s1.3-1.7,1-2.8
	c-0.3-1.1,2.6,1.5,2.6,2c0,0.5,0.9-2.4,0.9-2.4s3.4,2.4,3.1,3.9c0.6-3.5-1.3-3.9-0.5-4.9s2.6,2.8,3.1,1.3c0.5-1.5-3.7-0.8-2.3-2.3
	c1.4-1.5,5.1,1.4,5.9-0.2c-0.7,0.1-3.6-0.7-3.3-2.3c0.3-1.6,2.2-2.1,3.4-2.1c1.2-0.1-2.2-0.5-2.7-1.4c-0.6-0.8,2.1-0.2,2.4-1
	c0.3-0.8-1.5-0.1-1.3-0.8c0.3-0.7,2-1,2.2-2s-3.3,1.2-3.5-0.8s4.7-2.8,4.8-4.1c0.1-1.3-2.3,1.7-4.6,1.5c-2.4-0.2,0.3-1.4,0.6-2.8
	c0.3-1.4-0.4-1.1-1.6,0.2c-1.2,1.2-3.3,0.5-1.2-4.8c2.1-5.3,2.8-9.5,1.6-6.9c-1.2,2.6-2,7.2-3.6,8.7c-1.6,1.5,0.8-9.9,0.4-10.9
	c-0.4-1-1.3,10.8-2.4,11.6c-1,0.8-0.9-1.5-1.1-2s0.6,0.9-0.7,1.9c-1.3,1-5.4-3.7-5.3-6.2c0.1-2.5-0.5,0.1-0.7,1
	c-0.2,0.9,2.1,4.9,0.7,6s-0.6-0.3-1.3-0.4c-0.7-0.1,1.7,1.4,0.2,2c-1.5,0.7-2.3-1.3-2.3-1.3s1.3,1.6,0.8,2.4c-0.5,0.8-3-0.8-3.2-0.9
	c-0.2-0.1,3,1.6,2.5,2.4c-0.5,0.8-1.6,0.9-3.1,0.6c-1.5-0.3,2.2,0.3,1.9,1.2c-0.3,0.9-2.7,0.4-3.6,0.8c-0.9,0.4,3.8,0.6,3.1,1.5
	c-0.7,0.8-2.7,1-3.2,1.1c-0.5,0.1,2.6,0.1,2,0.6C515.6,284.1,513.5,283.9,513.5,283.9z"/>
<path class="st12" d="M519.3,284.5c-0.1,2.4-0.9,3.3,0,3.9c0.8,0.5,1.6,2.1,2.5,2.2c0.9,0.1,3.2,1.7,3.9,1c0.7-0.7,2.2,0.3,2.6-0.6
	c0.4-1,2.5-0.4,3.4-2.5c0.9-2.1,2.5-3,2.4-4.6c-0.1-1.7-0.7-4.4-1.6-4.8c-0.9-0.4-1.2-0.7-1.5-1.5c-0.3-0.8-2.9-2-3.3-1.8
	s-2.3-1.3-3.7,0.4s-3.2,1.6-3.6,2.5c-0.3,0.9-0.4,1.6-0.8,3.2C519.2,283.3,519.3,284.5,519.3,284.5z"/>
<path class="st13" d="M441.2,228.8c0.9,0.5,6.4,2.4,7.6,7.2c0.5,1.9,1.8,3.5,3.7,4.2c2.2,0.8,3.9,2.2,4,4.9c0.2,4.1,1.9,4.7,4,5.5
	c1.1,0.4-2.5,8.4-7.4,16.2c-2.4,3.8,0.5,8.6,5,8.4c7.1-0.4,13.9-0.7,15.1-0.2c2.9,1.1,3.7,4.2,2.5,6.8c-1.2,2.7-1.1,4,2.2,5
	c3.3,1,8.2,7.2,6.6,13.2c-1.6,6-6.8,2.2-7.4,6.6c-0.6,4.4-3.7,7.5-5.2,7.4c-1.5-0.2-5.6,0.7-9.8,2.6c-4.2,2-13.2-7.3-19.6-10.8
	c-2.5-1.4-4.6-4.2-6-7.4c-0.1-0.3-0.2-0.5-0.3-0.8c0,0.3,0.1,0.6,0.1,0.9c1.1,9.2,2.4,21.7,1.8,26.5c-1.1,7.9-2.2,3.6-7.9,7.4
	c-5.7,3.9-5.6-2.1-10,2.1c-4.4,4.2-12.2,0.6-13.3-1.2c-1.1-1.8-6.5-3.7-5.1-7c1.3-3.2,0.2-6.8,2.1-12.8c0.2-0.5,0.3-1,0.3-1.6
	l0.3-6.9c0.1-3.6-3.2-6.4-6.7-5.5c-7,1.6-12.7,2.6-13.6,2.1c-2.4-1.3,3.3-7.5-1.1-9.3c-4.4-1.8-4.7-5-5.2-7.5
	c-0.4-2.5-2.9-2-2.1-4.4c3.1-6,1.4-1.6,6-9.8c4.6-8,15-5.5,21.2-3.2c0.3,0.1,0.5,0.2,0.8,0.2c1.6,0.3,7.8,1.6,13.2,2.8
	c1.7,0.4,3.4-0.1,4.7-1.2c0,0,0,0,0.1-0.1c1.9-1.6,2.5-4.3,1.4-6.6c-5.5-11.4-10.1-25.7-0.8-32.6c0.2-0.1,0.4-0.3,0.6-0.4
	C434.8,222.9,440.1,228.2,441.2,228.8z"/>
<path class="st14" d="M480.7,257.1c2,0.7,5.6,7.8,1.5,10.7c-4.1,2.9-2,4.1-5.5,8.3c-7.2,10.8-26.7,11.1-32.9,10c0,0-2.9-0.6-5.8-1.5
	c0,0.2-0.1,0.4-0.1,0.6c8.9,4,32.2,17.9,31.1,30.3c-1.3,14.2-6.4,8.1-7.5,11.9c-1.1,3.8-1.2,5.7-3.5,7.2c-2.3,1.5-3.4,2.4-7.8,2.9
	c-4.4,0.5-10.1-3.5-12.4-6.2c-2.2-2.6-11.3-18.8-7.3-40c-0.1,0-0.1,0-0.2,0c-6.8,23-24.5,29.7-31.8,30.8c-0.6,0.1-0.9-0.6-0.5-1
	c0,0,0,0,0,0c0.4-0.4,0.1-1-0.4-1c-15,0.2-19.3-14.4-12.7-25.5c4.9-8.2,22.5-11.2,33.8-11.9c2.1,0,4.1,0,5.7-0.1
	c0.7-0.1,1.4-0.1,1.9-0.3c-10.8-4.3-38-18.4-30.8-39.7c1.7-4.6,8.4-4.3,10.5-7.2c2.1-2.9,7.1-5.7,13.3-1.5
	c5.9,4,15.5,27.6,14.7,45.1c0,0.3,0,0.6-0.1,0.9c0.3-0.2,0.6-0.4,1-0.7c3.1-2.1,8.1-5.9,12.8-17c6.4-15,18.7-15.6,26.1-13.7
	C481.1,250.3,478.6,256.4,480.7,257.1z"/>
<path class="st3" d="M436.3,297.6c0.1,0.3,0.2,0.5,0.3,0.8c-0.1,0-0.1,0.1-0.2,0.1C436.4,298.2,436.3,297.9,436.3,297.6z"/>
<path class="st15" d="M420.4,285.4c1.9,1,3.5,1.9,1.8,2.8s-3.5,1.9-3.5,1.9s3.8-1.3,4.4-0.4c0.5,0.9-2.1,1.5-0.1,2
	c2.2,0.4,2.1-0.4,0.5,2.2c-1.6,2.6,2-2.4,2.7-1c0.7,1.4,1.9,4.7-1.2,7.4c3.7-4.3,4.6-3,4.8-4.9c0.3-1.9,1.4,2.6,1.4,2.6
	s1.3-1.7,1-2.8c-0.3-1.1,2.6,1.5,2.6,2c0,0.5,0.9-2.4,0.9-2.4s3.4,2.4,3.1,3.9c0.6-3.5-1.3-3.9-0.5-4.9c0.8-1,2.6,2.8,3.1,1.3
	c0.5-1.5-3.7-0.8-2.3-2.3c1.4-1.5,5.1,1.4,5.9-0.2c-0.7,0.1-3.6-0.7-3.3-2.3c0.3-1.6,2.2-2.1,3.4-2.1c1.2-0.1-2.2-0.5-2.7-1.4
	c-0.6-0.8,2.1-0.2,2.4-1c0.3-0.8-1.5-0.1-1.3-0.8c0.3-0.7,2-1,2.2-2c0.3-1-3.3,1.2-3.5-0.8s4.7-2.8,4.8-4.1c0.1-1.3-2.3,1.7-4.6,1.5
	c-2.4-0.2,0.3-1.4,0.6-2.8c0.3-1.4-0.4-1.1-1.6,0.2c-1.2,1.2-3.3,0.5-1.2-4.8c2.1-5.3,2.8-9.5,1.6-6.9s-2,7.2-3.6,8.7
	c-1.6,1.5,0.8-9.9,0.4-10.9c-0.4-1-1.3,10.8-2.4,11.6c-1,0.8-0.9-1.5-1.1-2c-0.2-0.6,0.6,0.9-0.7,1.9c-1.3,1-5.4-3.7-5.3-6.2
	c0.1-2.5-0.5,0.1-0.7,1s2.1,4.9,0.7,6c-1.4,1-0.6-0.3-1.3-0.4c-0.7-0.1,1.7,1.4,0.2,2c-1.5,0.7-2.3-1.3-2.3-1.3s1.3,1.6,0.8,2.4
	c-0.5,0.8-3-0.8-3.2-0.9c-0.2-0.1,3,1.6,2.5,2.4c-0.5,0.8-1.6,0.9-3.1,0.6c-1.5-0.3,2.2,0.3,1.9,1.2c-0.3,0.9-2.7,0.4-3.6,0.8
	s3.8,0.6,3.1,1.5c-0.7,0.8-2.7,1-3.2,1.1s2.6,0.1,2,0.6S420.4,285.4,420.4,285.4z"/>
<path class="st5" d="M426.2,286c-0.1,2.4-0.9,3.3,0,3.9c0.8,0.5,1.6,2.1,2.5,2.2c0.9,0.1,3.2,1.7,3.9,1c0.7-0.7,2.2,0.3,2.6-0.6
	c0.4-1,2.5-0.4,3.4-2.5c0.9-2.1,2.5-3,2.4-4.6c-0.1-1.7-0.7-4.4-1.6-4.8c-0.9-0.4-1.2-0.7-1.5-1.5c-0.3-0.8-2.9-2-3.3-1.8
	c-0.3,0.2-2.3-1.3-3.7,0.4c-1.4,1.7-3.2,1.6-3.6,2.5c-0.3,0.9-0.4,1.6-0.8,3.2C426.2,284.9,426.2,286,426.2,286z"/>
<path class="st13" d="M563.9,18.4c0.9,0.5,6.3,2.5,7.5,7.3c0.5,1.9,1.8,3.5,3.7,4.2c2.2,0.8,3.8,2.2,4,5c0.2,4.1,1.9,4.8,3.9,5.5
	c1.1,0.4-2.5,8.4-7.5,16.1c-2.4,3.7,0.5,8.6,4.9,8.4c7.1-0.4,13.9-0.6,15.1-0.1c2.9,1.1,3.7,4.2,2.5,6.8c-1.2,2.7-1.1,4,2.2,5.1
	c3.3,1,8.1,7.3,6.5,13.2c-1.6,6-6.8,2.1-7.4,6.5c-0.7,4.4-3.7,7.5-5.2,7.3c-1.5-0.2-5.6,0.6-9.8,2.5c-4.2,1.9-13.1-7.4-19.5-10.9
	c-2.5-1.4-4.5-4.2-5.9-7.4c-0.1-0.3-0.2-0.5-0.3-0.8c0,0.3,0.1,0.6,0.1,0.9c1.1,9.2,2.3,21.7,1.6,26.5c-1.2,7.9-2.2,3.5-7.9,7.4
	c-5.8,3.8-5.6-2.2-10,2c-4.4,4.2-12.2,0.5-13.3-1.3c-1.1-1.8-6.5-3.8-5.1-7.1c1.4-3.2,0.2-6.8,2.2-12.8c0.2-0.5,0.3-1,0.3-1.6
	l0.3-6.9c0.2-3.6-3.2-6.4-6.7-5.6c-7,1.6-12.7,2.5-13.6,2c-2.4-1.3,3.3-7.5-1.1-9.3c-4.4-1.8-4.7-5-5.1-7.5c-0.4-2.5-2.9-2-2-4.4
	c3.2-6,1.4-1.6,6.1-9.7c4.6-7.9,15-5.4,21.2-3c0.3,0.1,0.5,0.2,0.8,0.2c1.6,0.3,7.8,1.7,13.1,2.9c1.7,0.4,3.4,0,4.7-1.1
	c0,0,0,0,0.1-0.1c1.9-1.6,2.5-4.3,1.4-6.6c-5.5-11.4-10-25.8-0.6-32.6c0.2-0.1,0.4-0.3,0.6-0.4C557.5,12.4,562.8,17.8,563.9,18.4z"
	/>
<path class="st14" d="M603.1,47c2,0.8,5.6,7.9,1.4,10.8c-4.2,2.9-2.1,4.1-5.6,8.2c-7.2,10.7-26.8,10.9-33,9.8c0,0-2.9-0.6-5.8-1.5
	c0,0.2-0.1,0.4-0.1,0.6c8.8,4.1,32.1,18.1,30.9,30.5c-1.4,14.2-6.5,8-7.6,11.9c-1.1,3.8-1.2,5.7-3.5,7.2c-2.3,1.5-3.4,2.4-7.8,2.9
	c-4.4,0.5-10.1-3.5-12.3-6.3c-2.2-2.7-11.2-18.9-7-40c-0.1,0-0.1,0-0.2,0c-7,23-24.7,29.6-32,30.6c-0.6,0.1-0.9-0.6-0.5-1
	c0,0,0,0,0,0c0.4-0.4,0.1-1-0.4-1c-15,0.1-19.2-14.6-12.6-25.6c5-8.2,22.6-11.1,33.8-11.6c2.1,0,4.1,0,5.7-0.1
	c0.7-0.1,1.4-0.1,1.9-0.3c-10.8-4.3-37.8-18.7-30.5-40c1.7-4.6,8.4-4.2,10.5-7.1c2.1-2.9,7.2-5.7,13.3-1.4
	c5.9,4,15.3,27.7,14.4,45.2c0,0.3,0,0.6-0.1,0.9c0.3-0.2,0.6-0.4,1-0.7c3.1-2.1,8.1-5.8,13-17c6.5-15,18.8-15.4,26.2-13.5
	C603.6,40.2,601.1,46.3,603.1,47z"/>
<path class="st2" d="M557.1,68.7c-0.3,0.2-0.7,0.4-1,0.7c0-0.3,0-0.6,0.1-0.9C556.5,68.6,556.8,68.6,557.1,68.7z"/>
<path class="st2" d="M546.5,72.1c-1.6,0.1-3.5,0.1-5.7,0.1C543,72.1,545,72.1,546.5,72.1z"/>
<path class="st3" d="M558.5,87.1c0.1,0.3,0.2,0.5,0.3,0.8c-0.1,0-0.1,0.1-0.2,0.1C558.6,87.8,558.5,87.4,558.5,87.1z"/>
<path class="st15" d="M542.7,74.9c1.9,1,3.5,2,1.8,2.8c-1.7,0.9-3.5,1.9-3.5,1.9s3.9-1.2,4.4-0.4s-2.1,1.5-0.1,2
	c2.2,0.5,2.1-0.4,0.5,2.2c-1.6,2.6,2-2.4,2.7-1s1.9,4.7-1.3,7.3c3.7-4.3,4.6-3,4.9-4.9c0.3-1.9,1.4,2.6,1.4,2.6s1.3-1.7,1-2.8
	s2.6,1.5,2.6,2.1c0,0.5,0.9-2.4,0.9-2.4s3.4,2.5,3,3.9c0.6-3.5-1.2-3.9-0.4-4.9c0.8-1,2.6,2.8,3.1,1.3c0.5-1.5-3.7-0.9-2.3-2.3
	s5.1,1.4,5.9-0.1c-0.7,0.1-3.6-0.7-3.3-2.3s2.3-2.1,3.4-2.1c1.2-0.1-2.2-0.6-2.7-1.4s2.1-0.1,2.4-1c0.3-0.8-1.5-0.1-1.3-0.8
	s2-1,2.2-2s-3.3,1.2-3.5-0.8c-0.3-2,4.7-2.7,4.9-4.1c0.1-1.3-2.3,1.7-4.7,1.4c-2.4-0.2,0.3-1.4,0.6-2.8c0.3-1.4-0.4-1.1-1.6,0.2
	c-1.2,1.2-3.3,0.5-1.2-4.9s2.9-9.5,1.6-6.9c-1.3,2.6-2,7.2-3.6,8.7c-1.6,1.5,0.9-9.9,0.5-10.9c-0.4-1-1.4,10.8-2.4,11.6
	c-1,0.8-0.9-1.5-1.1-2c-0.2-0.6,0.6,0.9-0.7,1.9s-5.4-3.7-5.2-6.2s-0.5,0.1-0.7,1c-0.2,0.9,2.1,5,0.7,6c-1.4,1-0.6-0.3-1.3-0.4
	s1.7,1.4,0.2,2c-1.5,0.6-2.3-1.4-2.3-1.4s1.3,1.6,0.8,2.4c-0.5,0.8-2.9-0.8-3.2-0.9c-0.2-0.1,3,1.6,2.4,2.4
	c-0.5,0.8-1.6,0.9-3.1,0.6s2.2,0.3,1.9,1.3c-0.3,0.9-2.7,0.4-3.6,0.7s3.8,0.6,3.1,1.5c-0.7,0.8-2.7,1-3.2,1.1s2.6,0.2,2,0.6
	S542.7,74.9,542.7,74.9z"/>
<path class="st12" d="M548.5,75.5c-0.1,2.4-0.9,3.3-0.1,3.9c0.8,0.6,1.6,2.1,2.5,2.2c0.9,0.1,3.1,1.7,3.9,1s2.2,0.3,2.7-0.6
	c0.4-1,2.5-0.4,3.4-2.4c0.9-2.1,2.5-2.9,2.4-4.6c-0.1-1.7-0.6-4.4-1.5-4.8c-0.9-0.4-1.2-0.7-1.5-1.5c-0.3-0.8-2.9-2-3.2-1.8
	s-2.3-1.3-3.7,0.3s-3.3,1.6-3.6,2.5c-0.3,0.9-0.4,1.6-0.9,3.2C548.4,74.4,548.5,75.5,548.5,75.5z"/>
<path class="st0" d="M457.4,183.1c-0.8,0.6-4.9,4.7-9.7,3.8c-1.9-0.4-4,0.2-5.3,1.6c-1.6,1.7-3.6,2.6-6.2,1.5
	c-3.8-1.5-5.1-0.3-6.7,1.3c-0.8,0.8-6.6-5.8-11.6-13.5c-2.4-3.7-8-3.2-9.7,1c-2.6,6.6-5.2,12.9-6.2,13.8c-2.2,2.1-5.3,1.6-7.3-0.6
	c-1.9-2.2-3.2-2.7-5.5-0.1c-2.3,2.6-10,4.4-14.7,0.4c-4.7-4,0.9-7-2.8-9.5c-3.7-2.4-5.2-6.5-4.5-7.8c0.8-1.3,1.8-5.4,1.8-10
	c0-4.6,12.2-8.8,18.1-13.2c2.3-1.7,5.7-2.4,9.2-2.3c0.3,0,0.6,0,0.8,0c-0.3-0.1-0.6-0.2-0.9-0.3c-8.8-2.9-20.7-7-24.7-9.6
	c-6.7-4.4-2.3-3.5-3.4-10.3c-1.1-6.8,4.3-4.2,2.4-9.9c-1.9-5.8,4.6-11.3,6.7-11.6c2.1-0.3,6.1-4.3,8.5-1.6c2.3,2.6,6.1,3,10.7,7.4
	c0.4,0.4,0.8,0.7,1.3,0.9l6.1,3.2c3.2,1.7,7.1-0.2,7.9-3.8c1.5-7,3.1-12.6,3.9-13.2c2.2-1.7,5.4,6.2,8.9,2.9
	c3.5-3.2,6.5-2.1,8.9-1.5c2.4,0.6,3.1-1.8,4.9,0c4.1,5.4,0.9,1.9,6.3,9.6c5.3,7.5-1.4,15.9-6.1,20.6c-0.2,0.2-0.4,0.4-0.6,0.6
	c-1,1.3-4.7,6.4-8.1,10.7c-1,1.4-1.4,3.1-0.9,4.8c0,0,0,0.1,0,0.1c0.7,2.4,2.9,4.1,5.4,4c12.6-0.2,27.6,1.7,29.9,13.1
	c0,0.2,0.1,0.4,0.1,0.7C465.5,179.8,458.4,182.3,457.4,183.1z"/>
<path class="st1" d="M415,206.8c-1.5,1.5-9.5,1.8-10.4-3.2c-0.9-5-2.8-3.6-5.2-8.5c-6.7-11.1,1.3-28.9,4.9-34c0,0,1.8-2.4,3.8-4.6
	c-0.2-0.1-0.3-0.2-0.5-0.3c-7.4,6.3-29.9,21.6-40.6,15.3c-12.3-7.2-4.6-9.3-7.6-11.9c-3-2.6-4.7-3.5-5.1-6.2
	c-0.4-2.7-0.8-4.1,0.6-8.3c1.4-4.2,7.4-7.7,10.9-8.6c3.3-0.9,21.8-2.3,39.3,10.4c0,0,0-0.1,0.1-0.1c-17.9-16-16.5-34.8-14.4-41.9
	c0.2-0.5,0.9-0.6,1.1-0.1c0,0,0,0,0,0c0.2,0.5,0.9,0.5,1.1,0c6.2-13.7,21.3-11.4,28.5-0.7c5.4,8,0.6,25.2-3.6,35.6
	c-0.9,1.9-1.7,3.7-2.3,5.2c-0.2,0.7-0.4,1.3-0.6,1.9c8.4-8,32.8-26.6,49.1-11c3.5,3.5,0.3,9.4,2.1,12.5c1.8,3.1,2.1,8.9-4.3,12.7
	c-6.1,3.7-31.6,2.3-47.1-5.8c-0.3-0.1-0.5-0.3-0.8-0.4c0.1,0.4,0.1,0.7,0.2,1.2c0.6,3.7,1.9,9.8,10,18.9
	c10.9,12.2,6.1,23.6,1.3,29.4C421,210,416.5,205.2,415,206.8z"/>
<path class="st2" d="M414.5,155.9c-0.1-0.4-0.1-0.8-0.2-1.2c0.3,0.1,0.5,0.3,0.8,0.4C414.9,155.4,414.7,155.6,414.5,155.9z"/>
<path class="st2" d="M415.8,144.9c0.6-1.5,1.4-3.3,2.3-5.2C417.3,141.7,416.5,143.5,415.8,144.9z"/>
<path class="st3" d="M397.2,149.4c-0.3,0-0.6,0-0.8,0c0-0.1,0-0.2,0-0.2C396.6,149.3,396.9,149.3,397.2,149.4z"/>
<path class="st4" d="M414.9,140.2c-1.7,1.3-3.3,2.4-3.3,0.4c-0.1-1.9-0.2-4-0.2-4s-0.5,4-1.5,4.1c-1,0.1-0.5-2.6-1.8-0.9
	c-1.3,1.8-0.5,2.1-2.2-0.4s1.3,2.9-0.2,2.9s-5-0.3-6.1-4.2c2.3,5.2,0.8,5.4,2.4,6.5c1.7,1.1-2.9,0.2-2.9,0.2s1,1.9,2.1,2.1
	c1.1,0.2-2.5,1.7-2.9,1.5c-0.5-0.3,1.8,1.8,1.8,1.8s-3.7,2.1-4.8,1.1c2.9,2.1,4,0.5,4.6,1.7c0.6,1.2-3.6,1.2-2.5,2.3
	c1.1,1.1,2.3-3,3.1-1.1s-3.4,4.1-2.3,5.4c0.2-0.7,2.1-3,3.5-2c1.4,0.9,0.9,2.9,0.5,4c-0.4,1.1,1.4-1.7,2.4-1.9c1-0.2-0.8,2-0.2,2.6
	c0.6,0.6,0.7-1.4,1.3-0.8c0.5,0.5,0,2.2,0.8,2.9c0.8,0.7,0.3-3.4,2.2-2.9c1.9,0.6,0.5,5.4,1.7,6.1c1.2,0.7-0.5-2.8,0.7-4.8
	c1.2-2,1.1,0.9,2.3,1.7c1.2,0.8,1.2,0.1,0.5-1.5s0.9-3.2,4.9,1c4,4.1,7.4,6.6,5.6,4.3c-1.9-2.2-5.7-4.9-6.4-6.9s8.7,5,9.7,5
	s-9.2-5.8-9.5-7.1c-0.3-1.3,1.7-0.2,2.3-0.1c0.6,0-1.1,0.1-1.4-1.4c-0.4-1.6,5.6-3.3,7.9-2.1c2.2,1.2,0.1-0.5-0.7-1
	c-0.8-0.5-5.4-0.2-5.7-1.9c-0.3-1.7,0.6-0.4,0.9-1c0.3-0.6-2,0.9-2-0.6s2.2-1.5,2.2-1.5s-2,0.5-2.5-0.3c-0.5-0.7,2-2.3,2.1-2.5
	c0.2-0.2-2.7,2-3.2,1.2c-0.5-0.8-0.1-1.8,0.8-3.1s-1.2,1.9-1.9,1.2c-0.7-0.6,0.8-2.6,0.8-3.6c0-1-2.2,3.2-2.6,2.2s0.2-2.9,0.3-3.4
	c0.1-0.5-1.2,2.3-1.4,1.6C413.8,142,414.9,140.2,414.9,140.2z"/>
<path class="st5" d="M411.9,145.2c-2.1-1.1-2.6-2.2-3.5-1.7s-2.6,0.6-3,1.3s-2.9,2.1-2.6,3.1c0.3,1-1.2,1.9-0.5,2.7
	s-0.7,2.4,0.8,4.1c1.5,1.7,1.6,3.5,3.2,4.1c1.6,0.6,4.3,1.3,5,0.6s1.1-0.8,2-0.7s3.1-1.8,3-2.2c0-0.4,2.2-1.5,1.2-3.5
	s-0.1-3.6-0.7-4.3s-1.3-1.1-2.6-2.1C413,145.7,411.9,145.2,411.9,145.2z"/>
<path class="st16" d="M502.9,120.4c-0.8,0.6-4.9,4.7-9.7,3.8c-1.9-0.4-4,0.2-5.3,1.6c-1.6,1.7-3.6,2.6-6.2,1.5
	c-3.8-1.5-5.1-0.3-6.7,1.3c-0.8,0.8-6.6-5.8-11.6-13.5c-2.4-3.7-8-3.2-9.7,1c-2.6,6.6-5.2,12.9-6.2,13.8c-2.2,2.1-5.3,1.6-7.3-0.6
	c-1.9-2.2-3.2-2.7-5.5-0.1c-2.3,2.6-10,4.4-14.7,0.4c-4.7-4,0.9-7-2.8-9.5c-3.7-2.4-5.2-6.5-4.5-7.8c0.8-1.3,1.8-5.4,1.8-10
	c0-4.6,12.2-8.8,18.1-13.2c2.3-1.7,5.7-2.4,9.2-2.3c0.3,0,0.6,0,0.8,0c-0.3-0.1-0.6-0.2-0.9-0.3c-8.8-2.9-20.7-7-24.7-9.6
	c-6.7-4.4-2.3-3.5-3.4-10.3c-1.1-6.8,4.3-4.2,2.4-9.9c-1.9-5.8,4.6-11.3,6.7-11.6c2.1-0.3,6.1-4.3,8.5-1.6c2.3,2.6,6.1,3,10.7,7.4
	c0.4,0.4,0.8,0.7,1.3,0.9l6.1,3.2c3.2,1.7,7.1-0.2,7.9-3.8c1.5-7,3.1-12.6,3.9-13.2c2.2-1.7,5.4,6.2,8.9,2.9
	c3.5-3.2,6.5-2.1,8.9-1.5c2.4,0.6,3.1-1.8,4.9,0c4.1,5.4,0.9,1.9,6.3,9.6c5.3,7.5-1.4,15.9-6.1,20.6c-0.2,0.2-0.4,0.4-0.6,0.6
	c-1,1.3-4.7,6.4-8.1,10.7c-1,1.4-1.4,3.1-0.9,4.8c0,0,0,0.1,0,0.1c0.7,2.4,2.9,4.1,5.4,4c12.6-0.2,27.6,1.7,29.9,13.1
	c0,0.2,0.1,0.4,0.1,0.7C511,117.1,503.9,119.6,502.9,120.4z"/>
<path class="st17" d="M460.5,144.1c-1.5,1.5-9.5,1.8-10.4-3.2c-0.9-5-2.8-3.6-5.2-8.5c-6.7-11.1,1.3-28.9,4.9-34
	c0,0,1.8-2.4,3.8-4.6c-0.2-0.1-0.3-0.2-0.5-0.3c-7.4,6.3-29.9,21.6-40.6,15.3c-12.3-7.2-4.6-9.3-7.6-11.9c-3-2.6-4.7-3.5-5.1-6.2
	c-0.4-2.7-0.8-4.1,0.6-8.3c1.4-4.2,7.4-7.7,10.9-8.6c3.3-0.9,21.8-2.3,39.3,10.4c0,0,0-0.1,0.1-0.1c-17.9-16-16.5-34.8-14.4-41.9
	c0.2-0.5,0.9-0.6,1.1-0.1c0,0,0,0,0,0c0.2,0.5,0.9,0.5,1.1,0c6.2-13.7,21.3-11.4,28.5-0.7c5.4,8,0.6,25.2-3.6,35.6
	c-0.9,1.9-1.7,3.7-2.3,5.2c-0.2,0.7-0.4,1.3-0.6,1.9c8.4-8,32.8-26.6,49.1-11c3.5,3.5,0.3,9.4,2.1,12.5c1.8,3.1,2.1,8.9-4.3,12.7
	c-6.1,3.7-31.6,2.3-47.1-5.8c-0.3-0.1-0.5-0.3-0.8-0.4c0.1,0.4,0.1,0.7,0.2,1.2c0.6,3.7,1.9,9.8,10,18.9
	c10.9,12.2,6.1,23.6,1.3,29.4C466.5,147.3,462,142.5,460.5,144.1z"/>
<path class="st2" d="M460,93.2c-0.1-0.4-0.1-0.8-0.2-1.2c0.3,0.1,0.5,0.3,0.8,0.4C460.4,92.7,460.2,93,460,93.2z"/>
<path class="st2" d="M437.2,40.1c-0.1,0.1-0.1,0.2-0.2,0.4C437,40.3,437.1,40.2,437.2,40.1z"/>
<path class="st2" d="M461.3,82.2c0.6-1.5,1.4-3.3,2.3-5.2C462.8,79,462,80.8,461.3,82.2z"/>
<path class="st3" d="M442.7,86.8c-0.3,0-0.6,0-0.8,0c0-0.1,0-0.2,0-0.2C442.1,86.6,442.4,86.7,442.7,86.8z"/>
<path class="st18" d="M460.4,77.5c-1.7,1.3-3.3,2.4-3.3,0.4c-0.1-1.9-0.2-4-0.2-4s-0.5,4-1.5,4.1s-0.5-2.6-1.8-0.9
	c-1.3,1.8-0.5,2.1-2.2-0.4c-1.7-2.6,1.3,2.9-0.2,2.9s-5-0.3-6.1-4.2c2.3,5.2,0.8,5.4,2.4,6.5c1.7,1.1-2.9,0.2-2.9,0.2s1,1.9,2.1,2.1
	s-2.5,1.7-2.9,1.5c-0.5-0.3,1.8,1.8,1.8,1.8s-3.7,2.1-4.8,1.1c2.9,2.1,4,0.5,4.6,1.7c0.6,1.2-3.6,1.2-2.5,2.3c1.1,1.1,2.3-3,3.1-1.1
	c0.8,1.9-3.4,4.1-2.3,5.4c0.2-0.7,2.1-3,3.5-2c1.4,0.9,0.9,2.9,0.5,4s1.4-1.7,2.4-1.9c1-0.2-0.8,2-0.2,2.6c0.6,0.6,0.7-1.4,1.3-0.8
	c0.5,0.5,0,2.2,0.8,2.9c0.8,0.7,0.3-3.4,2.2-2.9c1.9,0.6,0.5,5.4,1.7,6.1s-0.5-2.8,0.7-4.8c1.2-2,1.1,0.9,2.3,1.7s1.2,0.1,0.5-1.5
	c-0.6-1.6,0.9-3.2,4.9,1c4,4.1,7.4,6.6,5.6,4.3c-1.9-2.2-5.7-4.9-6.4-6.9s8.7,5,9.7,5c1.1,0-9.2-5.8-9.5-7.1
	c-0.3-1.3,1.7-0.2,2.3-0.1s-1.1,0.1-1.4-1.4c-0.4-1.6,5.6-3.3,7.9-2.1c2.2,1.2,0.1-0.5-0.7-1c-0.8-0.5-5.4-0.2-5.7-1.9
	c-0.3-1.7,0.6-0.4,0.9-1c0.3-0.6-2,0.9-2-0.6s2.2-1.5,2.2-1.5s-2,0.5-2.5-0.3s2-2.3,2.1-2.5c0.2-0.2-2.7,2-3.2,1.2
	c-0.5-0.8-0.1-1.8,0.8-3.1c0.9-1.2-1.2,1.9-1.9,1.2c-0.7-0.6,0.8-2.6,0.8-3.6c0-1-2.2,3.2-2.6,2.2s0.2-2.9,0.3-3.4
	c0.1-0.5-1.2,2.3-1.4,1.6S460.4,77.5,460.4,77.5z"/>
<path class="st5" d="M457.4,82.5c-2.1-1.1-2.6-2.2-3.5-1.7s-2.6,0.6-3,1.3s-2.9,2.1-2.6,3.1c0.3,1-1.2,1.9-0.5,2.7s-0.7,2.4,0.8,4.1
	c1.5,1.7,1.6,3.5,3.2,4.1s4.3,1.3,5,0.6s1.1-0.8,2-0.7s3.1-1.8,3-2.2c0-0.4,2.2-1.5,1.2-3.5c-0.9-2-0.1-3.6-0.7-4.3
	s-1.3-1.1-2.6-2.1C458.5,83,457.4,82.5,457.4,82.5z"/>
<path class="st9" d="M414.4,117.7c-0.8,0.6-4.9,4.7-9.7,3.8c-1.9-0.4-4,0.2-5.3,1.6c-1.6,1.7-3.6,2.6-6.2,1.5
	c-3.8-1.5-5.1-0.3-6.7,1.3c-0.8,0.8-6.6-5.8-11.6-13.5c-2.4-3.7-8-3.2-9.7,1c-2.6,6.6-5.2,12.9-6.2,13.8c-2.2,2.1-5.3,1.6-7.3-0.6
	c-1.9-2.2-3.2-2.7-5.5-0.1c-2.3,2.6-10,4.4-14.7,0.4c-4.7-4,0.9-7-2.8-9.5c-3.7-2.4-5.2-6.5-4.5-7.8c0.8-1.3,1.8-5.4,1.8-10
	c0-4.6,12.2-8.8,18.1-13.2c2.3-1.7,5.7-2.4,9.2-2.3c0.3,0,0.6,0,0.8,0c-0.3-0.1-0.6-0.2-0.9-0.3c-8.8-2.9-20.7-7-24.7-9.6
	c-6.7-4.4-2.3-3.5-3.4-10.3c-1.1-6.8,4.3-4.2,2.4-9.9c-1.9-5.8,4.6-11.3,6.7-11.6c2.1-0.3,6.1-4.3,8.5-1.6c2.3,2.6,6.1,3,10.7,7.4
	c0.4,0.4,0.8,0.7,1.3,0.9l6.1,3.2c3.2,1.7,7.1-0.2,7.9-3.8c1.5-7,3.1-12.6,3.9-13.2c2.2-1.7,5.4,6.2,8.9,2.9
	c3.5-3.2,6.5-2.1,8.9-1.5c2.4,0.6,3.1-1.8,4.9,0c4.1,5.4,0.9,1.9,6.3,9.6c5.3,7.5-1.4,15.9-6.1,20.6c-0.2,0.2-0.4,0.4-0.6,0.6
	c-1,1.3-4.7,6.4-8.1,10.7c-1,1.4-1.4,3.1-0.9,4.8c0,0,0,0.1,0,0.1c0.7,2.4,2.9,4.1,5.4,4c12.6-0.2,27.6,1.7,29.9,13.1
	c0,0.2,0.1,0.4,0.1,0.7C422.5,114.4,415.5,117,414.4,117.7z"/>
<path class="st10" d="M372,141.4c-1.5,1.5-9.5,1.8-10.4-3.2c-0.9-5-2.8-3.6-5.2-8.5c-6.7-11.1,1.3-28.9,4.9-34c0,0,1.8-2.4,3.8-4.6
	c-0.2-0.1-0.3-0.2-0.5-0.3c-7.4,6.3-29.9,21.6-40.6,15.3c-12.3-7.2-4.6-9.3-7.6-11.9c-3-2.6-4.7-3.5-5.1-6.2
	c-0.4-2.7-0.8-4.1,0.6-8.3c1.4-4.2,7.4-7.7,10.9-8.6c3.3-0.9,21.8-2.3,39.3,10.4c0,0,0-0.1,0.1-0.1c-17.9-16-16.5-34.8-14.4-41.9
	c0.2-0.5,0.9-0.6,1.1-0.1c0,0,0,0,0,0c0.2,0.5,0.9,0.5,1.1,0c6.2-13.7,21.3-11.4,28.5-0.7c5.4,8,0.6,25.2-3.6,35.6
	c-0.9,1.9-1.7,3.7-2.3,5.2c-0.2,0.7-0.4,1.3-0.6,1.9c8.4-8,32.8-26.6,49.1-11c3.5,3.5,0.3,9.4,2.1,12.5c1.8,3.1,2.1,8.9-4.3,12.7
	c-6.1,3.7-31.6,2.3-47.1-5.8c-0.3-0.1-0.5-0.3-0.8-0.4c0.1,0.4,0.1,0.7,0.2,1.2c0.6,3.7,1.9,9.8,10,18.9
	c10.9,12.2,6.1,23.6,1.3,29.4C378,144.7,373.6,139.9,372,141.4z"/>
<path class="st2" d="M371.5,90.5c-0.1-0.4-0.1-0.8-0.2-1.2c0.3,0.1,0.5,0.3,0.8,0.4C371.9,90,371.7,90.3,371.5,90.5z"/>
<path class="st2" d="M372.9,79.5c0.6-1.5,1.4-3.3,2.3-5.2C374.3,76.3,373.6,78.1,372.9,79.5z"/>
<path class="st3" d="M354.2,84.1c-0.3,0-0.6,0-0.8,0c0-0.1,0-0.2,0-0.2C353.7,83.9,353.9,84,354.2,84.1z"/>
<path class="st11" d="M372,74.9c-1.7,1.3-3.3,2.4-3.3,0.4c-0.1-1.9-0.2-4-0.2-4s-0.5,4-1.5,4.1s-0.5-2.6-1.8-0.9
	c-1.3,1.8-0.5,2.1-2.2-0.4c-1.7-2.6,1.3,2.9-0.2,2.9s-5-0.3-6.1-4.2c2.3,5.2,0.8,5.4,2.4,6.5c1.7,1.1-2.9,0.2-2.9,0.2s1,1.9,2.1,2.1
	s-2.5,1.7-2.9,1.5c-0.5-0.3,1.8,1.8,1.8,1.8s-3.7,2.1-4.8,1.1c2.9,2.1,4,0.5,4.6,1.7c0.6,1.2-3.6,1.2-2.5,2.3s2.3-3,3.1-1.1
	c0.8,1.9-3.4,4.1-2.3,5.4c0.2-0.7,2.1-3,3.5-2s0.9,2.9,0.5,4s1.4-1.7,2.4-1.9s-0.8,2-0.2,2.6c0.6,0.6,0.7-1.4,1.3-0.8
	c0.5,0.5,0,2.2,0.8,2.9c0.8,0.7,0.3-3.4,2.2-2.9c1.9,0.6,0.5,5.4,1.7,6.1s-0.5-2.8,0.7-4.8c1.2-2,1.1,0.9,2.3,1.7s1.2,0.1,0.5-1.5
	c-0.6-1.6,0.9-3.2,4.9,1c4,4.1,7.4,6.6,5.6,4.3s-5.7-4.9-6.4-6.9c-0.7-2.1,8.7,5,9.7,5c1.1,0-9.2-5.8-9.5-7.1
	c-0.3-1.3,1.7-0.2,2.3-0.1c0.6,0-1.1,0.1-1.4-1.4s5.6-3.3,7.9-2.1c2.2,1.2,0.1-0.5-0.7-1c-0.8-0.5-5.4-0.2-5.7-1.9
	c-0.3-1.7,0.6-0.4,0.9-1c0.3-0.6-2,0.9-2-0.6s2.2-1.5,2.2-1.5s-2,0.5-2.5-0.3s2-2.3,2.1-2.5c0.2-0.2-2.7,2-3.2,1.2
	c-0.5-0.8-0.1-1.8,0.8-3.1c0.9-1.2-1.2,1.9-1.9,1.2s0.8-2.6,0.8-3.6c0-1-2.2,3.2-2.6,2.2s0.2-2.9,0.3-3.4c0.1-0.5-1.2,2.3-1.4,1.6
	S372,74.9,372,74.9z"/>
<path class="st5" d="M369,79.9c-2.1-1.1-2.6-2.2-3.5-1.7s-2.6,0.6-3,1.3s-2.9,2.1-2.6,3.1s-1.2,1.9-0.5,2.7s-0.7,2.4,0.8,4.1
	c1.5,1.7,1.6,3.5,3.2,4.1s4.3,1.3,5,0.6s1.1-0.8,2-0.7s3.1-1.8,3-2.2c0-0.4,2.2-1.5,1.2-3.5c-0.9-2-0.1-3.6-0.7-4.3
	s-1.3-1.1-2.6-2.1C370,80.3,369,79.9,369,79.9z"/>
<path class="st6" d="M377,136.9c-0.1,1.1-0.1,6.8-4.2,9.6c-1.6,1.1-2.7,2.9-2.7,4.9c0,2.3-0.7,4.4-3.3,5.5c-3.8,1.6-3.8,3.4-3.8,5.6
	c0,1.2-8.8,0.6-17.7-1.4c-4.3-0.9-7.9,3.4-6.2,7.5c2.8,6.5,5.4,12.8,5.4,14.2c-0.1,3.1-2.7,4.9-5.6,4.7c-2.9-0.2-4.2,0.4-4,3.8
	c0.2,3.4-4,10.1-10.1,10.7c-6.2,0.5-4.4-5.6-8.7-4.7c-4.3,0.9-8.3-0.9-8.7-2.4c-0.4-1.5-2.5-5.1-5.8-8.3c-3.3-3.3,2.4-14.8,3.4-22.1
	c0.4-2.8,2.4-5.7,4.9-8.2c0.2-0.2,0.4-0.4,0.6-0.6c-0.3,0.1-0.5,0.3-0.8,0.4c-8.2,4.2-19.6,9.7-24.3,10.7c-7.8,1.6-4.1-0.8-9.7-4.9
	c-5.6-4.1,0.1-6-5.3-8.7c-5.4-2.7-4.7-11.3-3.4-12.9c1.3-1.7,1.3-7.4,4.9-7.2c3.5,0.2,6.5-2.2,12.8-2.3c0.5,0,1.1-0.1,1.6-0.3
	l6.6-2.1c3.4-1.1,4.9-5.2,2.9-8.2c-3.9-6-6.7-11.1-6.6-12.1c0.4-2.7,8.2,0.5,8.3-4.2c0.2-4.7,3.1-6.1,5.3-7.4
	c2.2-1.3,0.9-3.4,3.4-3.4c6.7,0.9,2,0.7,11.2,2.3c9,1.6,10.3,12.2,10.2,18.9c0,0.3,0,0.6,0.1,0.9c0.2,1.7,1.1,7.8,1.9,13.3
	c0.2,1.7,1.2,3.2,2.7,4c0,0,0,0,0.1,0c2.2,1.2,4.9,0.8,6.7-1c8.8-9.1,20.7-18.3,30.4-11.9c0.2,0.1,0.4,0.3,0.5,0.4
	C380.4,128.8,377.2,135.6,377,136.9z"/>
<path class="st7" d="M363.8,183.6c0,2.2-5.4,8-9.6,5.1c-4.2-2.9-4.5-0.5-9.7-2.4c-12.6-3.1-19.5-21.4-20.6-27.5c0,0-0.4-2.9-0.6-5.9
	c-0.2,0-0.4,0.1-0.6,0.1c-0.7,9.7-5.9,36.4-17.9,39.5c-13.8,3.6-9.8-3.3-13.8-3c-4,0.3-5.8,0.8-8-0.8c-2.2-1.6-3.4-2.4-5.4-6.3
	c-2-4-0.2-10.7,1.6-13.8c1.7-3,13.8-17,35.1-20.5c0-0.1,0-0.1,0-0.1c-24,1.4-36.3-12.9-39.8-19.4c-0.3-0.5,0.2-1.1,0.8-0.8
	c0,0,0,0,0,0c0.5,0.2,1-0.3,0.8-0.8c-5.3-14,7-23.1,19.6-20.7c9.4,1.8,18.2,17.4,22.7,27.7c0.7,2,1.4,3.8,2.1,5.3
	c0.3,0.6,0.6,1.2,0.9,1.7c0.3-11.6,4.4-42,26.9-42.5c4.9,0,6.9,6.4,10.3,7.4c3.4,0.9,7.8,4.7,6,12c-1.7,6.9-20.7,24-37.4,29.2
	c-0.3,0.1-0.6,0.2-0.8,0.2c0.3,0.2,0.6,0.4,0.9,0.7c3.1,2.2,8.3,5.6,20.4,6.3c16.3,0.9,21,12.3,21.7,19.9
	C370.3,181.7,363.8,181.4,363.8,183.6z"/>
<path class="st2" d="M327.4,148c-0.3-0.2-0.7-0.5-0.9-0.7c0.3-0.1,0.6-0.2,0.8-0.2C327.4,147.4,327.4,147.7,327.4,148z"/>
<path class="st2" d="M320.6,139.3c-0.7-1.5-1.3-3.3-2.1-5.3C319.4,136,320.1,137.8,320.6,139.3z"/>
<path class="st3" d="M310.6,155.7c-0.2,0.2-0.4,0.4-0.6,0.6c-0.1,0-0.1-0.1-0.2-0.2C310.1,156,310.4,155.8,310.6,155.7z"/>
<path class="st8" d="M316.6,136.6c-0.3,2.1-0.6,4-2,2.6c-1.4-1.3-3-2.6-3-2.6s2.5,3.2,1.9,4c-0.6,0.8-2.2-1.5-1.9,0.6
	c0.3,2.2,1.1,1.9-1.8,1.2c-3-0.6,2.9,1.1,1.8,2.2c-1.1,1.1-3.7,3.4-7.3,1.4c5.3,2,4.4,3.3,6.3,2.8c1.9-0.4-1.9,2.2-1.9,2.2
	s2,0.6,3,0s-0.5,3-1,3.1s2.6,0,2.6,0s-1.1,4.1-2.6,4.2c3.5-0.6,3.2-2.5,4.5-2.1c1.2,0.4-1.7,3.4-0.2,3.4s-0.5-3.7,1.4-3
	c1.9,0.8,0.4,5.3,2.2,5.5c-0.3-0.6-0.6-3.6,1-3.9c1.6-0.3,2.7,1.4,3.2,2.5c0.5,1.1-0.2-2.2,0.4-3.1c0.6-0.8,0.9,2,1.7,2
	s-0.4-1.5,0.3-1.5c0.8,0,1.6,1.5,2.6,1.4c1-0.1-2.2-2.7-0.5-3.6c1.7-0.9,4.2,3.5,5.5,3.2c1.3-0.3-2.3-1.6-2.9-3.9s1.4-0.2,2.8-0.4
	c1.4-0.2,0.9-0.8-0.7-1.5c-1.6-0.7-1.6-2.9,4.1-2.8c5.7,0.1,9.9-0.6,7-0.9c-2.9-0.3-7.5,0.6-9.4-0.4c-2-1,9.6-2.6,10.4-3.4
	c0.7-0.7-10.7,2.4-11.7,1.7c-1.1-0.7,1.1-1.3,1.5-1.7c0.4-0.4-0.7,0.9-2,0c-1.4-0.9,1.6-6.3,4-7.1c2.4-0.8-0.3-0.4-1.2-0.3
	c-0.9,0.2-3.9,3.7-5.3,2.7c-1.4-0.9,0.1-0.7-0.1-1.4c-0.2-0.7-0.7,2.1-1.8,0.9s0.5-2.6,0.5-2.6s-1.1,1.7-2,1.6
	c-0.9-0.2-0.3-3-0.3-3.3c0-0.3-0.5,3.3-1.4,3.1c-1-0.2-1.4-1.2-1.6-2.7s0.5,2.2-0.5,2.2c-1,0-1.3-2.4-1.9-3.1
	c-0.7-0.7,0.7,3.8-0.3,3.4c-1-0.4-1.9-2.2-2.1-2.6s0.8,2.5,0.1,2.1C317.1,138.7,316.6,136.6,316.6,136.6z"/>
<path class="st12" d="M318.1,142.3c-2.2,0.7-3.4,0.3-3.6,1.3c-0.2,1-1.4,2.3-1.2,3.1c0.2,0.8-0.5,3.6,0.4,4c0.9,0.5,0.5,2.2,1.5,2.3
	c1.1,0.1,1.2,2.3,3.5,2.4c2.3,0.1,3.6,1.3,5.1,0.7c1.5-0.7,3.9-2.1,4-3.1c0.1-1,0.2-1.4,0.9-2c0.7-0.6,0.9-3.4,0.6-3.7
	c-0.3-0.2,0.5-2.6-1.6-3.3s-2.6-2.5-3.6-2.5c-0.9,0-1.7,0.2-3.3,0.3C319.1,141.8,318.1,142.3,318.1,142.3z"/>
<path class="st13" d="M343.9,49.9c-0.1,1.1-0.1,6.8-4.2,9.6c-1.6,1.1-2.7,2.9-2.7,4.9c0,2.3-0.7,4.4-3.3,5.5
	c-3.8,1.6-3.8,3.4-3.8,5.6c0,1.2-8.8,0.6-17.7-1.4c-4.3-0.9-7.9,3.4-6.2,7.5c2.8,6.5,5.4,12.8,5.4,14.2c-0.1,3.1-2.7,4.9-5.6,4.7
	c-2.9-0.2-4.2,0.4-4,3.8c0.2,3.4-4,10.1-10.1,10.7c-6.2,0.5-4.4-5.6-8.7-4.7c-4.3,0.9-8.3-0.9-8.7-2.4c-0.4-1.5-2.5-5.1-5.8-8.3
	c-3.3-3.3,2.4-14.8,3.4-22.1c0.4-2.8,2.4-5.7,4.9-8.2c0.2-0.2,0.4-0.4,0.6-0.6c-0.3,0.1-0.5,0.3-0.8,0.4
	c-8.2,4.2-19.6,9.7-24.3,10.7c-7.8,1.6-4.1-0.8-9.7-4.9c-5.6-4.1,0.1-6-5.3-8.7c-5.4-2.7-4.7-11.3-3.4-12.9c1.3-1.7,1.3-7.4,4.9-7.2
	c3.5,0.2,6.5-2.2,12.8-2.3c0.5,0,1.1-0.1,1.6-0.3l6.6-2.1c3.4-1.1,4.9-5.2,2.9-8.2c-3.9-6-6.7-11.1-6.6-12.1
	c0.4-2.7,8.2,0.5,8.3-4.2c0.2-4.7,3.1-6.1,5.3-7.4c2.2-1.3,0.9-3.4,3.4-3.4c6.7,0.9,2,0.7,11.2,2.3c9,1.6,10.3,12.2,10.2,18.9
	c0,0.3,0,0.6,0.1,0.9c0.2,1.7,1.1,7.8,1.9,13.3c0.2,1.7,1.2,3.2,2.7,4c0,0,0,0,0.1,0c2.2,1.2,4.9,0.8,6.7-1
	c8.8-9.1,20.7-18.3,30.4-11.9c0.2,0.1,0.4,0.3,0.5,0.4C347.3,41.9,344,48.7,343.9,49.9z"/>
<path class="st14" d="M330.6,96.7c0,2.2-5.4,8-9.6,5.1c-4.2-2.9-4.5-0.5-9.7-2.4c-12.6-3.1-19.5-21.4-20.6-27.5c0,0-0.4-2.9-0.6-5.9
	c-0.2,0-0.4,0.1-0.6,0.1c-0.7,9.7-5.9,36.4-17.9,39.5c-13.8,3.6-9.8-3.3-13.8-3c-4,0.3-5.8,0.8-8-0.8c-2.2-1.6-3.4-2.4-5.4-6.3
	c-2-4-0.2-10.7,1.6-13.8c1.7-3,13.8-17,35.1-20.5c0-0.1,0-0.1,0-0.1c-24,1.4-36.3-12.9-39.8-19.4c-0.3-0.5,0.2-1.1,0.8-0.8
	c0,0,0,0,0,0c0.5,0.2,1-0.3,0.8-0.8c-5.3-14,7-23.1,19.6-20.7c9.4,1.8,18.2,17.4,22.7,27.7c0.7,2,1.4,3.8,2.1,5.3
	c0.3,0.6,0.6,1.2,0.9,1.7c0.3-11.6,4.4-42,26.9-42.5c4.9,0,6.9,6.4,10.3,7.4c3.4,0.9,7.8,4.7,6,12c-1.7,6.9-20.7,24-37.4,29.2
	c-0.3,0.1-0.6,0.2-0.8,0.2c0.3,0.2,0.6,0.4,0.9,0.7c3.1,2.2,8.3,5.6,20.4,6.3c16.3,0.9,21,12.3,21.7,19.9
	C337.2,94.7,330.6,94.5,330.6,96.7z"/>
<path class="st2" d="M294.3,61c-0.3-0.2-0.7-0.5-0.9-0.7c0.3-0.1,0.6-0.2,0.8-0.2C294.2,60.4,294.3,60.7,294.3,61z"/>
<path class="st2" d="M240.6,39.6c0,0.1,0.1,0.2,0.1,0.4C240.7,39.9,240.6,39.8,240.6,39.6z"/>
<path class="st2" d="M287.5,52.3c-0.7-1.5-1.3-3.3-2.1-5.3C286.3,49,287,50.8,287.5,52.3z"/>
<path class="st3" d="M277.5,68.7c-0.2,0.2-0.4,0.4-0.6,0.6c-0.1,0-0.1-0.1-0.2-0.2C277,69,277.2,68.9,277.5,68.7z"/>
<path class="st15" d="M283.5,49.7c-0.3,2.1-0.6,4-2,2.6c-1.4-1.3-3-2.6-3-2.6s2.5,3.2,1.9,4c-0.6,0.8-2.2-1.5-1.9,0.6
	c0.3,2.2,1.1,1.9-1.8,1.2c-3-0.6,2.9,1.1,1.8,2.2s-3.7,3.4-7.3,1.4c5.3,2,4.4,3.3,6.3,2.8c1.9-0.4-1.9,2.2-1.9,2.2s2,0.6,3,0
	c0.9-0.6-0.5,3-1,3.1c-0.5,0.2,2.6,0,2.6,0s-1.1,4.1-2.6,4.2c3.5-0.6,3.2-2.5,4.5-2.1s-1.7,3.4-0.2,3.4c1.6,0-0.5-3.7,1.4-3
	c1.9,0.8,0.4,5.3,2.2,5.5c-0.3-0.6-0.6-3.6,1-3.9c1.6-0.3,2.7,1.4,3.2,2.5c0.5,1.1-0.2-2.2,0.4-3.1c0.6-0.8,0.9,2,1.7,2
	c0.9,0-0.4-1.5,0.3-1.5c0.8,0,1.6,1.5,2.6,1.4c1-0.1-2.2-2.7-0.5-3.6s4.2,3.5,5.5,3.2c1.3-0.3-2.3-1.6-2.9-3.9s1.4-0.2,2.8-0.4
	s0.9-0.8-0.7-1.5c-1.6-0.7-1.6-2.9,4.1-2.8s9.9-0.6,7-0.9s-7.5,0.6-9.4-0.4c-2-1,9.6-2.6,10.4-3.4c0.7-0.7-10.7,2.4-11.7,1.7
	c-1.1-0.7,1.1-1.3,1.5-1.7c0.4-0.4-0.7,0.9-2,0c-1.4-0.9,1.6-6.3,4-7.1c2.4-0.8-0.3-0.4-1.2-0.3c-0.9,0.2-3.9,3.7-5.3,2.7
	s0.1-0.7-0.1-1.4s-0.7,2.1-1.8,0.9s0.5-2.6,0.5-2.6s-1.1,1.7-2,1.6s-0.3-3-0.3-3.3s-0.5,3.3-1.4,3.1c-1-0.2-1.4-1.2-1.6-2.7
	c-0.2-1.5,0.5,2.2-0.5,2.2c-1,0-1.3-2.4-1.9-3.1s0.7,3.8-0.3,3.4c-1-0.4-1.9-2.2-2.1-2.6c-0.3-0.4,0.8,2.5,0.1,2.1
	C284,51.7,283.5,49.7,283.5,49.7z"/>
<path class="st5" d="M285,55.3c-2.2,0.7-3.4,0.3-3.6,1.3c-0.2,1-1.4,2.3-1.2,3.1s-0.5,3.6,0.4,4c0.9,0.5,0.5,2.2,1.5,2.3
	c1.1,0.1,1.2,2.3,3.5,2.4c2.3,0.1,3.6,1.3,5.1,0.7c1.5-0.7,3.9-2.1,4-3.1c0.1-1,0.2-1.4,0.9-2s0.9-3.4,0.6-3.7
	c-0.3-0.2,0.5-2.6-1.6-3.3c-2-0.8-2.6-2.5-3.6-2.5c-0.9,0-1.7,0.2-3.3,0.3C286,54.9,285,55.3,285,55.3z"/>
<path class="st16" d="M279.4,110.6c-0.1,1.1-0.1,6.8-4.2,9.6c-1.6,1.1-2.7,2.9-2.7,4.9c0,2.3-0.7,4.4-3.3,5.5
	c-3.8,1.6-3.8,3.4-3.8,5.6c0,1.2-8.8,0.6-17.7-1.4c-4.3-0.9-7.9,3.4-6.2,7.5c2.8,6.5,5.4,12.8,5.4,14.2c-0.1,3.1-2.7,4.9-5.6,4.7
	c-2.9-0.2-4.2,0.4-4,3.8c0.2,3.4-4,10.1-10.1,10.7c-6.2,0.5-4.4-5.6-8.7-4.7c-4.3,0.9-8.3-0.9-8.7-2.4c-0.4-1.5-2.5-5.1-5.8-8.3
	c-3.3-3.3,2.4-14.8,3.4-22.1c0.4-2.8,2.4-5.7,4.9-8.2c0.2-0.2,0.4-0.4,0.6-0.6c-0.3,0.1-0.5,0.3-0.8,0.4
	c-8.2,4.2-19.6,9.7-24.3,10.7c-7.8,1.6-4.1-0.8-9.7-4.9c-5.6-4.1,0.1-6-5.3-8.7c-5.4-2.7-4.7-11.3-3.4-12.9c1.3-1.7,1.3-7.4,4.9-7.2
	c3.5,0.2,6.5-2.2,12.8-2.3c0.5,0,1.1-0.1,1.6-0.3l6.6-2.1c3.4-1.1,4.9-5.2,2.9-8.2c-3.9-6-6.7-11.1-6.6-12.1
	c0.4-2.7,8.2,0.5,8.3-4.2c0.2-4.7,3.1-6.1,5.3-7.4c2.2-1.3,0.9-3.4,3.4-3.4c6.7,0.9,2,0.7,11.2,2.3c9,1.6,10.3,12.2,10.2,18.9
	c0,0.3,0,0.6,0.1,0.9c0.2,1.7,1.1,7.8,1.9,13.3c0.2,1.7,1.2,3.2,2.7,4c0,0,0,0,0.1,0c2.2,1.2,4.9,0.8,6.7-1
	c8.8-9.1,20.7-18.3,30.4-11.9c0.2,0.1,0.4,0.3,0.5,0.4C282.8,102.5,279.6,109.3,279.4,110.6z"/>
<path class="st17" d="M266.2,157.3c0,2.2-5.4,8-9.6,5.1c-4.2-2.9-4.5-0.5-9.7-2.4c-12.6-3.1-19.5-21.4-20.6-27.5
	c0,0-0.4-2.9-0.6-5.9c-0.2,0-0.4,0.1-0.6,0.1c-0.7,9.7-5.9,36.4-17.9,39.5c-13.8,3.6-9.8-3.3-13.8-3c-4,0.3-5.8,0.8-8-0.8
	c-2.2-1.6-3.4-2.4-5.4-6.3c-2-4-0.2-10.7,1.6-13.8c1.7-3,13.8-17,35.1-20.5c0-0.1,0-0.1,0-0.1c-24,1.4-36.3-12.9-39.8-19.4
	c-0.3-0.5,0.2-1.1,0.8-0.8c0,0,0,0,0,0c0.5,0.2,1-0.3,0.8-0.8c-5.3-14,7-23.1,19.6-20.7c9.4,1.8,18.2,17.4,22.7,27.7
	c0.7,2,1.4,3.8,2.1,5.3c0.3,0.6,0.6,1.2,0.9,1.7c0.3-11.6,4.4-42,26.9-42.5c4.9,0,6.9,6.4,10.3,7.4c3.4,0.9,7.8,4.7,6,12
	c-1.7,6.9-20.7,24-37.4,29.2c-0.3,0.1-0.6,0.2-0.8,0.2c0.3,0.2,0.6,0.4,0.9,0.7c3.1,2.2,8.3,5.6,20.4,6.3
	c16.3,0.9,21,12.3,21.7,19.9C272.7,155.4,266.2,155.1,266.2,157.3z"/>
<path class="st2" d="M229.9,121.7c-0.3-0.2-0.7-0.5-0.9-0.7c0.3-0.1,0.6-0.2,0.8-0.2C229.8,121.1,229.9,121.4,229.9,121.7z"/>
<path class="st2" d="M176.2,100.3c0,0.1,0.1,0.2,0.1,0.4C176.3,100.5,176.2,100.4,176.2,100.3z"/>
<path class="st2" d="M223,113c-0.7-1.5-1.3-3.3-2.1-5.3C221.8,109.7,222.5,111.5,223,113z"/>
<path class="st3" d="M213.1,129.4c-0.2,0.2-0.4,0.4-0.6,0.6c-0.1,0-0.1-0.1-0.2-0.2C212.5,129.7,212.8,129.5,213.1,129.4z"/>
<path class="st18" d="M219.1,110.3c-0.3,2.1-0.6,4-2,2.6c-1.4-1.3-3-2.6-3-2.6s2.5,3.2,1.9,4c-0.6,0.8-2.2-1.5-1.9,0.6
	c0.3,2.2,1.1,1.9-1.8,1.2c-3-0.6,2.9,1.1,1.8,2.2c-1.1,1.1-3.7,3.4-7.3,1.4c5.3,2,4.4,3.3,6.3,2.8c1.9-0.4-1.9,2.2-1.9,2.2
	s2,0.6,3,0c0.9-0.6-0.5,3-1,3.1c-0.5,0.2,2.6,0,2.6,0s-1.1,4.1-2.6,4.2c3.5-0.6,3.2-2.5,4.5-2.1c1.2,0.4-1.7,3.4-0.2,3.4
	c1.6,0-0.5-3.7,1.4-3s0.4,5.3,2.2,5.5c-0.3-0.6-0.6-3.6,1-3.9s2.7,1.4,3.2,2.5c0.5,1.1-0.2-2.2,0.4-3.1c0.6-0.8,0.9,2,1.7,2
	c0.9,0-0.4-1.5,0.3-1.5s1.6,1.5,2.6,1.4c1-0.1-2.2-2.7-0.5-3.6c1.7-0.9,4.2,3.5,5.5,3.2c1.3-0.3-2.3-1.6-2.9-3.9
	c-0.6-2.3,1.4-0.2,2.8-0.4c1.4-0.2,0.9-0.8-0.7-1.5s-1.6-2.9,4.1-2.8s9.9-0.6,7-0.9s-7.5,0.6-9.4-0.4c-2-1,9.6-2.6,10.4-3.4
	c0.7-0.7-10.7,2.4-11.7,1.7s1.1-1.3,1.5-1.7c0.4-0.4-0.7,0.9-2,0c-1.4-0.9,1.6-6.3,4-7.1s-0.3-0.4-1.2-0.3c-0.9,0.2-3.9,3.7-5.3,2.7
	s0.1-0.7-0.1-1.4c-0.2-0.7-0.7,2.1-1.8,0.9s0.5-2.6,0.5-2.6s-1.1,1.7-2,1.6c-0.9-0.2-0.3-3-0.3-3.3s-0.5,3.3-1.4,3.1
	c-1-0.2-1.4-1.2-1.6-2.7c-0.2-1.5,0.5,2.2-0.5,2.2c-1,0-1.3-2.4-1.9-3.1c-0.7-0.7,0.7,3.8-0.3,3.4c-1-0.4-1.9-2.2-2.1-2.6
	c-0.3-0.4,0.8,2.5,0.1,2.1C219.6,112.4,219.1,110.3,219.1,110.3z"/>
<path class="st12" d="M220.5,116c-2.2,0.7-3.4,0.3-3.6,1.3c-0.2,1-1.4,2.3-1.2,3.1s-0.5,3.6,0.4,4s0.5,2.2,1.5,2.3
	c1.1,0.1,1.2,2.3,3.5,2.4c2.3,0.1,3.6,1.3,5.1,0.7c1.5-0.7,3.9-2.1,4-3.1c0.1-1,0.2-1.4,0.9-2c0.7-0.6,0.9-3.4,0.6-3.7
	c-0.3-0.2,0.5-2.6-1.6-3.3s-2.6-2.5-3.6-2.5s-1.7,0.2-3.3,0.3S220.5,116,220.5,116z"/>
<path class="st0" d="M402.9,326c-0.8,0.6-4.9,4.7-9.7,3.8c-1.9-0.4-4,0.2-5.3,1.6c-1.6,1.7-3.6,2.6-6.2,1.5
	c-3.8-1.5-5.1-0.3-6.7,1.3c-0.8,0.8-6.6-5.8-11.6-13.5c-2.4-3.7-8-3.2-9.7,1c-2.6,6.6-5.2,12.9-6.2,13.8c-2.2,2.1-5.3,1.6-7.3-0.6
	c-1.9-2.2-3.2-2.7-5.5-0.1c-2.3,2.6-10,4.4-14.7,0.4c-4.7-4,0.9-7-2.8-9.5c-3.7-2.4-5.2-6.5-4.5-7.8c0.8-1.3,1.8-5.4,1.8-10
	c0-4.6,12.2-8.8,18.1-13.2c2.3-1.7,5.7-2.4,9.2-2.3c0.3,0,0.6,0,0.8,0c-0.3-0.1-0.6-0.2-0.9-0.3c-8.8-2.9-20.7-7-24.7-9.6
	c-6.7-4.4-2.3-3.5-3.4-10.3c-1.1-6.8,4.3-4.2,2.4-9.9c-1.9-5.8,4.6-11.3,6.7-11.6c2.1-0.3,6.1-4.3,8.5-1.6c2.3,2.6,6.1,3,10.7,7.4
	c0.4,0.4,0.8,0.7,1.3,0.9l6.1,3.2c3.2,1.7,7.1-0.2,7.9-3.8c1.5-7,3.1-12.6,3.9-13.2c2.2-1.7,5.4,6.2,8.9,2.9
	c3.5-3.2,6.5-2.1,8.9-1.5c2.4,0.6,3.1-1.8,4.9,0c4.1,5.4,0.9,1.9,6.3,9.6c5.3,7.5-1.4,15.9-6.1,20.6c-0.2,0.2-0.4,0.4-0.6,0.6
	c-1,1.3-4.7,6.4-8.1,10.7c-1,1.4-1.4,3.1-0.9,4.8c0,0,0,0.1,0,0.1c0.7,2.4,2.9,4.1,5.4,4c12.6-0.2,27.6,1.7,29.9,13.1
	c0,0.2,0.1,0.4,0.1,0.7C411,322.7,403.9,325.2,402.9,326z"/>
<path class="st1" d="M360.5,349.7c-1.5,1.5-9.5,1.8-10.4-3.2c-0.9-5-2.8-3.6-5.2-8.5c-6.7-11.1,1.3-28.9,4.9-34c0,0,1.8-2.4,3.8-4.6
	c-0.2-0.1-0.3-0.2-0.5-0.3c-7.4,6.3-29.9,21.6-40.6,15.3c-12.3-7.2-4.6-9.3-7.6-11.9c-3-2.6-4.7-3.5-5.1-6.2
	c-0.4-2.7-0.8-4.1,0.6-8.3c1.4-4.2,7.4-7.7,10.9-8.6c3.3-0.9,21.8-2.3,39.3,10.4c0,0,0-0.1,0.1-0.1c-17.9-16-16.5-34.8-14.4-41.9
	c0.2-0.5,0.9-0.6,1.1-0.1c0,0,0,0,0,0c0.2,0.5,0.9,0.5,1.1,0c6.2-13.7,21.3-11.4,28.5-0.7c5.4,8,0.6,25.2-3.6,35.6
	c-0.9,1.9-1.7,3.7-2.3,5.2c-0.2,0.7-0.4,1.3-0.6,1.9c8.4-8,32.8-26.6,49.1-11c3.5,3.5,0.3,9.4,2.1,12.5c1.8,3.1,2.1,8.9-4.3,12.7
	c-6.1,3.7-31.6,2.3-47.1-5.8c-0.3-0.1-0.5-0.3-0.8-0.4c0.1,0.4,0.1,0.7,0.2,1.2c0.6,3.7,1.9,9.8,10,18.9
	c10.9,12.2,6.1,23.6,1.3,29.4C366.5,352.9,362,348.1,360.5,349.7z"/>
<path class="st2" d="M360,298.8c-0.1-0.4-0.1-0.8-0.2-1.2c0.3,0.1,0.5,0.3,0.8,0.4C360.4,298.3,360.2,298.5,360,298.8z"/>
<path class="st2" d="M361.3,287.8c0.6-1.5,1.4-3.3,2.3-5.2C362.8,284.6,362,286.4,361.3,287.8z"/>
<path class="st3" d="M342.7,292.3c-0.3,0-0.6,0-0.8,0c0-0.1,0-0.2,0-0.2C342.1,292.1,342.4,292.2,342.7,292.3z"/>
<path class="st4" d="M360.4,283.1c-1.7,1.3-3.3,2.4-3.3,0.4c-0.1-1.9-0.2-4-0.2-4s-0.5,4-1.5,4.1c-1,0.1-0.5-2.6-1.8-0.9
	c-1.3,1.8-0.5,2.1-2.2-0.4c-1.7-2.6,1.3,2.9-0.2,2.9c-1.5,0-5-0.3-6.1-4.2c2.3,5.2,0.8,5.4,2.4,6.5c1.7,1.1-2.9,0.2-2.9,0.2
	s1,1.9,2.1,2.1s-2.5,1.7-2.9,1.5s1.8,1.8,1.8,1.8s-3.7,2.1-4.8,1.1c2.9,2.1,4,0.5,4.6,1.7s-3.6,1.2-2.5,2.3c1.1,1.1,2.3-3,3.1-1.1
	c0.8,1.9-3.4,4.1-2.3,5.4c0.2-0.7,2.1-3,3.5-2s0.9,2.9,0.5,4c-0.4,1.1,1.4-1.7,2.4-1.9c1-0.2-0.8,2-0.2,2.6c0.6,0.6,0.7-1.4,1.3-0.8
	c0.5,0.5,0,2.2,0.8,2.9c0.8,0.7,0.3-3.4,2.2-2.9c1.9,0.6,0.5,5.4,1.7,6.1s-0.5-2.8,0.7-4.8s1.1,0.9,2.3,1.7c1.2,0.8,1.2,0.1,0.5-1.5
	c-0.6-1.6,0.9-3.2,4.9,1c4,4.1,7.4,6.6,5.6,4.3s-5.7-4.9-6.4-6.9c-0.7-2.1,8.7,5,9.7,5c1.1,0-9.2-5.8-9.5-7.1
	c-0.3-1.3,1.7-0.2,2.3-0.1c0.6,0-1.1,0.1-1.4-1.4c-0.4-1.6,5.6-3.3,7.9-2.1c2.2,1.2,0.1-0.5-0.7-1c-0.8-0.5-5.4-0.2-5.7-1.9
	c-0.3-1.7,0.6-0.4,0.9-1c0.3-0.6-2,0.9-2-0.6c0-1.6,2.2-1.5,2.2-1.5s-2,0.5-2.5-0.3c-0.5-0.7,2-2.3,2.1-2.5c0.2-0.2-2.7,2-3.2,1.2
	c-0.5-0.8-0.1-1.8,0.8-3.1c0.9-1.2-1.2,1.9-1.9,1.2c-0.7-0.6,0.8-2.6,0.8-3.6c0-1-2.2,3.2-2.6,2.2s0.2-2.9,0.3-3.4
	c0.1-0.5-1.2,2.3-1.4,1.6S360.4,283.1,360.4,283.1z"/>
<path class="st5" d="M357.4,288.1c-2.1-1.1-2.6-2.2-3.5-1.7s-2.6,0.6-3,1.3s-2.9,2.1-2.6,3.1s-1.2,1.9-0.5,2.7s-0.7,2.4,0.8,4.1
	c1.5,1.7,1.6,3.5,3.2,4.1s4.3,1.3,5,0.6c0.7-0.6,1.1-0.8,2-0.7s3.1-1.8,3-2.2c0-0.4,2.2-1.5,1.2-3.5s-0.1-3.6-0.7-4.3
	s-1.3-1.1-2.6-2.1C358.5,288.5,357.4,288.1,357.4,288.1z"/>
<path class="st16" d="M448.4,263.3c-0.8,0.6-4.9,4.7-9.7,3.8c-1.9-0.4-4,0.2-5.3,1.6c-1.6,1.7-3.6,2.6-6.2,1.5
	c-3.8-1.5-5.1-0.3-6.7,1.3c-0.8,0.8-6.6-5.8-11.6-13.5c-2.4-3.7-8-3.2-9.7,1c-2.6,6.6-5.2,12.9-6.2,13.8c-2.2,2.1-5.3,1.6-7.3-0.6
	c-1.9-2.2-3.2-2.7-5.5-0.1c-2.3,2.6-10,4.4-14.7,0.4c-4.7-4,0.9-7-2.8-9.5c-3.7-2.4-5.2-6.5-4.5-7.8c0.8-1.3,1.8-5.4,1.8-10
	c0-4.6,12.2-8.8,18.1-13.2c2.3-1.7,5.7-2.4,9.2-2.3c0.3,0,0.6,0,0.8,0c-0.3-0.1-0.6-0.2-0.9-0.3c-8.8-2.9-20.7-7-24.7-9.6
	c-6.7-4.4-2.3-3.5-3.4-10.3c-1.1-6.8,4.3-4.2,2.4-9.9c-1.9-5.8,4.6-11.3,6.7-11.6c2.1-0.3,6.1-4.3,8.5-1.6c2.3,2.6,6.1,3,10.7,7.4
	c0.4,0.4,0.8,0.7,1.3,0.9l6.1,3.2c3.2,1.7,7.1-0.2,7.9-3.8c1.5-7,3.1-12.6,3.9-13.2c2.2-1.7,5.4,6.2,8.9,2.9
	c3.5-3.2,6.5-2.1,8.9-1.5c2.4,0.6,3.1-1.8,4.9,0c4.1,5.4,0.9,1.9,6.3,9.6c5.3,7.5-1.4,15.9-6.1,20.6c-0.2,0.2-0.4,0.4-0.6,0.6
	c-1,1.3-4.7,6.4-8.1,10.7c-1,1.4-1.4,3.1-0.9,4.8c0,0,0,0.1,0,0.1c0.7,2.4,2.9,4.1,5.4,4c12.6-0.2,27.6,1.7,29.9,13.1
	c0,0.2,0.1,0.4,0.1,0.7C456.4,260,449.4,262.5,448.4,263.3z"/>
<path class="st17" d="M406,287c-1.5,1.5-9.5,1.8-10.4-3.2c-0.9-5-2.8-3.6-5.2-8.5c-6.7-11.1,1.3-28.9,4.9-34c0,0,1.8-2.4,3.8-4.6
	c-0.2-0.1-0.3-0.2-0.5-0.3c-7.4,6.3-29.9,21.6-40.6,15.3c-12.3-7.2-4.6-9.3-7.6-11.9c-3-2.6-4.7-3.5-5.1-6.2
	c-0.4-2.7-0.8-4.1,0.6-8.3c1.4-4.2,7.4-7.7,10.9-8.6c3.3-0.9,21.8-2.3,39.3,10.4c0,0,0-0.1,0.1-0.1c-17.9-16-16.5-34.8-14.4-41.9
	c0.2-0.5,0.9-0.6,1.1-0.1c0,0,0,0,0,0c0.2,0.5,0.9,0.5,1.1,0c6.2-13.7,21.3-11.4,28.5-0.7c5.4,8,0.6,25.2-3.6,35.6
	c-0.9,1.9-1.7,3.7-2.3,5.2c-0.2,0.7-0.4,1.3-0.6,1.9c8.4-8,32.8-26.6,49.1-11c3.5,3.5,0.3,9.4,2.1,12.5c1.8,3.1,2.1,8.9-4.3,12.7
	c-6.1,3.7-31.6,2.3-47.1-5.8c-0.3-0.1-0.5-0.3-0.8-0.4c0.1,0.4,0.1,0.7,0.2,1.2c0.6,3.7,1.9,9.8,10,18.9
	c10.9,12.2,6.1,23.6,1.3,29.4C412,290.2,407.5,285.4,406,287z"/>
<path class="st2" d="M405.5,236.1c-0.1-0.4-0.1-0.8-0.2-1.2c0.3,0.1,0.5,0.3,0.8,0.4C405.9,235.6,405.7,235.8,405.5,236.1z"/>
<path class="st2" d="M382.7,183c-0.1,0.1-0.1,0.2-0.2,0.4C382.5,183.2,382.6,183.1,382.7,183z"/>
<path class="st2" d="M406.8,225.1c0.6-1.5,1.4-3.3,2.3-5.2C408.3,221.9,407.5,223.7,406.8,225.1z"/>
<path class="st3" d="M388.2,229.6c-0.3,0-0.6,0-0.8,0c0-0.1,0-0.2,0-0.2C387.6,229.5,387.9,229.6,388.2,229.6z"/>
<path class="st18" d="M405.9,220.4c-1.7,1.3-3.3,2.4-3.3,0.4c-0.1-1.9-0.2-4-0.2-4s-0.5,4-1.5,4.1c-1,0.1-0.5-2.6-1.8-0.9
	c-1.3,1.8-0.5,2.1-2.2-0.4c-1.7-2.6,1.3,2.9-0.2,2.9s-5-0.3-6.1-4.2c2.3,5.2,0.8,5.4,2.4,6.5c1.7,1.1-2.9,0.2-2.9,0.2s1,1.9,2.1,2.1
	c1.1,0.2-2.5,1.7-2.9,1.5c-0.5-0.3,1.8,1.8,1.8,1.8s-3.7,2.1-4.8,1.1c2.9,2.1,4,0.5,4.6,1.7c0.6,1.2-3.6,1.2-2.5,2.3
	c1.1,1.1,2.3-3,3.1-1.1s-3.4,4.1-2.3,5.4c0.2-0.7,2.1-3,3.5-2s0.9,2.9,0.5,4c-0.4,1.1,1.4-1.7,2.4-1.9c1-0.2-0.8,2-0.2,2.6
	c0.6,0.6,0.7-1.4,1.3-0.8c0.5,0.5,0,2.2,0.8,2.9c0.8,0.7,0.3-3.4,2.2-2.9c1.9,0.6,0.5,5.4,1.7,6.1c1.2,0.7-0.5-2.8,0.7-4.8
	c1.2-2,1.1,0.9,2.3,1.7c1.2,0.8,1.2,0.1,0.5-1.5c-0.6-1.6,0.9-3.2,4.9,1c4,4.1,7.4,6.6,5.6,4.3c-1.9-2.2-5.7-4.9-6.4-6.9
	s8.7,5,9.7,5s-9.2-5.8-9.5-7.1c-0.3-1.3,1.7-0.2,2.3-0.1c0.6,0-1.1,0.1-1.4-1.4c-0.4-1.6,5.6-3.3,7.9-2.1c2.2,1.2,0.1-0.5-0.7-1
	c-0.8-0.5-5.4-0.2-5.7-1.9c-0.3-1.7,0.6-0.4,0.9-1c0.3-0.6-2,0.9-2-0.6s2.2-1.5,2.2-1.5s-2,0.5-2.5-0.3c-0.5-0.7,2-2.3,2.1-2.5
	c0.2-0.2-2.7,2-3.2,1.2c-0.5-0.8-0.1-1.8,0.8-3.1c0.9-1.2-1.2,1.9-1.9,1.2c-0.7-0.6,0.8-2.6,0.8-3.6c0-1-2.2,3.2-2.6,2.2
	c-0.5-1,0.2-2.9,0.3-3.4s-1.2,2.3-1.4,1.6S405.9,220.4,405.9,220.4z"/>
<path class="st5" d="M402.9,225.4c-2.1-1.1-2.6-2.2-3.5-1.7s-2.6,0.6-3,1.3c-0.4,0.7-2.9,2.1-2.6,3.1s-1.2,1.9-0.5,2.7
	s-0.7,2.4,0.8,4.1c1.5,1.7,1.6,3.5,3.2,4.1c1.6,0.6,4.3,1.3,5,0.6s1.1-0.8,2-0.7s3.1-1.8,3-2.2c0-0.4,2.2-1.5,1.2-3.5
	s-0.1-3.6-0.7-4.3s-1.3-1.1-2.6-2.1C404,225.9,402.9,225.4,402.9,225.4z"/>
<path class="st9" d="M359.9,260.6c-0.8,0.6-4.9,4.7-9.7,3.8c-1.9-0.4-4,0.2-5.3,1.6c-1.6,1.7-3.6,2.6-6.2,1.5
	c-3.8-1.5-5.1-0.3-6.7,1.3c-0.8,0.8-6.6-5.8-11.6-13.5c-2.4-3.7-8-3.2-9.7,1c-2.6,6.6-5.2,12.9-6.2,13.8c-2.2,2.1-5.3,1.6-7.3-0.6
	c-1.9-2.2-3.2-2.7-5.5-0.1c-2.3,2.6-10,4.4-14.7,0.4c-4.7-4,0.9-7-2.8-9.5c-3.7-2.4-5.2-6.5-4.5-7.8c0.8-1.3,1.8-5.4,1.8-10
	c0-4.6,12.2-8.8,18.1-13.2c2.3-1.7,5.7-2.4,9.2-2.3c0.3,0,0.6,0,0.8,0c-0.3-0.1-0.6-0.2-0.9-0.3c-8.8-2.9-20.7-7-24.7-9.6
	c-6.7-4.4-2.3-3.5-3.4-10.3c-1.1-6.8,4.3-4.2,2.4-9.9c-1.9-5.8,4.6-11.3,6.7-11.6c2.1-0.3,6.1-4.3,8.5-1.6c2.3,2.6,6.1,3,10.7,7.4
	c0.4,0.4,0.8,0.7,1.3,0.9l6.1,3.2c3.2,1.7,7.1-0.2,7.9-3.8c1.5-7,3.1-12.6,3.9-13.2c2.2-1.7,5.4,6.2,8.9,2.9
	c3.5-3.2,6.5-2.1,8.9-1.5c2.4,0.6,3.1-1.8,4.9,0c4.1,5.4,0.9,1.9,6.3,9.6c5.3,7.5-1.4,15.9-6.1,20.6c-0.2,0.2-0.4,0.4-0.6,0.6
	c-1,1.3-4.7,6.4-8.1,10.7c-1,1.4-1.4,3.1-0.9,4.8c0,0,0,0.1,0,0.1c0.7,2.4,2.9,4.1,5.4,4c12.6-0.2,27.6,1.7,29.9,13.1
	c0,0.2,0.1,0.4,0.1,0.7C368,257.3,360.9,259.8,359.9,260.6z"/>
<path class="st10" d="M317.5,284.3c-1.5,1.5-9.5,1.8-10.4-3.2c-0.9-5-2.8-3.6-5.2-8.5c-6.7-11.1,1.3-28.9,4.9-34
	c0,0,1.8-2.4,3.8-4.6c-0.2-0.1-0.3-0.2-0.5-0.3c-7.4,6.3-29.9,21.6-40.6,15.3c-12.3-7.2-4.6-9.3-7.6-11.9c-3-2.6-4.7-3.5-5.1-6.2
	c-0.4-2.7-0.8-4.1,0.6-8.3c1.4-4.2,7.4-7.7,10.9-8.6c3.3-0.9,21.8-2.3,39.3,10.4c0,0,0-0.1,0.1-0.1c-17.9-16-16.5-34.8-14.4-41.9
	c0.2-0.5,0.9-0.6,1.1-0.1c0,0,0,0,0,0c0.2,0.5,0.9,0.5,1.1,0c6.2-13.7,21.3-11.4,28.5-0.7c5.4,8,0.6,25.2-3.6,35.6
	c-0.9,1.9-1.7,3.7-2.3,5.2c-0.2,0.7-0.4,1.3-0.6,1.9c8.4-8,32.8-26.6,49.1-11c3.5,3.5,0.3,9.4,2.1,12.5c1.8,3.1,2.1,8.9-4.3,12.7
	c-6.1,3.7-31.6,2.3-47.1-5.8c-0.3-0.1-0.5-0.3-0.8-0.4c0.1,0.4,0.1,0.7,0.2,1.2c0.6,3.7,1.9,9.8,10,18.9
	c10.9,12.2,6.1,23.6,1.3,29.4C323.5,287.5,319.1,282.8,317.5,284.3z"/>
<path class="st2" d="M317,233.4c-0.1-0.4-0.1-0.8-0.2-1.2c0.3,0.1,0.5,0.3,0.8,0.4C317.4,232.9,317.2,233.2,317,233.4z"/>
<path class="st2" d="M318.3,222.4c0.6-1.5,1.4-3.3,2.3-5.2C319.8,219.2,319,221,318.3,222.4z"/>
<path class="st3" d="M299.7,227c-0.3,0-0.6,0-0.8,0c0-0.1,0-0.2,0-0.2C299.1,226.8,299.4,226.9,299.7,227z"/>
<path class="st11" d="M317.4,217.8c-1.7,1.3-3.3,2.4-3.3,0.4c-0.1-1.9-0.2-4-0.2-4s-0.5,4-1.5,4.1c-1,0.1-0.5-2.6-1.8-0.9
	c-1.3,1.8-0.5,2.1-2.2-0.4c-1.7-2.6,1.3,2.9-0.2,2.9s-5-0.3-6.1-4.2c2.3,5.2,0.8,5.4,2.4,6.5c1.7,1.1-2.9,0.2-2.9,0.2s1,1.9,2.1,2.1
	c1.1,0.2-2.5,1.7-2.9,1.5c-0.5-0.3,1.8,1.8,1.8,1.8s-3.7,2.1-4.8,1.1c2.9,2.1,4,0.5,4.6,1.7c0.6,1.2-3.6,1.2-2.5,2.3
	c1.1,1.1,2.3-3,3.1-1.1s-3.4,4.1-2.3,5.4c0.2-0.7,2.1-3,3.5-2s0.9,2.9,0.5,4c-0.4,1.1,1.4-1.7,2.4-1.9c1-0.2-0.8,2-0.2,2.6
	c0.6,0.6,0.7-1.4,1.3-0.8c0.5,0.5,0,2.2,0.8,2.9c0.8,0.7,0.3-3.4,2.2-2.9c1.9,0.6,0.5,5.4,1.7,6.1c1.2,0.7-0.5-2.8,0.7-4.8
	c1.2-2,1.1,0.9,2.3,1.7s1.2,0.1,0.5-1.5c-0.6-1.6,0.9-3.2,4.9,1s7.4,6.6,5.6,4.3c-1.9-2.2-5.7-4.9-6.4-6.9s8.7,5,9.7,5
	c1.1,0-9.2-5.8-9.5-7.1c-0.3-1.3,1.7-0.2,2.3-0.1c0.6,0-1.1,0.1-1.4-1.4s5.6-3.3,7.9-2.1s0.1-0.5-0.7-1c-0.8-0.5-5.4-0.2-5.7-1.9
	c-0.3-1.7,0.6-0.4,0.9-1c0.3-0.6-2,0.9-2-0.6s2.2-1.5,2.2-1.5s-2,0.5-2.5-0.3c-0.5-0.7,2-2.3,2.1-2.5c0.2-0.2-2.7,2-3.2,1.2
	c-0.5-0.8-0.1-1.8,0.8-3.1s-1.2,1.9-1.9,1.2c-0.7-0.6,0.8-2.6,0.8-3.6c0-1-2.2,3.2-2.6,2.2s0.2-2.9,0.3-3.4c0.1-0.5-1.2,2.3-1.4,1.6
	C316.4,219.5,317.4,217.8,317.4,217.8z"/>
<path class="st5" d="M314.5,222.8c-2.1-1.1-2.6-2.2-3.5-1.7s-2.6,0.6-3,1.3c-0.4,0.7-2.9,2.1-2.6,3.1s-1.2,1.9-0.5,2.7
	s-0.7,2.4,0.8,4.1c1.5,1.7,1.6,3.5,3.2,4.1c1.6,0.6,4.3,1.3,5,0.6s1.1-0.8,2-0.7s3.1-1.8,3-2.2c0-0.4,2.2-1.5,1.2-3.5
	s-0.1-3.6-0.7-4.3s-1.3-1.1-2.6-2.1S314.5,222.8,314.5,222.8z"/>
<path class="st6" d="M322.5,279.8c-0.1,1.1-0.1,6.8-4.2,9.6c-1.6,1.1-2.7,2.9-2.7,4.9c0,2.3-0.7,4.4-3.3,5.5
	c-3.8,1.6-3.8,3.4-3.8,5.6c0,1.2-8.8,0.6-17.7-1.4c-4.3-0.9-7.9,3.4-6.2,7.5c2.8,6.5,5.4,12.8,5.4,14.2c-0.1,3.1-2.7,4.9-5.6,4.7
	c-2.9-0.2-4.2,0.4-4,3.8c0.2,3.4-4,10.1-10.1,10.7c-6.2,0.5-4.4-5.6-8.7-4.7c-4.3,0.9-8.3-0.9-8.7-2.4c-0.4-1.5-2.5-5.1-5.8-8.3
	c-3.3-3.3,2.4-14.8,3.4-22.1c0.4-2.8,2.4-5.7,4.9-8.2c0.2-0.2,0.4-0.4,0.6-0.6c-0.3,0.1-0.5,0.3-0.8,0.4
	c-8.2,4.2-19.6,9.7-24.3,10.7c-7.8,1.6-4.1-0.8-9.7-4.9c-5.6-4.1,0.1-6-5.3-8.7c-5.4-2.7-4.7-11.3-3.4-12.9c1.3-1.7,1.3-7.4,4.9-7.2
	c3.5,0.2,6.5-2.2,12.8-2.3c0.5,0,1.1-0.1,1.6-0.3l6.6-2.1c3.4-1.1,4.9-5.2,2.9-8.2c-3.9-6-6.7-11.1-6.6-12.1
	c0.4-2.7,8.2,0.5,8.3-4.2c0.2-4.7,3.1-6.1,5.3-7.4c2.2-1.3,0.9-3.4,3.4-3.4c6.7,0.9,2,0.7,11.2,2.3c9,1.6,10.3,12.2,10.2,18.9
	c0,0.3,0,0.6,0.1,0.9c0.2,1.7,1.1,7.8,1.9,13.3c0.2,1.7,1.2,3.2,2.7,4c0,0,0,0,0.1,0c2.2,1.2,4.9,0.8,6.7-1
	c8.8-9.1,20.7-18.3,30.4-11.9c0.2,0.1,0.4,0.3,0.5,0.4C325.9,271.7,322.6,278.5,322.5,279.8z"/>
<path class="st7" d="M309.2,326.5c0,2.2-5.4,8-9.6,5.1c-4.2-2.9-4.5-0.5-9.7-2.4c-12.6-3.1-19.5-21.4-20.6-27.5c0,0-0.4-2.9-0.6-5.9
	c-0.2,0-0.4,0.1-0.6,0.1c-0.7,9.7-5.9,36.4-17.9,39.5c-13.8,3.6-9.8-3.3-13.8-3c-4,0.3-5.8,0.8-8-0.8c-2.2-1.6-3.4-2.4-5.4-6.3
	c-2-4-0.2-10.7,1.6-13.8c1.7-3,13.8-17,35.1-20.5c0-0.1,0-0.1,0-0.1c-24,1.4-36.3-12.9-39.8-19.4c-0.3-0.5,0.2-1.1,0.8-0.8
	c0,0,0,0,0,0c0.5,0.2,1-0.3,0.8-0.8c-5.3-14,7-23.1,19.6-20.7c9.4,1.8,18.2,17.4,22.7,27.7c0.7,2,1.4,3.8,2.1,5.3
	c0.3,0.6,0.6,1.2,0.9,1.7c0.3-11.6,4.4-42,26.9-42.5c4.9,0,6.9,6.4,10.3,7.4c3.4,0.9,7.8,4.7,6,12c-1.7,6.9-20.7,24-37.4,29.2
	c-0.3,0.1-0.6,0.2-0.8,0.2c0.3,0.2,0.6,0.4,0.9,0.7c3.1,2.2,8.3,5.6,20.4,6.3c16.3,0.9,21,12.3,21.7,19.9
	C315.8,324.6,309.2,324.3,309.2,326.5z"/>
<path class="st2" d="M272.9,290.9c-0.3-0.2-0.7-0.5-0.9-0.7c0.3-0.1,0.6-0.2,0.8-0.2C272.8,290.3,272.9,290.6,272.9,290.9z"/>
<path class="st2" d="M266.1,282.2c-0.7-1.5-1.3-3.3-2.1-5.3C264.9,278.9,265.5,280.7,266.1,282.2z"/>
<path class="st3" d="M256.1,298.6c-0.2,0.2-0.4,0.4-0.6,0.6c-0.1,0-0.1-0.1-0.2-0.2C255.6,298.9,255.8,298.7,256.1,298.6z"/>
<path class="st8" d="M262.1,279.5c-0.3,2.1-0.6,4-2,2.6s-3-2.6-3-2.6s2.5,3.2,1.9,4c-0.6,0.8-2.2-1.5-1.9,0.6
	c0.3,2.2,1.1,1.9-1.8,1.2c-3-0.6,2.9,1.1,1.8,2.2c-1.1,1.1-3.7,3.4-7.3,1.4c5.3,2,4.4,3.3,6.3,2.8c1.9-0.4-1.9,2.2-1.9,2.2
	s2,0.6,3,0c0.9-0.6-0.5,3-1,3.1c-0.5,0.2,2.6,0,2.6,0s-1.1,4.1-2.6,4.2c3.5-0.6,3.2-2.5,4.5-2.1c1.2,0.4-1.7,3.4-0.2,3.4
	c1.6,0-0.5-3.7,1.4-3c1.9,0.8,0.4,5.3,2.2,5.5c-0.3-0.6-0.6-3.6,1-3.9c1.6-0.3,2.7,1.4,3.2,2.5c0.5,1.1-0.2-2.2,0.4-3.1
	c0.6-0.8,0.9,2,1.7,2c0.9,0-0.4-1.5,0.3-1.5c0.8,0,1.6,1.5,2.6,1.4c1-0.1-2.2-2.7-0.5-3.6s4.2,3.5,5.5,3.2c1.3-0.3-2.3-1.6-2.9-3.9
	s1.4-0.2,2.8-0.4c1.4-0.2,0.9-0.8-0.7-1.5c-1.6-0.7-1.6-2.9,4.1-2.8c5.7,0.1,9.9-0.6,7-0.9s-7.5,0.6-9.4-0.4c-2-1,9.6-2.6,10.4-3.4
	c0.7-0.7-10.7,2.4-11.7,1.7s1.1-1.3,1.5-1.7c0.4-0.4-0.7,0.9-2,0c-1.4-0.9,1.6-6.3,4-7.1c2.4-0.8-0.3-0.4-1.2-0.3
	c-0.9,0.2-3.9,3.7-5.3,2.7c-1.4-0.9,0.1-0.7-0.1-1.4c-0.2-0.7-0.7,2.1-1.8,0.9s0.5-2.6,0.5-2.6s-1.1,1.7-2,1.6s-0.3-3-0.3-3.3
	c0-0.3-0.5,3.3-1.4,3.1c-1-0.2-1.4-1.2-1.6-2.7c-0.2-1.5,0.5,2.2-0.5,2.2c-1,0-1.3-2.4-1.9-3.1c-0.7-0.7,0.7,3.8-0.3,3.4
	c-1-0.4-1.9-2.2-2.1-2.6c-0.3-0.4,0.8,2.5,0.1,2.1C262.6,281.6,262.1,279.5,262.1,279.5z"/>
<path class="st12" d="M263.6,285.2c-2.2,0.7-3.4,0.3-3.6,1.3s-1.4,2.3-1.2,3.1c0.2,0.8-0.5,3.6,0.4,4c0.9,0.5,0.5,2.2,1.5,2.3
	c1.1,0.1,1.2,2.3,3.5,2.4c2.3,0.1,3.6,1.3,5.1,0.7c1.5-0.7,3.9-2.1,4-3.1c0.1-1,0.2-1.4,0.9-2c0.7-0.6,0.9-3.4,0.6-3.7
	c-0.3-0.2,0.5-2.6-1.6-3.3c-2-0.8-2.6-2.5-3.6-2.5c-0.9,0-1.7,0.2-3.3,0.3C264.6,284.7,263.6,285.2,263.6,285.2z"/>
<path class="st13" d="M289.3,192.8c-0.1,1.1-0.1,6.8-4.2,9.6c-1.6,1.1-2.7,2.9-2.7,4.9c0,2.3-0.7,4.4-3.3,5.5
	c-3.8,1.6-3.8,3.4-3.8,5.6c0,1.2-8.8,0.6-17.7-1.4c-4.3-0.9-7.9,3.4-6.2,7.5c2.8,6.5,5.4,12.8,5.4,14.2c-0.1,3.1-2.7,4.9-5.6,4.7
	c-2.9-0.2-4.2,0.4-4,3.8c0.2,3.4-4,10.1-10.1,10.7c-6.2,0.5-4.4-5.6-8.7-4.7c-4.3,0.9-8.3-0.9-8.7-2.4c-0.4-1.5-2.5-5.1-5.8-8.3
	c-3.3-3.3,2.4-14.8,3.4-22.1c0.4-2.8,2.4-5.7,4.9-8.2c0.2-0.2,0.4-0.4,0.6-0.6c-0.3,0.1-0.5,0.3-0.8,0.4
	c-8.2,4.2-19.6,9.7-24.3,10.7c-7.8,1.6-4.1-0.8-9.7-4.9c-5.6-4.1,0.1-6-5.3-8.7c-5.4-2.7-4.7-11.3-3.4-12.9c1.3-1.7,1.3-7.4,4.9-7.2
	c3.5,0.2,6.5-2.2,12.8-2.3c0.5,0,1.1-0.1,1.6-0.3l6.6-2.1c3.4-1.1,4.9-5.2,2.9-8.2c-3.9-6-6.7-11.1-6.6-12.1
	c0.4-2.7,8.2,0.5,8.3-4.2c0.2-4.7,3.1-6.1,5.3-7.4c2.2-1.3,0.9-3.4,3.4-3.4c6.7,0.9,2,0.7,11.2,2.3c9,1.6,10.3,12.2,10.2,18.9
	c0,0.3,0,0.6,0.1,0.9c0.2,1.7,1.1,7.8,1.9,13.3c0.2,1.7,1.2,3.2,2.7,4c0,0,0,0,0.1,0c2.2,1.2,4.9,0.8,6.7-1
	c8.8-9.1,20.7-18.3,30.4-11.9c0.2,0.1,0.4,0.3,0.5,0.4C292.7,184.8,289.5,191.6,289.3,192.8z"/>
<path class="st14" d="M276.1,239.5c0,2.2-5.4,8-9.6,5.1c-4.2-2.9-4.5-0.5-9.7-2.4c-12.6-3.1-19.5-21.4-20.6-27.5
	c0,0-0.4-2.9-0.6-5.9c-0.2,0-0.4,0.1-0.6,0.1c-0.7,9.7-5.9,36.4-17.9,39.5c-13.8,3.6-9.8-3.3-13.8-3c-4,0.3-5.8,0.8-8-0.8
	c-2.2-1.6-3.4-2.4-5.4-6.3c-2-4-0.2-10.7,1.6-13.8c1.7-3,13.8-17,35.1-20.5c0-0.1,0-0.1,0-0.1c-24,1.4-36.3-12.9-39.8-19.4
	c-0.3-0.5,0.2-1.1,0.8-0.8c0,0,0,0,0,0c0.5,0.2,1-0.3,0.8-0.8c-5.3-14,7-23.1,19.6-20.7c9.4,1.8,18.2,17.4,22.7,27.7
	c0.7,2,1.4,3.8,2.1,5.3c0.3,0.6,0.6,1.2,0.9,1.7c0.3-11.6,4.4-42,26.9-42.5c4.9,0,6.9,6.4,10.3,7.4c3.4,0.9,7.8,4.7,6,12
	c-1.7,6.9-20.7,24-37.4,29.2c-0.3,0.1-0.6,0.2-0.8,0.2c0.3,0.2,0.6,0.4,0.9,0.7c3.1,2.2,8.3,5.6,20.4,6.3
	c16.3,0.9,21,12.3,21.7,19.9C282.7,237.6,276.1,237.4,276.1,239.5z"/>
<path class="st2" d="M239.8,203.9c-0.3-0.2-0.7-0.5-0.9-0.7c0.3-0.1,0.6-0.2,0.8-0.2C239.7,203.3,239.8,203.6,239.8,203.9z"/>
<path class="st2" d="M186.1,182.5c0,0.1,0.1,0.2,0.1,0.4C186.2,182.8,186.1,182.6,186.1,182.5z"/>
<path class="st2" d="M232.9,195.2c-0.7-1.5-1.3-3.3-2.1-5.3C231.7,191.9,232.4,193.7,232.9,195.2z"/>
<path class="st3" d="M223,211.6c-0.2,0.2-0.4,0.4-0.6,0.6c-0.1,0-0.1-0.1-0.2-0.2C222.5,211.9,222.7,211.8,223,211.6z"/>
<path class="st15" d="M229,192.6c-0.3,2.1-0.6,4-2,2.6c-1.4-1.3-3-2.6-3-2.6s2.5,3.2,1.9,4c-0.6,0.8-2.2-1.5-1.9,0.6
	c0.3,2.2,1.1,1.9-1.8,1.2s2.9,1.1,1.8,2.2c-1.1,1.1-3.7,3.4-7.3,1.4c5.3,2,4.4,3.3,6.3,2.8s-1.9,2.2-1.9,2.2s2,0.6,3,0s-0.5,3-1,3.1
	c-0.5,0.2,2.6,0,2.6,0s-1.1,4.1-2.6,4.2c3.5-0.6,3.2-2.5,4.5-2.1c1.2,0.4-1.7,3.4-0.2,3.4c1.6,0-0.5-3.7,1.4-3
	c1.9,0.8,0.4,5.3,2.2,5.5c-0.3-0.6-0.6-3.6,1-3.9c1.6-0.3,2.7,1.4,3.2,2.5c0.5,1.1-0.2-2.2,0.4-3.1c0.6-0.8,0.9,2,1.7,2
	s-0.4-1.5,0.3-1.5s1.6,1.5,2.6,1.4c1-0.1-2.2-2.7-0.5-3.6c1.7-0.9,4.2,3.5,5.5,3.2c1.3-0.3-2.3-1.6-2.9-3.9s1.4-0.2,2.8-0.4
	c1.4-0.2,0.9-0.8-0.7-1.5s-1.6-2.9,4.1-2.8c5.7,0.1,9.9-0.6,7-0.9s-7.5,0.6-9.4-0.4s9.6-2.6,10.4-3.4c0.7-0.7-10.7,2.4-11.7,1.7
	c-1.1-0.7,1.1-1.3,1.5-1.7c0.4-0.4-0.7,0.9-2,0c-1.4-0.9,1.6-6.3,4-7.1c2.4-0.8-0.3-0.4-1.2-0.3c-0.9,0.2-3.9,3.7-5.3,2.7
	c-1.4-0.9,0.1-0.7-0.1-1.4c-0.2-0.7-0.7,2.1-1.8,0.9s0.5-2.6,0.5-2.6s-1.1,1.7-2,1.6c-0.9-0.2-0.3-3-0.3-3.3s-0.5,3.3-1.4,3.1
	c-1-0.2-1.4-1.2-1.6-2.7c-0.2-1.5,0.5,2.2-0.5,2.2c-1,0-1.3-2.4-1.9-3.1c-0.7-0.7,0.7,3.8-0.3,3.4c-1-0.4-1.9-2.2-2.1-2.6
	s0.8,2.5,0.1,2.1C229.5,194.6,229,192.6,229,192.6z"/>
<path class="st5" d="M230.5,198.2c-2.2,0.7-3.4,0.3-3.6,1.3c-0.2,1-1.4,2.3-1.2,3.1c0.2,0.8-0.5,3.6,0.4,4c0.9,0.5,0.5,2.2,1.5,2.3
	c1.1,0.1,1.2,2.3,3.5,2.4c2.3,0.1,3.6,1.3,5.1,0.7c1.5-0.7,3.9-2.1,4-3.1c0.1-1,0.2-1.4,0.9-2s0.9-3.4,0.6-3.7
	c-0.3-0.2,0.5-2.6-1.6-3.3s-2.6-2.5-3.6-2.5s-1.7,0.2-3.3,0.3S230.5,198.2,230.5,198.2z"/>
<path class="st16" d="M224.9,253.5c-0.1,1.1-0.1,6.8-4.2,9.6c-1.6,1.1-2.7,2.9-2.7,4.9c0,2.3-0.7,4.4-3.3,5.5
	c-3.8,1.6-3.8,3.4-3.8,5.6c0,1.2-8.8,0.6-17.7-1.4c-4.3-0.9-7.9,3.4-6.2,7.5c2.8,6.5,5.4,12.8,5.4,14.2c-0.1,3.1-2.7,4.9-5.6,4.7
	c-2.9-0.2-4.2,0.4-4,3.8c0.2,3.4-4,10.1-10.1,10.7c-6.2,0.5-4.4-5.6-8.7-4.7c-4.3,0.9-8.3-0.9-8.7-2.4c-0.4-1.5-2.5-5.1-5.8-8.3
	c-3.3-3.3,2.4-14.8,3.4-22.1c0.4-2.8,2.4-5.7,4.9-8.2c0.2-0.2,0.4-0.4,0.6-0.6c-0.3,0.1-0.5,0.3-0.8,0.4
	c-8.2,4.2-19.6,9.7-24.3,10.7c-7.8,1.6-4.1-0.8-9.7-4.9c-5.6-4.1,0.1-6-5.3-8.7c-5.4-2.7-4.7-11.3-3.4-12.9c1.3-1.7,1.3-7.4,4.9-7.2
	c3.5,0.2,6.5-2.2,12.8-2.3c0.5,0,1.1-0.1,1.6-0.3l6.6-2.1c3.4-1.1,4.9-5.2,2.9-8.2c-3.9-6-6.7-11.1-6.6-12.1
	c0.4-2.7,8.2,0.5,8.3-4.2c0.2-4.7,3.1-6.1,5.3-7.4c2.2-1.3,0.9-3.4,3.4-3.4c6.7,0.9,2,0.7,11.2,2.3c9,1.6,10.3,12.2,10.2,18.9
	c0,0.3,0,0.6,0.1,0.9c0.2,1.7,1.1,7.8,1.9,13.3c0.2,1.7,1.2,3.2,2.7,4c0,0,0,0,0.1,0c2.2,1.2,4.9,0.8,6.7-1
	c8.8-9.1,20.7-18.3,30.4-11.9c0.2,0.1,0.4,0.3,0.5,0.4C228.3,245.4,225.1,252.2,224.9,253.5z"/>
<path class="st17" d="M211.7,300.2c0,2.2-5.4,8-9.6,5.1c-4.2-2.9-4.5-0.5-9.7-2.4c-12.6-3.1-19.5-21.4-20.6-27.5
	c0,0-0.4-2.9-0.6-5.9c-0.2,0-0.4,0.1-0.6,0.1c-0.7,9.7-5.9,36.4-17.9,39.5c-13.8,3.6-9.8-3.3-13.8-3c-4,0.3-5.8,0.8-8-0.8
	c-2.2-1.6-3.4-2.4-5.4-6.3c-2-4-0.2-10.7,1.6-13.8c1.7-3,13.8-17,35.1-20.5c0-0.1,0-0.1,0-0.1c-24,1.4-36.3-12.9-39.8-19.4
	c-0.3-0.5,0.2-1.1,0.8-0.8c0,0,0,0,0,0c0.5,0.2,1-0.3,0.8-0.8c-5.3-14,7-23.1,19.6-20.7c9.4,1.8,18.2,17.4,22.7,27.7
	c0.7,2,1.4,3.8,2.1,5.3c0.3,0.6,0.6,1.2,0.9,1.7c0.3-11.6,4.4-42,26.9-42.5c4.9,0,6.9,6.4,10.3,7.4c3.4,0.9,7.8,4.7,6,12
	c-1.7,6.9-20.7,24-37.4,29.2c-0.3,0.1-0.6,0.2-0.8,0.2c0.3,0.2,0.6,0.4,0.9,0.7c3.1,2.2,8.3,5.6,20.4,6.3
	c16.3,0.9,21,12.3,21.7,19.9C218.2,298.3,211.7,298,211.7,300.2z"/>
<path class="st2" d="M175.4,264.6c-0.3-0.2-0.7-0.5-0.9-0.7c0.3-0.1,0.6-0.2,0.8-0.2C175.3,264,175.3,264.3,175.4,264.6z"/>
<path class="st2" d="M121.7,243.1c0,0.1,0.1,0.2,0.1,0.4C121.7,243.4,121.7,243.3,121.7,243.1z"/>
<path class="st2" d="M168.5,255.9c-0.7-1.5-1.3-3.3-2.1-5.3C167.3,252.6,168,254.4,168.5,255.9z"/>
<path class="st3" d="M158.6,272.3c-0.2,0.2-0.4,0.4-0.6,0.6c-0.1,0-0.1-0.1-0.2-0.2C158,272.5,158.3,272.4,158.6,272.3z"/>
<path class="st18" d="M164.6,253.2c-0.3,2.1-0.6,4-2,2.6s-3-2.6-3-2.6s2.5,3.2,1.9,4c-0.6,0.8-2.2-1.5-1.9,0.6
	c0.3,2.2,1.1,1.9-1.8,1.2c-3-0.6,2.9,1.1,1.8,2.2c-1.1,1.1-3.7,3.4-7.3,1.4c5.3,2,4.4,3.3,6.3,2.8c1.9-0.4-1.9,2.2-1.9,2.2
	s2,0.6,3,0c0.9-0.6-0.5,3-1,3.1c-0.5,0.2,2.6,0,2.6,0s-1.1,4.1-2.6,4.2c3.5-0.6,3.2-2.5,4.5-2.1c1.2,0.4-1.7,3.4-0.2,3.4
	s-0.5-3.7,1.4-3c1.9,0.8,0.4,5.3,2.2,5.5c-0.3-0.6-0.6-3.6,1-3.9c1.6-0.3,2.7,1.4,3.2,2.5c0.5,1.1-0.2-2.2,0.4-3.1s0.9,2,1.7,2
	s-0.4-1.5,0.3-1.5c0.8,0,1.6,1.5,2.6,1.4c1-0.1-2.2-2.7-0.5-3.6c1.7-0.9,4.2,3.5,5.5,3.2c1.3-0.3-2.3-1.6-2.9-3.9
	c-0.6-2.3,1.4-0.2,2.8-0.4c1.4-0.2,0.9-0.8-0.7-1.5c-1.6-0.7-1.6-2.9,4.1-2.8c5.7,0.1,9.9-0.6,7-0.9c-2.9-0.3-7.5,0.6-9.4-0.4
	c-2-1,9.6-2.6,10.4-3.4c0.7-0.7-10.7,2.4-11.7,1.7s1.1-1.3,1.5-1.7c0.4-0.4-0.7,0.9-2,0c-1.4-0.9,1.6-6.3,4-7.1
	c2.4-0.8-0.3-0.4-1.2-0.3c-0.9,0.2-3.9,3.7-5.3,2.7s0.1-0.7-0.1-1.4c-0.2-0.7-0.7,2.1-1.8,0.9s0.5-2.6,0.5-2.6s-1.1,1.7-2,1.6
	c-0.9-0.2-0.3-3-0.3-3.3c0-0.3-0.5,3.3-1.4,3.1c-1-0.2-1.4-1.2-1.6-2.7c-0.2-1.5,0.5,2.2-0.5,2.2c-1,0-1.3-2.4-1.9-3.1
	c-0.7-0.7,0.7,3.8-0.3,3.4c-1-0.4-1.9-2.2-2.1-2.6s0.8,2.5,0.1,2.1C165.1,255.2,164.6,253.2,164.6,253.2z"/>
<path class="st12" d="M166,258.9c-2.2,0.7-3.4,0.3-3.6,1.3s-1.4,2.3-1.2,3.1c0.2,0.8-0.5,3.6,0.4,4c0.9,0.5,0.5,2.2,1.5,2.3
	c1.1,0.1,1.2,2.3,3.5,2.4c2.3,0.1,3.6,1.3,5.1,0.7c1.5-0.7,3.9-2.1,4-3.1c0.1-1,0.2-1.4,0.9-2c0.7-0.6,0.9-3.4,0.6-3.7
	c-0.3-0.2,0.5-2.6-1.6-3.3s-2.6-2.5-3.6-2.5s-1.7,0.2-3.3,0.3C167.1,258.4,166,258.9,166,258.9z"/>
<g>
	<path class="st19" d="M24.5,110.5c2.7-5.4,5-20.7-3.3-19.6C13,92,23.7,112.1,24.5,110.5z"/>
	<path d="M40.2,104.3c-1.2,1.3,0.2,7.7,4.7,6.8S43.1,101.2,40.2,104.3z"/>
	<path class="st20" d="M37.4,119c-0.8,0.8-1.8,1.4-2.8,2.1c-1,0.6-2.1,1.2-3.3,1.7c-2.2,0.9-4.5,1.6-6.9,1.9c-1.3,0.2-2.7,0.4-4,0.4
		c-1,0.1-2.1,0.1-3.1,0c-0.7,0-1.5-0.1-2.2-0.2c-1.2-0.1-2.4-0.3-3.5-0.6c-1.7-0.4-3.3-0.9-4.8-1.6c0.4-2,1.4-3.8,2.7-5.4
		c0.6-0.7,1.2-1.4,1.9-2c0,0,0,0,0,0c0.9-0.8,2-1.6,3-2.3c0.9-0.6,1.9-1.1,2.9-1.6c1.1-0.5,2.3-1,3.4-1.4c1.6-0.5,3.1-0.9,4.6-1.1
		c1-0.2,2.1-0.3,3-0.3c2.1-0.1,3.9,0.2,5.2,0.9C33.5,109.7,41.2,115.9,37.4,119z"/>
	<path class="st21" d="M15,125c-1.2-0.1-2.4-0.3-3.5-0.6c-1.8-2.5-2.1-4.7-2.1-7c0.6-0.7,1.2-1.4,1.9-2C12,120.6,13.7,123.4,15,125z
		"/>
	<path class="st21" d="M37.4,119c-0.8,0.8-1.8,1.4-2.8,2.1c-5.7-3.5-6.4-8.9-6.2-12.3c2.1-0.1,3.9,0.2,5.2,0.9
		C33.5,109.7,41.2,115.9,37.4,119z"/>
	<circle class="st20" cx="38.4" cy="110.6" r="7.5"/>
	<path class="st21" d="M31.3,122.8c-2.2,0.9-4.5,1.6-6.9,1.9c-2.2-2.5-4.8-7.1-3.6-14.5c1.6-0.5,3.1-0.9,4.6-1.1
		C24.8,112.6,24,117.9,31.3,122.8z"/>
	<path class="st21" d="M20.3,125.1c-1,0.1-2.1,0.1-3.1,0c-1.5-1.9-3.8-6.1-2.9-12c0.9-0.6,1.9-1.1,2.9-1.6
		C17,115,16.7,119.9,20.3,125.1z"/>
	<path d="M36.4,106.7c-1.2,1.3,0.2,7.7,4.7,6.8C45.7,112.5,39.3,103.6,36.4,106.7z"/>
	<path class="st22" d="M23.8,112c-0.7-6-7.1-20.1-13.4-14.6S24.1,113.8,23.8,112z"/>
	<g>
		<path d="M38.4,103.1c-0.2-1.2-0.1-2.5,0-3.7c0.1-1.2,0.3-2.4,0.6-3.7c0.3-1.2,0.7-2.4,1.3-3.5c0.3-0.6,0.6-1.1,1.1-1.6
			c0.2-0.2,0.5-0.4,0.9-0.5c0.3-0.1,0.7,0,0.9,0.2c-0.6-0.2-1.1,0.1-1.4,0.6c-0.3,0.5-0.5,1-0.8,1.6c-0.4,1.1-0.7,2.3-1,3.4
			c-0.3,1.2-0.6,2.3-0.8,3.5C38.9,100.7,38.7,101.9,38.4,103.1z"/>
	</g>
	<g>
		<path d="M36.8,104.8c-0.6-0.9-1-1.9-1.4-2.9c-0.4-1-0.7-2.1-0.9-3.1c-0.2-1.1-0.3-2.2-0.2-3.3c0-0.6,0.1-1.1,0.4-1.7
			c0.1-0.3,0.3-0.5,0.5-0.7c0.2-0.2,0.5-0.3,0.8-0.3c-0.5,0.2-0.8,0.6-0.9,1.1C35,94.5,35,95,35,95.5c0.1,1,0.2,2,0.4,3.1
			C35.9,100.6,36.4,102.7,36.8,104.8z"/>
	</g>
</g>
<g>
	<path class="st19" d="M198.1,314.7c-2.7-5.4-5-20.7,3.3-19.6C209.7,296.3,198.9,316.4,198.1,314.7z"/>
	<path d="M182.4,308.6c1.2,1.3-0.2,7.7-4.7,6.8C173.1,314.4,179.6,305.5,182.4,308.6z"/>
	<path class="st20" d="M185.3,323.3c0.8,0.8,1.8,1.4,2.8,2.1c1,0.6,2.1,1.2,3.3,1.7c2.2,0.9,4.5,1.6,6.9,1.9c1.3,0.2,2.7,0.4,4,0.4
		c1,0.1,2.1,0.1,3.1,0c0.7,0,1.5-0.1,2.2-0.2c1.2-0.1,2.4-0.3,3.5-0.6c1.7-0.4,3.3-0.9,4.8-1.6c-0.4-2-1.4-3.8-2.7-5.4
		c-0.6-0.7-1.2-1.4-1.9-2c0,0,0,0,0,0c-0.9-0.8-2-1.6-3-2.3c-0.9-0.6-1.9-1.1-2.9-1.6c-1.1-0.5-2.3-1-3.4-1.4
		c-1.6-0.5-3.1-0.9-4.6-1.1c-1-0.2-2.1-0.3-3-0.3c-2.1-0.1-3.9,0.2-5.2,0.9C189.1,314,181.4,320.2,185.3,323.3z"/>
	<path class="st21" d="M207.6,329.3c1.2-0.1,2.4-0.3,3.5-0.6c1.8-2.5,2.1-4.7,2.1-7c-0.6-0.7-1.2-1.4-1.9-2
		C210.6,324.8,209,327.7,207.6,329.3z"/>
	<path class="st21" d="M185.3,323.3c0.8,0.8,1.8,1.4,2.8,2.1c5.7-3.5,6.4-8.9,6.2-12.3c-2.1-0.1-3.9,0.2-5.2,0.9
		C189.1,314,181.4,320.2,185.3,323.3z"/>
	<circle class="st20" cx="184.2" cy="314.8" r="7.5"/>
	<path class="st21" d="M191.3,327c2.2,0.9,4.5,1.6,6.9,1.9c2.2-2.5,4.8-7.1,3.6-14.5c-1.6-0.5-3.1-0.9-4.6-1.1
		C197.8,316.9,198.7,322.1,191.3,327z"/>
	<path class="st21" d="M202.3,329.4c1,0.1,2.1,0.1,3.1,0c1.5-1.9,3.8-6.1,2.9-12c-0.9-0.6-1.9-1.1-2.9-1.6
		C205.7,319.3,205.9,324.2,202.3,329.4z"/>
	<path d="M186.2,310.9c1.2,1.3-0.2,7.7-4.7,6.8C177,316.7,183.4,307.9,186.2,310.9z"/>
	<path class="st22" d="M198.8,316.3c0.7-6,7.1-20.1,13.4-14.6C218.5,307.1,198.6,318.1,198.8,316.3z"/>
	<g>
		<path d="M184.2,307.4c-0.2-1.2-0.5-2.4-0.7-3.6c-0.3-1.2-0.5-2.4-0.8-3.5c-0.3-1.2-0.6-2.3-1-3.4c-0.2-0.6-0.4-1.1-0.8-1.6
			c-0.3-0.5-0.8-0.8-1.4-0.6c0.2-0.2,0.6-0.3,0.9-0.2c0.3,0.1,0.6,0.3,0.9,0.5c0.5,0.5,0.8,1,1.1,1.6c0.6,1.1,1,2.3,1.3,3.5
			c0.3,1.2,0.5,2.4,0.6,3.7C184.3,304.9,184.4,306.1,184.2,307.4z"/>
	</g>
	<g>
		<path d="M185.8,309.1c0.4-2.1,0.9-4.2,1.3-6.2c0.2-1,0.4-2.1,0.4-3.1c0-0.5,0-1-0.1-1.5c-0.1-0.5-0.4-0.9-0.9-1.1
			c0.3,0,0.6,0.1,0.8,0.3c0.2,0.2,0.4,0.4,0.5,0.7c0.2,0.5,0.4,1.1,0.4,1.7c0.1,1.1-0.1,2.2-0.2,3.3c-0.2,1.1-0.5,2.1-0.9,3.1
			C186.9,307.2,186.4,308.2,185.8,309.1z"/>
	</g>
</g>
<g>
	<path class="st19" d="M66.6,145.6c1.5-3.1,2.8-11.7-1.9-11C60,135.2,66.1,146.5,66.6,145.6z"/>
	<path d="M75.4,142.1c-0.7,0.7,0.1,4.4,2.7,3.8S77,140.4,75.4,142.1z"/>
	<path class="st20" d="M73.8,150.4c-0.5,0.4-1,0.8-1.6,1.2c-0.6,0.4-1.2,0.7-1.9,0.9c-1.2,0.5-2.5,0.9-3.9,1.1
		c-0.7,0.1-1.5,0.2-2.3,0.2c-0.6,0-1.2,0-1.8,0c-0.4,0-0.8,0-1.3-0.1c-0.7-0.1-1.3-0.2-2-0.3c-1-0.2-1.9-0.5-2.7-0.9
		c0.2-1.1,0.8-2.2,1.5-3.1c0.3-0.4,0.7-0.8,1.1-1.1c0,0,0,0,0,0c0.5-0.5,1.1-0.9,1.7-1.3c0.5-0.3,1.1-0.6,1.6-0.9
		c0.6-0.3,1.3-0.5,1.9-0.8c0.9-0.3,1.8-0.5,2.6-0.6c0.6-0.1,1.2-0.1,1.7-0.2c1.2,0,2.2,0.1,2.9,0.5C71.7,145.2,76,148.7,73.8,150.4z
		"/>
	<path class="st21" d="M61.2,153.8c-0.7-0.1-1.3-0.2-2-0.3c-1-1.4-1.2-2.6-1.2-4c0.3-0.4,0.7-0.8,1.1-1.1
		C59.5,151.3,60.4,152.9,61.2,153.8z"/>
	<path class="st21" d="M73.8,150.4c-0.5,0.4-1,0.8-1.6,1.2c-3.2-2-3.6-5-3.5-6.9c1.2,0,2.2,0.1,2.9,0.5
		C71.7,145.2,76,148.7,73.8,150.4z"/>
	<circle class="st20" cx="74.4" cy="145.6" r="4.2"/>
	<path class="st21" d="M70.4,152.5c-1.2,0.5-2.5,0.9-3.9,1.1c-1.2-1.4-2.7-4-2-8.2c0.9-0.3,1.8-0.5,2.6-0.6
		C66.8,146.8,66.3,149.8,70.4,152.5z"/>
	<path class="st21" d="M64.2,153.9c-0.6,0-1.2,0-1.8,0c-0.8-1.1-2.2-3.4-1.6-6.8c0.5-0.3,1.1-0.6,1.6-0.9
		C62.3,148.2,62.2,150.9,64.2,153.9z"/>
	<path d="M73.3,143.4c-0.7,0.7,0.1,4.4,2.7,3.8S74.9,141.7,73.3,143.4z"/>
	<path class="st22" d="M66.2,146.5c-0.4-3.4-4-11.4-7.6-8.3S66.3,147.5,66.2,146.5z"/>
	<g>
		<path d="M74.4,141.4c-0.2-0.7-0.2-1.4-0.2-2.1c0-0.7,0.1-1.4,0.3-2.1c0.2-0.7,0.4-1.4,0.8-2c0.2-0.3,0.4-0.6,0.7-0.9
			c0.2-0.1,0.3-0.2,0.5-0.3c0.2,0,0.4,0,0.5,0.2c-0.4-0.1-0.6,0.2-0.7,0.4c-0.2,0.3-0.3,0.6-0.4,0.9c-0.2,0.6-0.4,1.3-0.5,1.9
			l-0.5,2C74.8,140.1,74.6,140.7,74.4,141.4z"/>
	</g>
	<g>
		<path d="M73.5,142.4c-0.8-1-1.2-2.2-1.5-3.4c-0.1-0.6-0.2-1.2-0.1-1.9c0-0.3,0.1-0.7,0.3-1c0.2-0.3,0.5-0.6,0.9-0.5
			c-0.5,0.4-0.4,0.9-0.4,1.5c0.1,0.6,0.2,1.1,0.3,1.7C73.2,140,73.4,141.1,73.5,142.4z"/>
	</g>
</g>
<g>
	<path class="st19" d="M287.9,155.8c2.1-4.3,4-16.5-2.6-15.5C278.7,141.2,287.3,157.2,287.9,155.8z"/>
	<path d="M300.4,151c-0.9,1,0.1,6.1,3.8,5.4C307.7,155.6,302.6,148.5,300.4,151z"/>
	<path class="st20" d="M298.1,162.7c-0.7,0.6-1.4,1.1-2.2,1.6c-0.8,0.5-1.7,0.9-2.6,1.3c-1.7,0.7-3.6,1.2-5.5,1.5
		c-1,0.2-2.1,0.3-3.2,0.3c-0.8,0-1.6,0-2.5,0c-0.6,0-1.2-0.1-1.8-0.1c-1-0.1-1.9-0.2-2.8-0.4c-1.4-0.3-2.6-0.7-3.8-1.3
		c0.3-1.6,1.1-3,2.2-4.3c0.5-0.6,1-1.1,1.5-1.6c0,0,0,0,0,0c0.7-0.7,1.6-1.3,2.4-1.8c0.7-0.5,1.5-0.9,2.3-1.2
		c0.9-0.4,1.8-0.8,2.7-1.1c1.2-0.4,2.5-0.7,3.7-0.9c0.8-0.1,1.6-0.2,2.4-0.2c1.7,0,3.1,0.2,4.1,0.7
		C295.1,155.3,301.2,160.2,298.1,162.7z"/>
	<path class="st21" d="M280.4,167.4c-1-0.1-1.9-0.2-2.8-0.4c-1.5-2-1.7-3.7-1.7-5.6c0.5-0.6,1-1.1,1.5-1.6
		C278,163.9,279.3,166.1,280.4,167.4z"/>
	<path class="st21" d="M298.1,162.7c-0.7,0.6-1.4,1.1-2.2,1.6c-4.5-2.7-5.1-7.1-4.9-9.7c1.7,0,3.1,0.2,4.1,0.7
		C295.1,155.3,301.2,160.2,298.1,162.7z"/>
	<circle class="st20" cx="299" cy="155.9" r="5.9"/>
	<path class="st21" d="M293.3,165.6c-1.7,0.7-3.6,1.2-5.5,1.5c-1.7-2-3.8-5.7-2.9-11.5c1.2-0.4,2.5-0.7,3.7-0.9
		C288.2,157.6,287.5,161.7,293.3,165.6z"/>
	<path class="st21" d="M284.6,167.5c-0.8,0-1.6,0-2.5,0c-1.2-1.5-3-4.8-2.3-9.5c0.7-0.5,1.5-0.9,2.3-1.2
		C281.9,159.5,281.7,163.4,284.6,167.5z"/>
	<path d="M297.3,152.8c-0.9,1,0.1,6.1,3.8,5.4C304.7,157.4,299.6,150.4,297.3,152.8z"/>
	<path class="st22" d="M287.4,157.1c-0.5-4.8-5.6-16-10.6-11.6C271.7,149.8,287.5,158.5,287.4,157.1z"/>
	<g>
		<path d="M299,150c-0.2-1-0.2-2-0.1-3c0.1-1,0.2-2,0.5-2.9c0.2-1,0.6-1.9,1-2.8c0.2-0.4,0.5-0.9,0.9-1.3c0.2-0.2,0.4-0.3,0.7-0.4
			c0.3-0.1,0.6,0,0.7,0.2c-0.5-0.2-0.9,0.1-1.1,0.5c-0.2,0.4-0.4,0.8-0.6,1.2c-0.3,0.9-0.5,1.8-0.8,2.7c-0.2,0.9-0.4,1.9-0.7,2.8
			L299,150z"/>
	</g>
	<g>
		<path d="M297.7,151.4c-0.5-0.7-0.9-1.5-1.2-2.3c-0.3-0.8-0.5-1.6-0.7-2.5c-0.2-0.9-0.3-1.7-0.2-2.6c0-0.4,0.1-0.9,0.3-1.3
			c0.2-0.4,0.7-0.8,1.1-0.7c-0.4,0.2-0.6,0.5-0.6,0.9c-0.1,0.4-0.1,0.8,0,1.2c0.1,0.8,0.2,1.6,0.4,2.4
			C297,148,297.4,149.6,297.7,151.4z"/>
	</g>
</g>
</svg>
