<?xml version="1.0" encoding="utf-8"?>
<!-- Generator: Adobe Illustrator 22.1.0, SVG Export Plug-In . SVG Version: 6.00 Build 0)  -->
<svg version="1.1" id="Calque_1" xmlns="http://www.w3.org/2000/svg" xmlns:xlink="http://www.w3.org/1999/xlink" x="0px" y="0px"
	 viewBox="0 0 596.3 567.3" style="enable-background:new 0 0 596.3 567.3;" xml:space="preserve">
<style type="text/css">
	.st0{fill:#1C133D;}
	.st1{fill:#FFFFFF;}
	.st2{fill:#FCC55C;}
	.st3{fill:#DEA949;}
	.st4{fill:#C78A2A;}
	.st5{fill:#3AAA35;}
	.st6{fill:#683C11;}
	.st7{fill:#BC7E15;}
	.st8{fill:#C07711;}
	.st9{fill:#B17F4A;}
	.st10{fill:#00B7ED;}
	.st11{fill:#432918;}
	.st12{fill:#FFED00;}
	.st13{fill:#99D7F7;}
	.st14{fill:#F39200;}
	.st15{fill:#9D9D9C;}
	.st16{fill:#FFCE00;}
	.st17{fill:#F9B233;}
</style>
<path class="st0" d="M375.4,9.9c-47.9,2.1-50.9,18.4-137,43s-38.4,89.4-100,104C77,171.5-17.9,198.8,14.6,261.5
	s114.1,36.7,99.2,86.6S-10,460.8,41.8,485.6c51.8,24.7,172.1-48.7,192.3-15.5s7.8,117.5,85.1,74.5s98.7-130.7,153-92.1
	s39.3-182.3,71.8-176.3c32.5,6,64.1-64.2,27.2-97.2s-17.3-54-103.9-90S414.9,8.2,375.4,9.9z"/>
<polygon class="st1" points="200.6,306.2 198.3,302.4 194,303.3 196.9,300 194.7,296.2 198.8,298 201.7,294.6 201.3,299.1 
	205.4,300.9 201,301.8 "/>
<path class="st2" d="M346.4,403.2c0,3.3-2.2,6.4-6.2,9c0,0,0,0,0,0c-7.5,5-21,8.4-36.4,8.4c-23.5,0-42.6-7.8-42.6-17.4
	c0-0.5,0-0.9,0.1-1.4c1.1-5.8,9.3-10.9,21.1-13.7c6.3-1.5,13.6-2.4,21.4-2.4c8,0,15.5,0.9,21.9,2.5c10.7,2.6,18.4,7.1,20.3,12.4
	c0.1,0.4,0.3,0.8,0.3,1.2C346.4,402.3,346.4,402.7,346.4,403.2z"/>
<path class="st3" d="M365.7,383.4c0,7.2-7.4,13.8-19.4,18.4c-1.2,0.5-2.5,0.9-3.9,1.4c-10.6,3.5-24,5.5-38.6,5.5
	c-16.4,0-31.4-2.6-42.5-6.9c-11.9-4.6-19.4-11.1-19.4-18.4c0-1.8,0.5-3.6,1.4-5.3c2.7-5.3,9.6-10,19.1-13.5c11-4,25.5-6.5,41.4-6.5
	c15.5,0,29.6,2.3,40.4,6.1c9.6,3.4,16.6,7.9,19.6,13.1c0.3,0.4,0.5,0.9,0.7,1.3C365.3,380.3,365.7,381.8,365.7,383.4z"/>
<path class="st4" d="M382.6,360.1c0,7.1-6.7,13.6-18,18.7c-1.8,0.8-3.7,1.6-5.7,2.3c-1.5,0.6-3.1,1.1-4.8,1.6
	c-8.2,2.5-17.9,4.5-28.5,5.6c-6.7,0.7-13.7,1.1-21,1.1c-7.7,0-15.2-0.4-22.2-1.2c-15.7-1.7-29.3-5.3-39.1-10
	c-10.4-5-16.6-11.3-16.6-18.1c0-1.9,0.5-3.7,1.4-5.5c3.5-6.8,13.3-12.8,27-17.1c13.5-4.2,30.7-6.7,49.5-6.7
	c19.1,0,36.5,2.6,50.1,6.9c12.3,3.9,21.3,9.1,25.4,15.1c0.1,0.1,0.1,0.2,0.2,0.3C381.8,355.3,382.6,357.7,382.6,360.1z"/>
<path class="st5" d="M344.8,166.4c13.5,3.4,26.9-37.5-12.6-70.2c8.6,22.5-6.8,24.2-7.8,35.1S328.2,162.1,344.8,166.4z"/>
<path class="st6" d="M481,144.4c-22.5,11.3-32.8,17.4-61.4,17.4s-72.7,6.1-102.4,0c19.5,11.3,92.1,3.1,92.1,15.4
	s-146.4,54.3-177.1,54.3s-47.1-6.1-67.6-43.5c12.3,31.2,16.4,37.4,29.7,43.5c13.3,6.1,31.7,18.4,86,12.3
	c54.3-6.1,125.9-38.9,141.3-41s55.3-17.4,72.7-28.7C511.7,162.8,481,144.4,481,144.4z"/>
<path class="st7" d="M396.7,333c0,7.1-5.6,13.6-15.4,19.1c-0.4,0.2-0.8,0.4-1.2,0.7c-9.1,4.9-21.4,8.9-35.9,11.5
	c-12.6,2.3-26.8,3.6-41.9,3.6c-14.3,0-27.8-1.2-39.9-3.3c-13.5-2.3-25.2-5.8-34.3-10.1c-12.6-5.9-20.1-13.4-20.1-21.6
	c0-5,2.8-9.7,7.9-14c5.5-4.7,13.7-8.8,23.9-12.2c16.6-5.5,38.5-8.8,62.6-8.8c25.5,0,48.6,3.8,65.6,9.8c10.5,3.8,18.6,8.4,23.5,13.6
	h0C394.9,325.1,396.7,328.9,396.7,333z"/>
<path class="st8" d="M408.1,294.9c0,9.8-6.1,18.9-16.5,26.5c-0.1,0-0.1,0.1-0.1,0.1c-1.6,1.2-3.4,2.3-5.2,3.5
	c-0.1,0-0.1,0.1-0.1,0.1v0c-8.5,5.1-19.2,9.4-31.4,12.6c-14.7,3.8-31.5,6-49.4,6c-18.2,0-35.3-2.2-50.1-6.2
	c-16.4-4.3-30-10.7-39.3-18.5c-8.5-7.1-13.4-15.3-13.4-24.1c0-4.4,1.2-8.8,3.6-12.8c3.3-5.8,8.8-11.2,16.1-15.9
	c11.2-7.3,26.6-13,44.4-16.5c11.9-2.3,25-3.6,38.7-3.6c13.4,0,26.3,1.2,38,3.4c16.6,3.1,31.1,8.3,42.1,14.8c0.1,0,0.1,0.1,0.1,0.1
	c2.1,1.2,4,2.5,5.9,3.8c5.8,4.2,10.2,8.8,13,13.8C406.9,286.1,408.1,290.5,408.1,294.9z"/>
<path class="st7" d="M408.1,269.2c0,4.4-1.2,8.8-3.6,12.8c-1.6,2.9-3.8,5.6-6.5,8.2c-0.1,0.1-0.3,0.3-0.5,0.4
	c-7,6.7-17.2,12.6-29.6,17.1c-17.4,6.4-39.1,10.1-62.7,10.1c-24.9,0-47.7-4.2-65.5-11.2c-16.1-6.3-28.1-14.9-33.8-24.7
	c-2.4-4.1-3.6-8.4-3.6-12.8c0-5.9,2.2-11.6,6.4-16.9c5.1-6.6,13.2-12.5,23.4-17.4c8.6-4.1,18.7-7.5,29.9-10
	c13.1-2.9,27.8-4.5,43.2-4.5c14.7,0,28.7,1.5,41.4,4.1c9.6,2,18.4,4.7,26.1,7.9c1.6,0.7,3.2,1.4,4.8,2.1c7.7,3.6,14.2,7.7,19.1,12.3
	C404,253.6,408.1,261.2,408.1,269.2z"/>
<path class="st4" d="M396.7,247.7c0,6-4,11.6-11.1,16.5c-0.1,0-0.1,0.1-0.2,0.1c-15.9,10.9-47.2,18.4-83.1,18.4
	c-33.9,0-63.6-6.6-80.2-16.6c-6.9-4.1-11.6-8.8-13.4-13.9c-0.5-1.5-0.8-3-0.8-4.6c0-7.9,7.1-15.2,19-21c6.4-3.1,14.1-5.8,22.9-8
	c15-3.8,33.1-5.9,52.5-5.9c20.4,0,39.2,2.4,54.7,6.5c3.5,0.9,6.9,2,10.1,3.1c5.5,1.9,10.4,4.1,14.5,6.4c9.2,5.2,14.6,11.4,15.1,18.1
	C396.7,247.2,396.7,247.4,396.7,247.7z"/>
<path class="st3" d="M382.6,224.2c0,1.6-0.3,3.1-0.9,4.6c-0.8,2-2.2,3.9-4.1,5.8c-1.7,1.7-3.8,3.3-6.3,4.8
	c-6.9,4.2-16.5,7.8-28,10.2c-11.4,2.5-24.6,3.9-38.7,3.9c-13.8,0-26.8-1.4-38.1-3.7c-15.5-3.3-27.8-8.5-34.4-14.8
	c-2.7-2.6-4.5-5.4-5.1-8.2c-0.2-0.8-0.3-1.7-0.3-2.5c0-6.5,5.7-12.6,15.3-17.4c14.2-7.2,37-11.9,62.6-11.9c16,0,30.8,1.8,43.1,4.9
	c6.8,1.7,12.8,3.8,17.9,6.1C376.3,211,382.6,217.3,382.6,224.2z"/>
<path class="st2" d="M365.7,206.3c0,4.4-2.8,8.6-7.7,12.2v0c-0.3,0.2-0.7,0.5-1,0.7c-2.9,2-6.4,3.8-10.4,5.4
	c-11.1,4.4-26.2,7-42.8,7c-16.1,0-30.8-2.5-41.8-6.6c-4.8-1.8-9-3.9-12.2-6.3c-4.8-3.5-7.7-7.6-7.8-11.9c0-0.1,0-0.3,0-0.4
	c0-14,27.7-25.3,61.8-25.3c6.9,0,13.5,0.5,19.7,1.3c24.2,3.3,41.8,12.6,42.1,23.6C365.7,206.1,365.7,206.2,365.7,206.3z"/>
<path class="st9" d="M391.5,321.5c3.4,3.6,5.2,7.5,5.2,11.5c0,7.1-5.6,13.6-15.4,19.1c6.5-6.6,8-20.1,4.8-27.1v0
	c0.1,0,0.1-0.1,0.1-0.1C388.3,323.9,390,322.8,391.5,321.5z"/>
<path class="st9" d="M404.5,282.1c2.4,4.1,3.6,8.4,3.6,12.8c0,9.8-6.1,18.9-16.5,26.5c9.8-8.8,7.7-23.2,5.9-30.6
	c0.2-0.1,0.3-0.3,0.5-0.4c3.5-4,0.3-15.4-6.6-22c-1.7-1.7-3.7-3-5.9-3.8c0-0.1,0-0.1,0-0.2c0.5-6.6,0-19.6-14.3-24.9
	c1.3-2,1.8-4.4,1.5-6.9c-0.4-3.6-2.3-7.4-5.7-10.1c-2.4-2-5.4-3.3-9.1-3.8v0c2.7-4.8-1.8-11.4-10.2-18.7c-6.4-5.6-15-11.5-24.3-17.4
	c24.2,3.3,41.8,12.6,42.1,23.6c10.6,5,16.9,11.3,16.9,18.2c0,1.6-0.3,3.1-0.9,4.6c9.2,5.2,14.6,11.4,15.1,18.1
	c7.3,6.7,11.4,14.3,11.4,22.3C408.1,273.7,406.9,278,404.5,282.1z"/>
<path class="st5" d="M194.4,231.4c-27.6-4.1-51.2,14.3-51.2,66.5c21.5-19.5,76.5-37.6,64.8-60.2L194.4,231.4z"/>
<path class="st2" d="M296,312.2c0,0.3,0,0.7,0,1c0,0.8-0.1,1.7-0.2,2.5v0c-0.1,0.7-0.2,1.4-0.3,2c-0.2,0.8-0.4,1.6-0.6,2.3
	c-2.2,7.3-7.5,13.2-14.3,16c-2.9,1.2-6.1,1.9-9.4,1.9c-13.7,0-24.8-11.5-24.8-25.8c0-10.6,6.1-19.7,14.9-23.6
	c2.1-0.9,4.3-1.6,6.6-1.9c1-0.1,2-0.2,3.1-0.2c0.1,0,0.2,0,0.2,0c1,0,2,0,2.9,0.2c2.4,0.3,4.7,0.9,6.8,1.9c1.9,0.9,3.7,2,5.4,3.2
	c1.2,1,2.4,2.1,3.4,3.3c0.8,0.9,1.5,1.8,2.1,2.8c0.6,0.9,1.1,1.8,1.6,2.8c0.8,1.6,1.4,3.4,1.9,5.2c0.1,0.3,0.2,0.6,0.2,1
	c0.3,1.3,0.4,2.5,0.5,3.9C296,311.1,296,311.7,296,312.2z"/>
<path d="M296,312.2c0,0.2,0,0.4,0,0.6c-0.2,10.6-6.5,19.6-15.5,23.3c-11-4.3-16.8-11.6-17.6-23.9c-0.6-9.6,3.1-20.6,10.9-25.4
	c0.1-0.1,0.2-0.1,0.2-0.2c1.4,0.2,2.8,0.5,4.2,0.9c2.4,0.7,4.6,1.8,6.6,3.2c1.8,1.2,3.4,2.7,4.8,4.3l0.5,0.6c1,1.2,1.8,2.5,2.6,3.9
	c0.4,0.7,0.7,1.4,1,2.1c0.9,2,1.5,4.1,1.8,6.2c0,0,0,0,0,0c0.2,1.3,0.3,2.6,0.3,3.9C296,312,296,312.1,296,312.2z"/>
<path class="st9" d="M380.3,353.1c1.4,2.2,2.2,4.6,2.2,7c0,7.1-6.7,13.6-18,18.7c0.7,1.5,1.1,3.1,1.1,4.7c0,7.2-7.4,13.8-19.4,18.4
	c0.1,0.4,0.1,0.9,0.1,1.4c0,3.3-2.2,6.4-6.2,9c1.8-3.7,2.4-7.2,2.2-9c1.1-0.3,2.3-1.2,3.5-2.5c4.5-4.8,9.1-14.5,8.2-18
	c1.5-0.1,3.1-0.7,4.8-1.6s3.3-2.2,5-3.6c6.5-5.8,12.4-15.3,12.3-22C377.8,354.9,379.1,354.1,380.3,353.1z"/>
<g>
	<g>
		<path d="M190.9,402.1c0.2,0,0.3,0.1,0.5,0.1c0.1,0.1,0.2,0.2,0.2,0.3c0.1,0.2,0.3,0.5,0.3,0.7c0.1,0.3,0.1,0.5,0.2,0.8l0.1,0.4
			c-0.1,0.1-0.1,0.3-0.2,0.4c-0.1-0.1-0.2-0.2-0.3-0.3l-0.1-0.4c0-0.2-0.1-0.5-0.2-0.7c-0.1-0.2-0.2-0.4-0.3-0.6
			c-0.1-0.1-0.1-0.2-0.2-0.3L190.9,402.1z"/>
	</g>
	<g>
		<path d="M182.9,404.2c0.2,0,0.3,0.1,0.5,0.1c0.1,0.1,0.2,0.2,0.2,0.4c0.1,0.3,0.2,0.5,0.3,0.8c0.1,0.3,0.1,0.6,0.1,0.8
			c0,0.1,0,0.3,0,0.4c-0.1,0.1-0.2,0.3-0.3,0.4l-0.2-0.4c0-0.1,0-0.3,0-0.4c0-0.3,0-0.5-0.1-0.7c-0.1-0.2-0.1-0.5-0.2-0.7
			c-0.1-0.1-0.1-0.2-0.2-0.3C183,404.5,182.9,404.4,182.9,404.2z"/>
	</g>
	<g>
		<path d="M195.3,398.5c0.2-0.1,0.4-0.2,0.6-0.3c0.2,0,0.5,0,0.7,0.1c0.4,0.1,0.9,0.3,1.2,0.5c0.4,0.2,0.8,0.4,1.1,0.7
			c0.2,0.1,0.3,0.3,0.5,0.4c0.1,0.2,0.2,0.4,0.2,0.7c-0.2-0.1-0.4-0.2-0.6-0.3c-0.1-0.1-0.3-0.3-0.5-0.4c-0.3-0.3-0.7-0.5-1-0.7
			c-0.4-0.2-0.7-0.3-1.1-0.4c-0.2,0-0.4-0.1-0.6-0.1C195.7,398.6,195.5,398.6,195.3,398.5z"/>
	</g>
	<g>
		<path class="st10" d="M185.5,392.7c1.5-4.7,1.6-17.3-4.9-15.4C174,379.2,185.1,394.1,185.5,392.7z"/>
		<path d="M197.5,385.9c-0.8,1.2,1.1,6.2,4.6,4.9S199.4,383.1,197.5,385.9z"/>
		<path class="st11" d="M196.9,398.1c-0.6,0.7-1.3,1.4-2,2c-0.8,0.6-1.6,1.2-2.5,1.7c-1.6,1-3.5,1.8-5.4,2.4c-1,0.3-2.1,0.6-3.2,0.8
			c-0.8,0.2-1.7,0.3-2.5,0.4c-0.6,0.1-1.2,0.1-1.8,0.1c-1,0-1.9,0-2.9,0c-1.4-0.1-2.8-0.4-4.1-0.7c0.1-1.7,0.7-3.3,1.6-4.7
			c0.4-0.6,0.8-1.2,1.3-1.8c0,0,0,0,0,0c0.7-0.8,1.4-1.5,2.2-2.2c0.7-0.6,1.4-1.1,2.2-1.6c0.8-0.6,1.7-1.1,2.6-1.5
			c1.2-0.6,2.4-1.1,3.6-1.5c0.8-0.3,1.6-0.5,2.4-0.6c1.7-0.3,3.2-0.3,4.3,0.1C192.7,391,199.6,395.1,196.9,398.1z"/>
		<path class="st12" d="M179.5,405.5c-1,0-1.9,0-2.9,0c-1.8-1.8-2.3-3.5-2.5-5.4c0.4-0.6,0.8-1.2,1.3-1.8
			C176.6,402.3,178.3,404.4,179.5,405.5z"/>
		<path class="st12" d="M196.9,398.1c-0.6,0.7-1.3,1.4-2,2c-5-2.1-6.2-6.5-6.4-9.2c1.7-0.3,3.2-0.3,4.3,0.1
			C192.7,391,199.6,395.1,196.9,398.1z"/>
		<circle class="st11" cx="196.8" cy="391.1" r="6.1"/>
		<path class="st12" d="M192.4,401.8c-1.6,1-3.5,1.8-5.4,2.4c-2-1.7-4.8-5.2-4.6-11.2c1.2-0.6,2.4-1.1,3.6-1.5
			C186,394.4,185.9,398.7,192.4,401.8z"/>
		<path class="st12" d="M183.9,405c-0.8,0.2-1.7,0.3-2.5,0.4c-1.4-1.4-3.8-4.4-3.7-9.3c0.7-0.6,1.4-1.1,2.2-1.6
			C180,397.3,180.3,401.2,183.9,405z"/>
		<path d="M194.7,388.2c-0.8,1.2,1.1,6.2,4.6,4.9S196.6,385.4,194.7,388.2z"/>
		<path class="st13" d="M185.2,394c-1.3-4.8-8.1-15.4-12.5-10.3S185.5,395.5,185.2,394z"/>
		<g>
			<path d="M195.9,385.1c-0.3-1-0.5-2-0.5-3c-0.1-1,0-2,0-3c0.1-1,0.3-2,0.6-3c0.2-0.5,0.4-1,0.7-1.4c0.2-0.2,0.4-0.4,0.7-0.5
				c0.3-0.1,0.6-0.1,0.8,0.1c-0.5-0.1-0.9,0.3-1,0.7c-0.2,0.4-0.3,0.9-0.4,1.3c-0.2,0.9-0.3,1.9-0.4,2.9c-0.1,1-0.2,2-0.3,2.9
				C196.1,383.1,196,384.1,195.9,385.1z"/>
		</g>
		<g>
			<path d="M194.8,386.7c-0.6-0.7-1.1-1.4-1.5-2.2c-0.4-0.8-0.8-1.6-1.1-2.4c-0.3-0.8-0.5-1.7-0.6-2.6c0-0.5,0-0.9,0.2-1.4
				c0.1-0.5,0.5-0.9,1-0.9c-0.4,0.2-0.5,0.6-0.5,1c0,0.4,0.1,0.8,0.1,1.2c0.2,0.8,0.5,1.6,0.7,2.4
				C193.6,383.4,194.3,385,194.8,386.7z"/>
		</g>
	</g>
	<g>
		<path d="M193.3,398.8c0.3,0.1,0.5,0.2,0.7,0.3l0.6,0.4c0.4,0.3,0.8,0.6,1.2,0.9c0.4,0.3,0.7,0.7,1,1.2c0.1,0.2,0.3,0.5,0.3,0.7
			c0,0.3,0,0.5-0.1,0.8c-0.1-0.2-0.3-0.4-0.4-0.6c-0.1-0.2-0.2-0.4-0.3-0.6c-0.2-0.4-0.6-0.7-0.9-1.1c-0.4-0.3-0.8-0.6-1.2-0.9
			l-0.6-0.4C193.6,399.2,193.4,399,193.3,398.8z"/>
	</g>
	<g>
		<path d="M189.2,401.6c0.1,0.3,0.2,0.5,0.2,0.7c0,0.2,0,0.5,0.1,0.7c0.1,0.5,0.1,1,0.3,1.4c0.1,0.5,0.3,0.9,0.5,1.4
			c0.1,0.2,0.2,0.4,0.4,0.6c0.1,0.2,0.2,0.4,0.4,0.6c-0.3,0-0.5-0.1-0.8-0.3c-0.2-0.2-0.3-0.4-0.4-0.7c-0.2-0.5-0.4-1-0.5-1.5
			c-0.1-0.5-0.2-1-0.3-1.5c0-0.3,0-0.5-0.1-0.8C189,402.1,189.1,401.8,189.2,401.6z"/>
	</g>
	<g>
		<path d="M181.8,404.7c0.1,0.2,0.2,0.4,0.3,0.5l0.1,0.6c0,0.4,0,0.8,0.1,1.1c0.1,0.4,0.2,0.7,0.3,1c0.1,0.2,0.2,0.3,0.3,0.5
			c0,0.2,0.1,0.4,0.1,0.6c-0.2-0.1-0.4-0.2-0.5-0.4c-0.1-0.2-0.2-0.3-0.3-0.5c-0.2-0.4-0.3-0.8-0.4-1.2c-0.1-0.4-0.1-0.8-0.1-1.2
			c0-0.2,0-0.4-0.1-0.6C181.7,405.1,181.7,404.9,181.8,404.7z"/>
	</g>
	<path class="st14" d="M188.8,401c-0.8,0.5-0.7,4.7,0.7,4.5c1.4-0.2,1.2-3.9,0.6-4.2C189.7,400.9,189.6,400.4,188.8,401z"/>
	<path class="st14" d="M181.8,403.4c-0.7,0.1-1.2,3-0.8,3.6c0.4,0.6,1.6,1.1,1.8,0.2C183,406.4,183.1,403.3,181.8,403.4z"/>
</g>
<g>
	<g>
		<path d="M152.5,265c0.2,0,0.3,0.1,0.5,0.1c0.1,0.1,0.2,0.2,0.2,0.3c0.1,0.2,0.3,0.5,0.3,0.7c0.1,0.3,0.1,0.5,0.2,0.8l0.1,0.4
			c-0.1,0.1-0.1,0.3-0.2,0.4c-0.1-0.1-0.2-0.2-0.3-0.3l-0.1-0.4c0-0.2-0.1-0.5-0.2-0.7c-0.1-0.2-0.2-0.4-0.3-0.6
			c-0.1-0.1-0.1-0.2-0.2-0.3L152.5,265z"/>
	</g>
	<g>
		<path d="M144.5,267c0.2,0,0.3,0.1,0.5,0.1c0.1,0.1,0.2,0.2,0.2,0.4c0.1,0.3,0.2,0.5,0.3,0.8c0.1,0.3,0.1,0.6,0.1,0.8
			c0,0.1,0,0.3,0,0.4c-0.1,0.1-0.2,0.3-0.3,0.4l-0.2-0.4c0-0.1,0-0.3,0-0.4c0-0.3,0-0.5-0.1-0.7c-0.1-0.2-0.1-0.5-0.2-0.7
			c-0.1-0.1-0.1-0.2-0.2-0.3C144.6,267.3,144.6,267.2,144.5,267z"/>
	</g>
	<g>
		<path d="M156.9,261.4c0.2-0.1,0.4-0.2,0.6-0.3c0.2,0,0.5,0,0.7,0.1c0.4,0.1,0.9,0.3,1.2,0.5c0.4,0.2,0.8,0.4,1.1,0.7
			c0.2,0.1,0.3,0.3,0.5,0.4c0.1,0.2,0.2,0.4,0.2,0.7c-0.2-0.1-0.4-0.2-0.6-0.3c-0.1-0.1-0.3-0.3-0.5-0.4c-0.3-0.3-0.7-0.5-1-0.7
			c-0.4-0.2-0.7-0.3-1.1-0.4c-0.2,0-0.4-0.1-0.6-0.1C157.3,261.5,157.1,261.4,156.9,261.4z"/>
	</g>
	<g>
		<path class="st10" d="M147.2,255.5c1.5-4.7,1.6-17.3-4.9-15.4C135.7,242,146.7,256.9,147.2,255.5z"/>
		<path d="M159.1,248.7c-0.8,1.2,1.1,6.2,4.6,4.9C167.3,252.3,161.1,245.9,159.1,248.7z"/>
		<path class="st11" d="M158.6,260.9c-0.6,0.7-1.3,1.4-2,2c-0.8,0.6-1.6,1.2-2.5,1.7c-1.6,1-3.5,1.8-5.4,2.4c-1,0.3-2.1,0.6-3.2,0.8
			c-0.8,0.2-1.7,0.3-2.5,0.4c-0.6,0.1-1.2,0.1-1.8,0.1c-1,0-1.9,0-2.9,0c-1.4-0.1-2.8-0.4-4.1-0.7c0.1-1.7,0.7-3.3,1.6-4.7
			c0.4-0.6,0.8-1.2,1.3-1.8c0,0,0,0,0,0c0.7-0.8,1.4-1.5,2.2-2.2c0.7-0.6,1.4-1.1,2.2-1.6c0.8-0.6,1.7-1.1,2.6-1.5
			c1.2-0.6,2.4-1.1,3.6-1.5c0.8-0.3,1.6-0.5,2.4-0.6c1.7-0.3,3.2-0.3,4.3,0.1C154.4,253.9,161.3,258,158.6,260.9z"/>
		<path class="st12" d="M141.2,268.4c-1,0-1.9,0-2.9,0c-1.8-1.8-2.3-3.5-2.5-5.4c0.4-0.6,0.8-1.2,1.3-1.8
			C138.3,265.1,139.9,267.3,141.2,268.4z"/>
		<path class="st12" d="M158.6,260.9c-0.6,0.7-1.3,1.4-2,2c-5-2.1-6.2-6.5-6.4-9.2c1.7-0.3,3.2-0.3,4.3,0.1
			C154.4,253.9,161.3,258,158.6,260.9z"/>
		<circle class="st11" cx="158.4" cy="254" r="6.1"/>
		<path class="st12" d="M154.1,264.7c-1.6,1-3.5,1.8-5.4,2.4c-2-1.7-4.8-5.2-4.6-11.2c1.2-0.6,2.4-1.1,3.6-1.5
			C147.7,257.2,147.6,261.6,154.1,264.7z"/>
		<path class="st12" d="M145.5,267.9c-0.8,0.2-1.7,0.3-2.5,0.4c-1.4-1.4-3.8-4.4-3.7-9.3c0.7-0.6,1.4-1.1,2.2-1.6
			C141.6,260.1,142,264.1,145.5,267.9z"/>
		<path d="M156.3,251.1c-0.8,1.2,1.1,6.2,4.6,4.9C164.5,254.7,158.3,248.3,156.3,251.1z"/>
		<path class="st13" d="M146.8,256.9c-1.3-4.8-8.1-15.4-12.5-10.3C129.8,251.8,147.2,258.3,146.8,256.9z"/>
		<g>
			<path d="M157.6,247.9c-0.3-1-0.5-2-0.5-3c-0.1-1,0-2,0-3c0.1-1,0.3-2,0.6-3c0.2-0.5,0.4-1,0.7-1.4c0.2-0.2,0.4-0.4,0.7-0.5
				c0.3-0.1,0.6-0.1,0.8,0.1c-0.5-0.1-0.9,0.3-1,0.7c-0.2,0.4-0.3,0.9-0.4,1.3c-0.2,0.9-0.3,1.9-0.4,2.9c-0.1,1-0.2,2-0.3,2.9
				C157.7,245.9,157.6,246.9,157.6,247.9z"/>
		</g>
		<g>
			<path d="M156.4,249.5c-0.6-0.7-1.1-1.4-1.5-2.2c-0.4-0.8-0.8-1.6-1.1-2.4c-0.3-0.8-0.5-1.7-0.6-2.6c0-0.5,0-0.9,0.2-1.4
				c0.1-0.5,0.5-0.9,1-0.9c-0.4,0.2-0.5,0.6-0.5,1c0,0.4,0.1,0.8,0.1,1.2c0.2,0.8,0.5,1.6,0.7,2.4
				C155.3,246.2,155.9,247.8,156.4,249.5z"/>
		</g>
	</g>
	<g>
		<path d="M154.9,261.6c0.3,0.1,0.5,0.2,0.7,0.3l0.6,0.4c0.4,0.3,0.8,0.6,1.2,0.9c0.4,0.3,0.7,0.7,1,1.2c0.1,0.2,0.3,0.5,0.3,0.7
			c0,0.3,0,0.5-0.1,0.8c-0.1-0.2-0.3-0.4-0.4-0.6c-0.1-0.2-0.2-0.4-0.3-0.6c-0.2-0.4-0.6-0.7-0.9-1.1c-0.4-0.3-0.8-0.6-1.2-0.9
			l-0.6-0.4C155.2,262.1,155.1,261.9,154.9,261.6z"/>
	</g>
	<g>
		<path d="M150.8,264.4c0.1,0.3,0.2,0.5,0.2,0.7c0,0.2,0,0.5,0.1,0.7c0.1,0.5,0.1,1,0.3,1.4c0.1,0.5,0.3,0.9,0.5,1.4
			c0.1,0.2,0.2,0.4,0.4,0.6c0.1,0.2,0.2,0.4,0.4,0.6c-0.3,0-0.5-0.1-0.8-0.3c-0.2-0.2-0.3-0.4-0.4-0.7c-0.2-0.5-0.4-1-0.5-1.5
			c-0.1-0.5-0.2-1-0.3-1.5c0-0.3,0-0.5-0.1-0.8C150.7,264.9,150.7,264.7,150.8,264.4z"/>
	</g>
	<g>
		<path d="M143.4,267.5c0.1,0.2,0.2,0.4,0.3,0.5l0.1,0.6c0,0.4,0,0.8,0.1,1.1c0.1,0.4,0.2,0.7,0.3,1c0.1,0.2,0.2,0.3,0.3,0.5
			c0,0.2,0.1,0.4,0.1,0.6c-0.2-0.1-0.4-0.2-0.5-0.4c-0.1-0.2-0.2-0.3-0.3-0.5c-0.2-0.4-0.3-0.8-0.4-1.2c-0.1-0.4-0.1-0.8-0.1-1.2
			c0-0.2,0-0.4-0.1-0.6C143.3,267.9,143.3,267.7,143.4,267.5z"/>
	</g>
	<path class="st14" d="M150.5,263.8c-0.8,0.5-0.7,4.7,0.7,4.5c1.4-0.2,1.2-3.9,0.6-4.2C151.3,263.8,151.3,263.3,150.5,263.8z"/>
	<path class="st14" d="M143.5,266.3c-0.7,0.1-1.2,3-0.8,3.6c0.4,0.6,1.6,1.1,1.8,0.2C144.7,269.2,144.8,266.1,143.5,266.3z"/>
</g>
<g>
	<g>
		<path class="st15" d="M283.5,316.3c0.2,0.1,0.3,0.2,0.5,0.3c0.1,0.2,0.2,0.3,0.3,0.5c0.2,0.3,0.3,0.7,0.3,1.1
			c0.1,0.4,0.1,0.7,0.1,1.1l0,0.5c-0.1,0.2-0.1,0.4-0.3,0.5c-0.1-0.2-0.2-0.4-0.2-0.5l0-0.5c0-0.3,0-0.7-0.1-1
			c-0.1-0.3-0.2-0.6-0.3-1c-0.1-0.2-0.1-0.3-0.2-0.4L283.5,316.3z"/>
	</g>
	<g>
		<path class="st15" d="M272.2,317.5c0.2,0.1,0.4,0.2,0.5,0.3c0.1,0.2,0.2,0.4,0.2,0.5c0.1,0.4,0.2,0.8,0.2,1.1c0,0.4,0,0.8,0,1.1
			c0,0.2,0,0.4-0.1,0.6c-0.1,0.2-0.2,0.3-0.4,0.5l-0.1-0.6c0-0.2,0.1-0.4,0.1-0.5c0-0.4,0-0.7,0-1.1c0-0.4-0.1-0.7-0.2-1
			c-0.1-0.2-0.1-0.3-0.2-0.5C272.3,317.9,272.2,317.7,272.2,317.5z"/>
	</g>
	<g>
		<path class="st15" d="M290.3,312.2c0.3-0.1,0.6-0.2,0.9-0.2c0.3,0.1,0.6,0.2,0.9,0.3c0.6,0.2,1.1,0.5,1.6,0.9
			c0.5,0.4,1,0.7,1.4,1.2c0.2,0.2,0.4,0.4,0.6,0.7c0.1,0.3,0.2,0.6,0.3,0.9c-0.2-0.2-0.4-0.4-0.7-0.6c-0.2-0.2-0.4-0.4-0.6-0.6
			c-0.4-0.4-0.8-0.8-1.3-1.1c-0.5-0.3-1-0.6-1.5-0.8c-0.3-0.1-0.5-0.2-0.8-0.2l-0.4-0.2C290.6,312.3,290.4,312.2,290.3,312.2z"/>
	</g>
	<g>
		<path class="st10" d="M280.9,288.5c0.1,4.2-0.9,9.1-2.2,12.3c-0.2,0.5-0.4,1-0.6,1.5c-0.2,0.3-0.7-0.1-1.3-1v0c0,0,0,0-0.1-0.1
			c-1.5-2.1-3.8-6.6-5-11l0,0c-0.4-1.3-0.6-2.6-0.8-3.8c0.1,0,0.2,0,0.2,0c1,0,2,0,2.9,0.2C276.5,286.9,278.8,287.6,280.9,288.5z"/>
		<path class="st11" d="M292.6,312c-1,0.9-2,1.6-3.2,2.3c-1.2,0.7-2.4,1.3-3.7,1.9c-2.4,1-5.1,1.8-7.9,2.2c-1.5,0.3-3,0.4-4.5,0.5
			c-1.2,0.1-2.3,0.1-3.5,0c-0.8,0-1.7-0.1-2.5-0.2c-1.4-0.1-2.7-0.3-4-0.6c-1.9-0.4-3.8-1-5.4-1.8c0.5-2.3,1.6-4.3,3.1-6.1
			c0.6-0.8,1.4-1.5,2.2-2.2c0,0,0,0,0,0c1-0.9,2.2-1.8,3.4-2.6c1.1-0.7,2.2-1.2,3.3-1.8c1.3-0.6,2.6-1.1,3.9-1.5
			c1.8-0.6,3.6-1,5.3-1.3c1.2-0.2,2.3-0.3,3.4-0.3c2.4-0.1,4.4,0.3,5.9,1C288.3,301.4,297,308.5,292.6,312z"/>
		<path class="st12" d="M267.3,318.7c-1.4-0.1-2.7-0.3-4-0.6c-2.1-2.8-2.4-5.3-2.4-7.9c0.6-0.8,1.4-1.5,2.2-2.2
			C264,313.7,265.8,316.9,267.3,318.7z"/>
		<path class="st12" d="M292.6,312c-1,0.9-2,1.6-3.2,2.3c-6.5-3.9-7.2-10.1-7-13.9c2.4-0.1,4.4,0.3,5.9,1
			C288.3,301.4,297,308.5,292.6,312z"/>
		<path class="st11" d="M296,310.6c-0.7,0.2-1.4,0.3-2.1,0.3c-0.1,0-0.2,0-0.3,0c-4.5-0.1-8.2-3.9-8.2-8.4c0-0.6,0.1-1.2,0.2-1.8
			c0.5-2.4,2.1-4.4,4.1-5.6c0.8,0.9,1.5,1.8,2.1,2.8c0.6,0.9,1.1,1.8,1.6,2.8c0.8,1.6,1.4,3.4,1.9,5.2c0.1,0.3,0.2,0.6,0.2,1
			C295.7,307.9,295.9,309.2,296,310.6z"/>
		<path class="st12" d="M285.7,316.2c-2.4,1-5.1,1.8-7.9,2.2c-2.4-2.8-5.5-8.1-4.1-16.3c1.8-0.6,3.6-1,5.3-1.3
			C278.4,304.7,277.5,310.6,285.7,316.2z"/>
		<path class="st12" d="M273.4,318.9c-1.2,0.1-2.3,0.1-3.5,0c-1.6-2.2-4.3-6.9-3.2-13.5c1.1-0.7,2.2-1.2,3.3-1.8
			C269.5,307.4,269.3,313,273.4,318.9z"/>
		<path d="M295.2,305.7c-3.8-0.6-4.9-6.5-3.7-7.7c0.1-0.1,0.2-0.1,0.2-0.2c0.6,0.9,1.1,1.8,1.6,2.8
			C294.1,302.2,294.8,303.9,295.2,305.7z"/>
		<path class="st13" d="M277.3,304c0.1,0.5-1.5,0.1-3.7-1c-0.3-0.2-0.7-0.3-1-0.5c-5.6-3.1-13.9-9.5-11.4-13.8
			c2.1-0.9,4.3-1.6,6.6-1.9c1.4,0.7,2.7,2,3.9,3.6l0,0c2.3,3.1,4.2,7.5,5.1,11c0,0,0,0,0,0.1C277.1,302.3,277.2,303.2,277.3,304z"/>
	</g>
	<g>
		<path class="st15" d="M287.5,312.2c0.3,0.2,0.6,0.4,0.9,0.6l0.7,0.7c0.5,0.5,1,1,1.4,1.5c0.5,0.5,0.9,1.1,1.2,1.8
			c0.1,0.3,0.3,0.7,0.3,1c0,0.4,0,0.7-0.1,1.1c-0.1-0.3-0.2-0.7-0.4-1c-0.1-0.3-0.2-0.6-0.3-0.9c-0.3-0.6-0.6-1.2-1.1-1.7
			c-0.4-0.5-0.9-1-1.4-1.5l-0.7-0.7C287.9,312.8,287.7,312.5,287.5,312.2z"/>
	</g>
	<g>
		<path class="st15" d="M281.3,315.2l0.1,1.1c0,0.3-0.1,0.7-0.1,1c0,0.7,0,1.4,0.1,2c0.1,0.7,0.2,1.3,0.4,2c0.1,0.3,0.2,0.6,0.4,0.9
			c0.1,0.3,0.3,0.6,0.5,0.8c-0.4-0.1-0.7-0.3-1-0.6c-0.2-0.3-0.4-0.7-0.5-1c-0.2-0.7-0.4-1.4-0.4-2.1c-0.1-0.7-0.1-1.4-0.1-2.1
			c0-0.4,0-0.7,0.1-1.1C281.1,315.9,281.2,315.6,281.3,315.2z"/>
	</g>
	<g>
		<path class="st15" d="M270.5,318c0.1,0.3,0.2,0.5,0.3,0.8c0,0.3,0,0.5,0,0.8c0,0.5-0.1,1.1-0.1,1.6c0,0.5,0.1,1,0.2,1.5
			c0.1,0.2,0.2,0.5,0.3,0.7c0,0.3,0.1,0.5,0.1,0.8c-0.2-0.2-0.4-0.4-0.6-0.6c-0.1-0.2-0.2-0.5-0.3-0.8c-0.2-0.5-0.3-1.1-0.3-1.6
			c0-0.6,0.1-1.1,0.1-1.6c0-0.3,0-0.5,0-0.8C270.4,318.5,270.4,318.2,270.5,318z"/>
	</g>
	<path class="st14" d="M281,314.3c-1.2,0.6-1.8,6.3,0.1,6.3c2,0,2.4-5.1,1.7-5.7S282.2,313.7,281,314.3z"/>
	<path class="st14" d="M270.9,316.3c-0.9,0-2.2,3.9-1.8,4.8c0.4,0.9,1.9,1.8,2.4,0.6C271.9,320.5,272.7,316.3,270.9,316.3z"/>
</g>
<g>
	<g>
		<path d="M325.8,442.1c0.1,0,0.2,0.1,0.4,0.1c0,0.1,0.1,0.2,0.1,0.3c0.1,0.2,0.1,0.4,0.2,0.6c0,0.2,0.1,0.4,0.1,0.6l0,0.3
			c-0.1,0.1-0.1,0.2-0.3,0.3c-0.1-0.1-0.2-0.2-0.2-0.3l0-0.3c0-0.2,0-0.3-0.1-0.5c0-0.2-0.1-0.3-0.1-0.5c0-0.1-0.1-0.1-0.1-0.2
			L325.8,442.1z"/>
	</g>
	<g>
		<path d="M320,442.7c0.1,0,0.3,0.1,0.4,0.1c0.1,0.1,0.1,0.2,0.1,0.3c0.1,0.2,0.1,0.4,0.1,0.6c0,0.2,0,0.4,0,0.6c0,0.1,0,0.2,0,0.3
			c-0.1,0.1-0.2,0.2-0.3,0.2l-0.2-0.3c0-0.1,0-0.2,0-0.3c0-0.2,0-0.3,0-0.5c0-0.2,0-0.3-0.1-0.5c0-0.1-0.1-0.2-0.1-0.2
			C320,443,320,442.9,320,442.7z"/>
	</g>
	<g>
		<path d="M329.3,440c0.1-0.1,0.3-0.2,0.5-0.2c0.2,0,0.3,0.1,0.5,0.1c0.3,0.1,0.6,0.3,0.8,0.5c0.3,0.2,0.5,0.4,0.7,0.6
			c0.1,0.1,0.2,0.2,0.3,0.4c0,0.2,0.1,0.4,0,0.5c-0.1-0.1-0.3-0.2-0.4-0.2c-0.1-0.1-0.2-0.2-0.3-0.3c-0.2-0.2-0.4-0.4-0.6-0.6
			c-0.2-0.2-0.5-0.3-0.7-0.4c-0.1-0.1-0.3-0.1-0.4-0.1C329.6,440.2,329.4,440.1,329.3,440z"/>
	</g>
	<g>
		<path class="st10" d="M323,434.9c1.6-3.1,2.9-12-1.9-11.3C316.4,424.3,322.6,435.9,323,434.9z"/>
		<path d="M332.1,431.4c-0.7,0.7,0.1,4.5,2.7,3.9S333.8,429.6,332.1,431.4z"/>
		<path class="st11" d="M330.5,439.9c-0.5,0.4-1,0.8-1.6,1.2c-0.6,0.4-1.2,0.7-1.9,1c-1.2,0.5-2.6,0.9-4,1.1
			c-0.8,0.1-1.5,0.2-2.3,0.2c-0.6,0-1.2,0-1.8,0c-0.4,0-0.9,0-1.3-0.1c-0.7-0.1-1.4-0.2-2-0.3c-1-0.2-1.9-0.5-2.8-0.9
			c0.3-1.2,0.8-2.2,1.6-3.1c0.3-0.4,0.7-0.8,1.1-1.1c0,0,0,0,0,0c0.5-0.5,1.1-0.9,1.8-1.3c0.5-0.3,1.1-0.6,1.7-0.9
			c0.6-0.3,1.3-0.6,2-0.8c0.9-0.3,1.8-0.5,2.7-0.7c0.6-0.1,1.2-0.2,1.7-0.2c1.2,0,2.3,0.1,3,0.5
			C328.2,434.5,332.7,438.1,330.5,439.9z"/>
		<path class="st12" d="M317.5,443.3c-0.7-0.1-1.4-0.2-2-0.3c-1.1-1.4-1.2-2.7-1.2-4.1c0.3-0.4,0.7-0.8,1.1-1.1
			C315.8,440.8,316.8,442.4,317.5,443.3z"/>
		<path class="st12" d="M330.5,439.9c-0.5,0.4-1,0.8-1.6,1.2c-3.3-2-3.7-5.2-3.6-7.1c1.2,0,2.3,0.1,3,0.5
			C328.2,434.5,332.7,438.1,330.5,439.9z"/>
		<circle class="st11" cx="331.1" cy="435" r="4.3"/>
		<path class="st12" d="M326.9,442c-1.2,0.5-2.6,0.9-4,1.1c-1.2-1.4-2.8-4.1-2.1-8.3c0.9-0.3,1.8-0.5,2.7-0.7
			C323.2,436.2,322.7,439.2,326.9,442z"/>
		<path class="st12" d="M320.6,443.4c-0.6,0-1.2,0-1.8,0c-0.8-1.1-2.2-3.5-1.6-6.9c0.5-0.3,1.1-0.6,1.7-0.9
			C318.7,437.6,318.5,440.4,320.6,443.4z"/>
		<path d="M329.9,432.8c-0.7,0.7,0.1,4.5,2.7,3.9C335.3,436.1,331.6,431,329.9,432.8z"/>
		<path class="st13" d="M322.6,435.8c-0.4-3.5-4.1-11.6-7.7-8.5S322.8,436.9,322.6,435.8z"/>
		<g>
			<path d="M331.1,430.7c-0.2-0.7-0.2-1.4-0.2-2.2c0-0.7,0.1-1.4,0.3-2.1c0.2-0.7,0.4-1.4,0.8-2c0.2-0.3,0.4-0.6,0.7-0.9
				c0.2-0.1,0.3-0.2,0.6-0.3c0.2,0,0.4,0,0.6,0.2c-0.4-0.1-0.6,0.2-0.7,0.4c-0.2,0.3-0.3,0.6-0.4,0.9c-0.2,0.6-0.4,1.3-0.5,2l-0.5,2
				C331.5,429.3,331.3,430,331.1,430.7z"/>
		</g>
		<g>
			<path d="M330.1,431.7c-0.8-1-1.2-2.2-1.5-3.4c-0.1-0.6-0.2-1.3-0.1-1.9c0-0.3,0.1-0.7,0.3-1c0.2-0.3,0.5-0.6,0.9-0.5
				c-0.6,0.4-0.4,1-0.4,1.5c0.1,0.6,0.2,1.1,0.3,1.7C329.8,429.2,330.1,430.4,330.1,431.7z"/>
		</g>
	</g>
	<g>
		<path d="M327.9,440c0.2,0.1,0.4,0.1,0.5,0.2l0.4,0.4c0.3,0.2,0.5,0.5,0.7,0.8c0.2,0.3,0.5,0.6,0.6,0.9c0.1,0.2,0.1,0.4,0.2,0.6
			c0,0.2-0.1,0.4-0.2,0.6c-0.1-0.2-0.2-0.3-0.3-0.5c0-0.2-0.1-0.3-0.1-0.5c-0.1-0.3-0.3-0.6-0.5-0.8c-0.2-0.3-0.5-0.5-0.7-0.7
			l-0.4-0.4C328,440.4,327.9,440.2,327.9,440z"/>
	</g>
	<g>
		<path d="M324.7,441.6c0.1,0.2,0.1,0.4,0.2,0.6c0,0.2,0,0.3,0,0.5c0,0.3,0,0.7,0,1c0,0.3,0.1,0.7,0.2,1c0.1,0.2,0.1,0.3,0.2,0.4
			c0,0.2,0.1,0.3,0.2,0.5c-0.2,0-0.4-0.1-0.6-0.2c-0.1-0.2-0.2-0.4-0.3-0.5c-0.1-0.4-0.2-0.7-0.2-1.1c0-0.4,0-0.7,0-1.1
			c0-0.2,0-0.4,0-0.5C324.5,441.9,324.6,441.7,324.7,441.6z"/>
	</g>
	<g>
		<path d="M319.2,443c0.1,0.1,0.2,0.3,0.3,0.4l0,0.4c0,0.3-0.1,0.5,0,0.8c0,0.2,0,0.5,0.1,0.7c0,0.1,0.1,0.2,0.1,0.4
			c0,0.2,0,0.3-0.1,0.5c-0.1-0.1-0.3-0.2-0.4-0.3c-0.1-0.1-0.1-0.3-0.2-0.4c-0.1-0.3-0.1-0.6-0.1-0.9c0-0.3,0-0.6,0.1-0.8
			c0-0.1,0-0.3,0-0.4C319,443.2,319.1,443.1,319.2,443z"/>
	</g>
	<path class="st14" d="M324.5,441.1c-0.6,0.3-0.9,3.2,0.1,3.2c1,0,1.2-2.6,0.9-2.9C325.1,441.1,325.1,440.8,324.5,441.1z"/>
	<path class="st14" d="M319.4,442.1c-0.5,0-1.1,2-0.9,2.5c0.2,0.5,1,0.9,1.2,0.3S320.3,442.1,319.4,442.1z"/>
</g>
<g>
	<g>
		<path d="M290.3,467.8l0.1,0.4c0,0.1-0.1,0.1-0.1,0.2c-0.1,0.1-0.1,0.3-0.1,0.5c0,0.2,0,0.3-0.1,0.5l0,0.3
			c-0.1,0.1-0.1,0.2-0.2,0.3c-0.1-0.1-0.2-0.2-0.3-0.3l0-0.3c0-0.2,0-0.4,0.1-0.6c0-0.2,0.1-0.4,0.2-0.6c0-0.1,0.1-0.2,0.1-0.3
			C290.1,467.8,290.2,467.8,290.3,467.8z"/>
	</g>
	<g>
		<path d="M296.1,468.4c0,0.1,0,0.2,0.1,0.4c0,0.1-0.1,0.1-0.1,0.2c-0.1,0.2-0.1,0.3-0.1,0.5c0,0.2,0,0.3,0,0.5c0,0.1,0,0.2,0,0.3
			l-0.2,0.3c-0.1-0.1-0.2-0.1-0.3-0.2c0-0.1,0-0.2,0-0.3c0-0.2,0-0.4,0-0.6c0-0.2,0.1-0.4,0.1-0.6c0-0.1,0.1-0.2,0.1-0.3
			C295.8,468.5,296,468.4,296.1,468.4z"/>
	</g>
	<g>
		<path d="M286.9,465.7c-0.2,0.1-0.3,0.2-0.4,0.3c-0.1,0-0.3,0.1-0.4,0.1c-0.3,0.1-0.5,0.2-0.7,0.4c-0.2,0.2-0.5,0.4-0.6,0.6
			c-0.1,0.1-0.2,0.2-0.3,0.3c-0.1,0.1-0.3,0.1-0.4,0.2c0-0.2,0-0.4,0-0.5c0.1-0.1,0.2-0.2,0.3-0.4c0.2-0.2,0.5-0.4,0.7-0.6
			c0.3-0.2,0.5-0.3,0.8-0.5c0.2-0.1,0.3-0.1,0.5-0.1C286.5,465.5,286.7,465.6,286.9,465.7z"/>
	</g>
	<g>
		<path class="st10" d="M293.1,460.6c-1.6-3.1-2.9-12,1.9-11.3S293.5,461.6,293.1,460.6z"/>
		<path d="M284,457.1c0.7,0.7-0.1,4.5-2.7,3.9S282.4,455.3,284,457.1z"/>
		<path class="st11" d="M285.7,465.6c0.5,0.4,1,0.8,1.6,1.2c0.6,0.4,1.2,0.7,1.9,1c1.2,0.5,2.6,0.9,4,1.1c0.8,0.1,1.5,0.2,2.3,0.2
			c0.6,0,1.2,0,1.8,0c0.4,0,0.9,0,1.3-0.1c0.7-0.1,1.4-0.2,2-0.3c1-0.2,1.9-0.5,2.8-0.9c-0.3-1.2-0.8-2.2-1.6-3.1
			c-0.3-0.4-0.7-0.8-1.1-1.1c0,0,0,0,0,0c-0.5-0.5-1.1-0.9-1.8-1.3c-0.5-0.3-1.1-0.6-1.7-0.9c-0.6-0.3-1.3-0.6-2-0.8
			c-0.9-0.3-1.8-0.5-2.7-0.7c-0.6-0.1-1.2-0.2-1.7-0.2c-1.2,0-2.3,0.1-3,0.5C287.9,460.2,283.4,463.8,285.7,465.6z"/>
		<path class="st12" d="M298.6,469c0.7-0.1,1.4-0.2,2-0.3c1.1-1.4,1.2-2.7,1.2-4.1c-0.3-0.4-0.7-0.8-1.1-1.1
			C300.3,466.4,299.3,468.1,298.6,469z"/>
		<path class="st12" d="M285.7,465.6c0.5,0.4,1,0.8,1.6,1.2c3.3-2,3.7-5.2,3.6-7.1c-1.2,0-2.3,0.1-3,0.5
			C287.9,460.2,283.4,463.8,285.7,465.6z"/>
		<circle class="st11" cx="285" cy="460.7" r="4.3"/>
		<path class="st12" d="M289.2,467.7c1.2,0.5,2.6,0.9,4,1.1c1.2-1.4,2.8-4.1,2.1-8.3c-0.9-0.3-1.8-0.5-2.7-0.7
			C292.9,461.9,293.4,464.9,289.2,467.7z"/>
		<path class="st12" d="M295.5,469.1c0.6,0,1.2,0,1.8,0c0.8-1.1,2.2-3.5,1.6-6.9c-0.5-0.3-1.1-0.6-1.7-0.9
			C297.4,463.3,297.6,466.1,295.5,469.1z"/>
		<path d="M286.2,458.4c0.7,0.7-0.1,4.5-2.7,3.9S284.6,456.7,286.2,458.4z"/>
		<path class="st13" d="M293.5,461.5c0.4-3.5,4.1-11.6,7.7-8.5C304.8,456.2,293.3,462.6,293.5,461.5z"/>
		<g>
			<path d="M285,456.4c-0.2-0.7-0.4-1.4-0.6-2l-0.5-2c-0.2-0.7-0.3-1.3-0.5-2c-0.1-0.3-0.2-0.6-0.4-0.9c-0.1-0.3-0.4-0.5-0.7-0.4
				c0.1-0.1,0.3-0.2,0.6-0.2c0.2,0,0.4,0.2,0.6,0.3c0.3,0.3,0.5,0.6,0.7,0.9c0.4,0.7,0.6,1.3,0.8,2c0.2,0.7,0.3,1.4,0.3,2.1
				C285.3,454.9,285.2,455.6,285,456.4z"/>
		</g>
		<g>
			<path d="M286,457.4c0.1-1.3,0.3-2.5,0.5-3.6c0.1-0.6,0.2-1.2,0.3-1.7c0-0.6,0.2-1.1-0.4-1.5c0.3-0.1,0.7,0.2,0.9,0.5
				c0.2,0.3,0.3,0.7,0.3,1c0.1,0.7,0,1.3-0.1,1.9C287.2,455.2,286.8,456.3,286,457.4z"/>
		</g>
	</g>
	<g>
		<path d="M288.3,465.7c0,0.2-0.1,0.4-0.2,0.6l-0.4,0.4c-0.3,0.2-0.5,0.5-0.7,0.7c-0.2,0.3-0.4,0.5-0.5,0.8
			c-0.1,0.1-0.1,0.3-0.1,0.5c-0.1,0.1-0.2,0.3-0.3,0.5c-0.1-0.2-0.1-0.4-0.2-0.6c0-0.2,0.1-0.4,0.2-0.6c0.2-0.4,0.4-0.7,0.6-0.9
			c0.2-0.3,0.5-0.5,0.7-0.8l0.4-0.4C287.9,465.8,288.1,465.7,288.3,465.7z"/>
	</g>
	<g>
		<path d="M291.4,467.2c0.1,0.2,0.2,0.3,0.3,0.5c0,0.2,0,0.4,0,0.5c0,0.4,0,0.7,0,1.1c0,0.4-0.1,0.7-0.2,1.1
			c-0.1,0.2-0.1,0.4-0.3,0.5c-0.2,0.1-0.4,0.2-0.6,0.2c0.1-0.2,0.2-0.3,0.2-0.5c0.1-0.1,0.1-0.3,0.2-0.4c0.1-0.3,0.2-0.6,0.2-1
			c0-0.3,0-0.7,0-1c0-0.2,0-0.3,0-0.5C291.3,467.6,291.3,467.4,291.4,467.2z"/>
	</g>
	<g>
		<path d="M296.9,468.6c0.1,0.1,0.2,0.3,0.3,0.4c0,0.1,0,0.3,0,0.4c0,0.3,0.1,0.5,0.1,0.8c0,0.3-0.1,0.6-0.1,0.9
			c0,0.1-0.1,0.3-0.2,0.4c-0.1,0.1-0.3,0.2-0.4,0.3c0-0.2,0-0.3-0.1-0.5c0.1-0.1,0.1-0.2,0.1-0.4c0.1-0.2,0.1-0.5,0.1-0.7
			c0-0.2,0-0.5,0-0.8l0-0.4C296.8,468.9,296.8,468.8,296.9,468.6z"/>
	</g>
	<path class="st14" d="M291.6,466.8c0.6,0.3,0.9,3.2-0.1,3.2c-1,0-1.2-2.6-0.9-2.9C291,466.8,291,466.5,291.6,466.8z"/>
	<path class="st14" d="M296.8,467.8c0.5,0,1.1,2,0.9,2.5c-0.2,0.5-1,0.9-1.2,0.3C296.2,470,295.8,467.8,296.8,467.8z"/>
</g>
<g>
	<g>
		<path d="M320.3,146.6l0.1,0.4c0,0.1-0.1,0.1-0.1,0.2c-0.1,0.1-0.1,0.3-0.1,0.5c0,0.2,0,0.3-0.1,0.5l0,0.3
			c-0.1,0.1-0.1,0.2-0.2,0.3c-0.1-0.1-0.2-0.2-0.3-0.3l0-0.3c0-0.2,0-0.4,0.1-0.6c0-0.2,0.1-0.4,0.2-0.6c0-0.1,0.1-0.2,0.1-0.3
			C320.1,146.7,320.2,146.6,320.3,146.6z"/>
	</g>
	<g>
		<path d="M326.1,147.2c0,0.1,0,0.2,0.1,0.4c0,0.1-0.1,0.1-0.1,0.2c-0.1,0.2-0.1,0.3-0.1,0.5c0,0.2,0,0.3,0,0.5c0,0.1,0,0.2,0,0.3
			l-0.2,0.3c-0.1-0.1-0.2-0.1-0.3-0.2c0-0.1,0-0.2,0-0.3c0-0.2,0-0.4,0-0.6c0-0.2,0.1-0.4,0.1-0.6c0-0.1,0.1-0.2,0.1-0.3
			C325.9,147.3,326,147.2,326.1,147.2z"/>
	</g>
	<g>
		<path d="M316.9,144.5c-0.2,0.1-0.3,0.2-0.4,0.3c-0.1,0-0.3,0.1-0.4,0.1c-0.3,0.1-0.5,0.2-0.7,0.4c-0.2,0.2-0.5,0.4-0.6,0.6
			c-0.1,0.1-0.2,0.2-0.3,0.3c-0.1,0.1-0.3,0.1-0.4,0.2c0-0.2,0-0.4,0-0.5c0.1-0.1,0.2-0.2,0.3-0.4c0.2-0.2,0.5-0.4,0.7-0.6
			c0.3-0.2,0.5-0.3,0.8-0.5c0.2-0.1,0.3-0.1,0.5-0.1C316.6,144.4,316.8,144.4,316.9,144.5z"/>
	</g>
	<g>
		<path class="st10" d="M323.1,139.5c-1.6-3.1-2.9-12,1.9-11.3C329.8,128.8,323.6,140.4,323.1,139.5z"/>
		<path d="M314.1,135.9c0.7,0.7-0.1,4.5-2.7,3.9S312.4,134.1,314.1,135.9z"/>
		<path class="st11" d="M315.7,144.4c0.5,0.4,1,0.8,1.6,1.2c0.6,0.4,1.2,0.7,1.9,1c1.2,0.5,2.6,0.9,4,1.1c0.8,0.1,1.5,0.2,2.3,0.2
			c0.6,0,1.2,0,1.8,0c0.4,0,0.9,0,1.3-0.1c0.7-0.1,1.4-0.2,2-0.3c1-0.2,1.9-0.5,2.8-0.9c-0.3-1.2-0.8-2.2-1.6-3.1
			c-0.3-0.4-0.7-0.8-1.1-1.1c0,0,0,0,0,0c-0.5-0.5-1.1-0.9-1.8-1.3c-0.5-0.3-1.1-0.6-1.7-0.9c-0.6-0.3-1.3-0.6-2-0.8
			c-0.9-0.3-1.8-0.5-2.7-0.7c-0.6-0.1-1.2-0.2-1.7-0.2c-1.2,0-2.3,0.1-3,0.5C317.9,139,313.5,142.6,315.7,144.4z"/>
		<path class="st12" d="M328.6,147.8c0.7-0.1,1.4-0.2,2-0.3c1.1-1.4,1.2-2.7,1.2-4.1c-0.3-0.4-0.7-0.8-1.1-1.1
			C330.3,145.3,329.4,146.9,328.6,147.8z"/>
		<path class="st12" d="M315.7,144.4c0.5,0.4,1,0.8,1.6,1.2c3.3-2,3.7-5.2,3.6-7.1c-1.2,0-2.3,0.1-3,0.5
			C317.9,139,313.5,142.6,315.7,144.4z"/>
		<circle class="st11" cx="315.1" cy="139.5" r="4.3"/>
		<path class="st12" d="M319.2,146.6c1.2,0.5,2.6,0.9,4,1.1c1.2-1.4,2.8-4.1,2.1-8.3c-0.9-0.3-1.8-0.5-2.7-0.7
			C322.9,140.7,323.4,143.7,319.2,146.6z"/>
		<path class="st12" d="M325.5,147.9c0.6,0,1.2,0,1.8,0c0.8-1.1,2.2-3.5,1.6-6.9c-0.5-0.3-1.1-0.6-1.7-0.9
			C327.5,142.1,327.6,144.9,325.5,147.9z"/>
		<path d="M316.3,137.3c0.7,0.7-0.1,4.5-2.7,3.9C310.9,140.6,314.6,135.5,316.3,137.3z"/>
		<path class="st13" d="M323.5,140.3c0.4-3.5,4.1-11.6,7.7-8.5C334.9,135,323.4,141.4,323.5,140.3z"/>
		<g>
			<path d="M315.1,135.2c-0.2-0.7-0.4-1.4-0.6-2l-0.5-2c-0.2-0.7-0.3-1.3-0.5-2c-0.1-0.3-0.2-0.6-0.4-0.9c-0.1-0.3-0.4-0.5-0.7-0.4
				c0.1-0.1,0.3-0.2,0.6-0.2c0.2,0,0.4,0.2,0.6,0.3c0.3,0.3,0.5,0.6,0.7,0.9c0.4,0.7,0.6,1.3,0.8,2c0.2,0.7,0.3,1.4,0.3,2.1
				C315.3,133.7,315.3,134.5,315.1,135.2z"/>
		</g>
		<g>
			<path d="M316,136.2c0.1-1.3,0.3-2.5,0.5-3.6c0.1-0.6,0.2-1.2,0.3-1.7c0-0.6,0.2-1.1-0.4-1.5c0.3-0.1,0.7,0.2,0.9,0.5
				c0.2,0.3,0.3,0.7,0.3,1c0.1,0.7,0,1.3-0.1,1.9C317.3,134,316.8,135.2,316,136.2z"/>
		</g>
	</g>
	<g>
		<path d="M318.3,144.5c0,0.2-0.1,0.4-0.2,0.6l-0.4,0.4c-0.3,0.2-0.5,0.5-0.7,0.7c-0.2,0.3-0.4,0.5-0.5,0.8
			c-0.1,0.1-0.1,0.3-0.1,0.5c-0.1,0.1-0.2,0.3-0.3,0.5c-0.1-0.2-0.1-0.4-0.2-0.6c0-0.2,0.1-0.4,0.2-0.6c0.2-0.4,0.4-0.7,0.6-0.9
			c0.2-0.3,0.5-0.5,0.7-0.8l0.4-0.4C317.9,144.7,318.1,144.6,318.3,144.5z"/>
	</g>
	<g>
		<path d="M321.5,146.1c0.1,0.2,0.2,0.3,0.3,0.5c0,0.2,0,0.4,0,0.5c0,0.4,0,0.7,0,1.1c0,0.4-0.1,0.7-0.2,1.1
			c-0.1,0.2-0.1,0.4-0.3,0.5c-0.2,0.1-0.4,0.2-0.6,0.2c0.1-0.2,0.2-0.3,0.2-0.5c0.1-0.1,0.1-0.3,0.2-0.4c0.1-0.3,0.2-0.6,0.2-1
			c0-0.3,0-0.7,0-1c0-0.2,0-0.3,0-0.5C321.4,146.4,321.4,146.3,321.5,146.1z"/>
	</g>
	<g>
		<path d="M327,147.5c0.1,0.1,0.2,0.3,0.3,0.4c0,0.1,0,0.3,0,0.4c0,0.3,0.1,0.5,0.1,0.8c0,0.3-0.1,0.6-0.1,0.9
			c0,0.1-0.1,0.3-0.2,0.4c-0.1,0.1-0.3,0.2-0.4,0.3c0-0.2,0-0.3-0.1-0.5c0.1-0.1,0.1-0.2,0.1-0.4c0.1-0.2,0.1-0.5,0.1-0.7
			c0-0.2,0-0.5,0-0.8l0-0.4C326.8,147.7,326.9,147.6,327,147.5z"/>
	</g>
	<path class="st14" d="M321.6,145.6c0.6,0.3,0.9,3.2-0.1,3.2c-1,0-1.2-2.6-0.9-2.9C321.1,145.6,321,145.3,321.6,145.6z"/>
	<path class="st14" d="M326.8,146.6c0.5,0,1.1,2,0.9,2.5c-0.2,0.5-1,0.9-1.2,0.3C326.3,148.8,325.9,146.6,326.8,146.6z"/>
</g>
<g>
	<g>
		<path d="M163.2,345.4l0.1,0.4c0,0.1-0.1,0.1-0.1,0.2c-0.1,0.1-0.1,0.3-0.1,0.5c0,0.2,0,0.3-0.1,0.5l0,0.3
			c-0.1,0.1-0.1,0.2-0.2,0.3c-0.1-0.1-0.2-0.2-0.3-0.3l0-0.3c0-0.2,0-0.4,0.1-0.6c0-0.2,0.1-0.4,0.2-0.6c0-0.1,0.1-0.2,0.1-0.3
			C163,345.5,163.1,345.4,163.2,345.4z"/>
	</g>
	<g>
		<path d="M169,346c0,0.1,0,0.2,0.1,0.4c0,0.1-0.1,0.1-0.1,0.2c-0.1,0.2-0.1,0.3-0.1,0.5c0,0.2,0,0.3,0,0.5c0,0.1,0,0.2,0,0.3
			l-0.2,0.3c-0.1-0.1-0.2-0.1-0.3-0.2c0-0.1,0-0.2,0-0.3c0-0.2,0-0.4,0-0.6c0-0.2,0.1-0.4,0.1-0.6c0-0.1,0.1-0.2,0.1-0.3
			C168.8,346.1,168.9,346.1,169,346z"/>
	</g>
	<g>
		<path d="M159.8,343.3c-0.2,0.1-0.3,0.2-0.4,0.3c-0.1,0-0.3,0.1-0.4,0.1c-0.3,0.1-0.5,0.2-0.7,0.4c-0.2,0.2-0.5,0.4-0.6,0.6
			c-0.1,0.1-0.2,0.2-0.3,0.3c-0.1,0.1-0.3,0.1-0.4,0.2c0-0.2,0-0.4,0-0.5c0.1-0.1,0.2-0.2,0.3-0.4c0.2-0.2,0.5-0.4,0.7-0.6
			c0.3-0.2,0.5-0.3,0.8-0.5c0.2-0.1,0.3-0.1,0.5-0.1C159.5,343.2,159.7,343.2,159.8,343.3z"/>
	</g>
	<g>
		<path class="st10" d="M166,338.3c-1.6-3.1-2.9-12,1.9-11.3S166.5,339.2,166,338.3z"/>
		<path d="M157,334.7c0.7,0.7-0.1,4.5-2.7,3.9C151.6,338,155.3,332.9,157,334.7z"/>
		<path class="st11" d="M158.6,343.2c0.5,0.4,1,0.8,1.6,1.2c0.6,0.4,1.2,0.7,1.9,1c1.2,0.5,2.6,0.9,4,1.1c0.8,0.1,1.5,0.2,2.3,0.2
			c0.6,0,1.2,0,1.8,0c0.4,0,0.9,0,1.3-0.1c0.7-0.1,1.4-0.2,2-0.3c1-0.2,1.9-0.5,2.8-0.9c-0.3-1.2-0.8-2.2-1.6-3.1
			c-0.3-0.4-0.7-0.8-1.1-1.1c0,0,0,0,0,0c-0.5-0.5-1.1-0.9-1.8-1.3c-0.5-0.3-1.1-0.6-1.7-0.9c-0.6-0.3-1.3-0.6-2-0.8
			c-0.9-0.3-1.8-0.5-2.7-0.7c-0.6-0.1-1.2-0.2-1.7-0.2c-1.2,0-2.3,0.1-3,0.5C160.8,337.8,156.4,341.4,158.6,343.2z"/>
		<path class="st12" d="M171.5,346.7c0.7-0.1,1.4-0.2,2-0.3c1.1-1.4,1.2-2.7,1.2-4.1c-0.3-0.4-0.7-0.8-1.1-1.1
			C173.2,344.1,172.3,345.7,171.5,346.7z"/>
		<path class="st12" d="M158.6,343.2c0.5,0.4,1,0.8,1.6,1.2c3.3-2,3.7-5.2,3.6-7.1c-1.2,0-2.3,0.1-3,0.5
			C160.8,337.8,156.4,341.4,158.6,343.2z"/>
		<circle class="st11" cx="158" cy="338.3" r="4.3"/>
		<path class="st12" d="M162.1,345.4c1.2,0.5,2.6,0.9,4,1.1c1.2-1.4,2.8-4.1,2.1-8.3c-0.9-0.3-1.8-0.5-2.7-0.7
			C165.8,339.5,166.3,342.5,162.1,345.4z"/>
		<path class="st12" d="M168.4,346.7c0.6,0,1.2,0,1.8,0c0.8-1.1,2.2-3.5,1.6-6.9c-0.5-0.3-1.1-0.6-1.7-0.9
			C170.4,340.9,170.5,343.7,168.4,346.7z"/>
		<path d="M159.2,336.1c0.7,0.7-0.1,4.5-2.7,3.9C153.8,339.4,157.5,334.3,159.2,336.1z"/>
		<path class="st13" d="M166.4,339.2c0.4-3.5,4.1-11.6,7.7-8.5C177.8,333.9,166.3,340.2,166.4,339.2z"/>
		<g>
			<path d="M158,334c-0.2-0.7-0.4-1.4-0.6-2l-0.5-2c-0.2-0.7-0.3-1.3-0.5-2c-0.1-0.3-0.2-0.6-0.4-0.9c-0.1-0.3-0.4-0.5-0.7-0.4
				c0.1-0.1,0.3-0.2,0.6-0.2c0.2,0,0.4,0.2,0.6,0.3c0.3,0.3,0.5,0.6,0.7,0.9c0.4,0.7,0.6,1.3,0.8,2c0.2,0.7,0.3,1.4,0.3,2.1
				C158.2,332.5,158.2,333.3,158,334z"/>
		</g>
		<g>
			<path d="M158.9,335c0.1-1.3,0.3-2.5,0.5-3.6c0.1-0.6,0.2-1.2,0.3-1.7c0-0.6,0.2-1.1-0.4-1.5c0.3-0.1,0.7,0.2,0.9,0.5
				c0.2,0.3,0.3,0.7,0.3,1c0.1,0.7,0,1.3-0.1,1.9C160.2,332.8,159.7,334,158.9,335z"/>
		</g>
	</g>
	<g>
		<path d="M161.2,343.3c0,0.2-0.1,0.4-0.2,0.6l-0.4,0.4c-0.3,0.2-0.5,0.5-0.7,0.7c-0.2,0.3-0.4,0.5-0.5,0.8
			c-0.1,0.1-0.1,0.3-0.1,0.5c-0.1,0.1-0.2,0.3-0.3,0.5c-0.1-0.2-0.1-0.4-0.2-0.6c0-0.2,0.1-0.4,0.2-0.6c0.2-0.4,0.4-0.7,0.6-0.9
			c0.2-0.3,0.5-0.5,0.7-0.8l0.4-0.4C160.8,343.5,161,343.4,161.2,343.3z"/>
	</g>
	<g>
		<path d="M164.4,344.9c0.1,0.2,0.2,0.3,0.3,0.5c0,0.2,0,0.4,0,0.5c0,0.4,0,0.7,0,1.1c0,0.4-0.1,0.7-0.2,1.1
			c-0.1,0.2-0.1,0.4-0.3,0.5c-0.2,0.1-0.4,0.2-0.6,0.2c0.1-0.2,0.2-0.3,0.2-0.5c0.1-0.1,0.1-0.3,0.2-0.4c0.1-0.3,0.2-0.6,0.2-1
			c0-0.3,0-0.7,0-1c0-0.2,0-0.3,0-0.5C164.3,345.3,164.3,345.1,164.4,344.9z"/>
	</g>
	<g>
		<path d="M169.9,346.3c0.1,0.1,0.2,0.3,0.3,0.4c0,0.1,0,0.3,0,0.4c0,0.3,0.1,0.5,0.1,0.8c0,0.3-0.1,0.6-0.1,0.9
			c0,0.1-0.1,0.3-0.2,0.4c-0.1,0.1-0.3,0.2-0.4,0.3c0-0.2,0-0.3-0.1-0.5c0.1-0.1,0.1-0.2,0.1-0.4c0.1-0.2,0.1-0.5,0.1-0.7
			c0-0.2,0-0.5,0-0.8l0-0.4C169.7,346.6,169.8,346.4,169.9,346.3z"/>
	</g>
	<path class="st14" d="M164.5,344.4c0.6,0.3,0.9,3.2-0.1,3.2s-1.2-2.6-0.9-2.9S163.9,344.1,164.5,344.4z"/>
	<path class="st14" d="M169.7,345.4c0.5,0,1.1,2,0.9,2.5c-0.2,0.5-1,0.9-1.2,0.3C169.2,347.6,168.8,345.4,169.7,345.4z"/>
</g>
<polygon class="st16" points="477.1,131.1 467.3,131.1 462.3,139.6 467.3,148.1 477.1,148.1 482,139.6 "/>
<polygon class="st14" points="462.4,139.6 452.5,139.6 447.6,148.1 452.5,156.7 462.4,156.7 467.3,148.1 "/>
<polygon class="st17" points="477.1,148.1 467.3,148.1 462.3,156.7 467.3,165.2 477.1,165.2 482,156.7 "/>
<polygon class="st16" points="462.4,156.7 452.5,156.7 447.6,165.2 452.5,173.8 462.4,173.8 467.3,165.2 "/>
<polygon class="st14" points="447.7,165.2 437.8,165.2 432.9,173.8 437.8,182.3 447.7,182.3 452.6,173.8 "/>
<polygon class="st17" points="462.4,173.8 452.5,173.8 447.6,182.3 452.5,190.8 462.4,190.8 467.3,182.3 "/>
<polygon class="st16" points="491.8,156.7 482,156.7 477.1,165.2 482,173.8 491.8,173.8 496.8,165.2 "/>
<polygon class="st14" points="477.1,165.2 467.3,165.2 462.3,173.8 467.3,182.3 477.1,182.3 482,173.8 "/>
<polygon class="st17" points="491.8,173.8 482,173.8 477.1,182.3 482,190.8 491.8,190.8 496.8,182.3 "/>
<polygon class="st16" points="477.1,182.4 467.3,182.4 462.3,190.9 467.3,199.5 477.1,199.5 482,190.9 "/>
<polygon class="st14" points="462.4,190.9 452.5,190.9 447.6,199.5 452.5,208 462.4,208 467.3,199.5 "/>
<polygon class="st17" points="477.1,199.5 467.3,199.5 462.3,208 467.3,216.5 477.1,216.5 482,208 "/>
<polygon class="st16" points="506.6,182.4 496.7,182.4 491.8,190.9 496.7,199.5 506.6,199.5 511.5,190.9 "/>
<polygon class="st14" points="491.8,190.9 482,190.9 477.1,199.5 482,208 491.8,208 496.8,199.5 "/>
<polygon class="st17" points="506.6,199.5 496.7,199.5 491.8,208 496.7,216.5 506.6,216.5 511.5,208 "/>
<polygon class="st16" points="491.8,208 482,208 477.1,216.5 482,225.1 491.8,225.1 496.8,216.5 "/>
<polygon class="st14" points="477.1,216.5 467.3,216.5 462.3,225.1 467.3,233.6 477.1,233.6 482,225.1 "/>
<polygon class="st17" points="491.8,225.1 482,225.1 477.1,233.6 482,242.1 491.8,242.1 496.8,233.6 "/>
<polygon class="st16" points="462.2,208 452.4,208 447.5,216.5 452.4,225.1 462.2,225.1 467.2,216.5 "/>
<polygon class="st14" points="447.5,216.5 437.7,216.5 432.7,225.1 437.7,233.6 447.5,233.6 452.4,225.1 "/>
<polygon class="st17" points="462.2,225.1 452.4,225.1 447.5,233.6 452.4,242.1 462.2,242.1 467.2,233.6 "/>
<polygon class="st16" points="447.5,182.4 437.7,182.4 432.7,190.9 437.7,199.5 447.5,199.5 452.4,190.9 "/>
<polygon class="st14" points="432.8,190.9 422.9,190.9 418,199.5 422.9,208 432.8,208 437.7,199.5 "/>
<polygon class="st17" points="447.5,199.5 437.7,199.5 432.7,208 437.7,216.5 447.5,216.5 452.4,208 "/>
<polygon class="st16" points="477.1,233.6 467.3,233.6 462.3,242.1 467.3,250.6 477.1,250.6 482,242.1 "/>
<polygon class="st14" points="462.4,242.1 452.5,242.1 447.6,250.6 452.5,259.2 462.4,259.2 467.3,250.6 "/>
<polygon class="st17" points="477.1,250.6 467.3,250.6 462.3,259.2 467.3,267.7 477.1,267.7 482,259.2 "/>
<polygon class="st16" points="506.6,233.6 496.7,233.6 491.8,242.1 496.7,250.6 506.6,250.6 511.5,242.1 "/>
<polygon class="st14" points="491.8,242.1 482,242.1 477.1,250.6 482,259.2 491.8,259.2 496.8,250.6 "/>
<polygon class="st17" points="506.6,250.6 496.7,250.6 491.8,259.2 496.7,267.7 506.6,267.7 511.5,259.2 "/>
<polygon class="st16" points="491.8,259.2 482,259.2 477.1,267.7 482,276.3 491.8,276.3 496.8,267.7 "/>
<polygon class="st14" points="477.1,267.7 467.3,267.7 462.3,276.3 467.3,284.8 477.1,284.8 482,276.3 "/>
<polygon class="st17" points="491.8,276.3 482,276.3 477.1,284.8 482,293.3 491.8,293.3 496.8,284.8 "/>
<polygon class="st16" points="418.4,335.4 408.5,335.4 403.6,343.9 408.5,352.5 418.4,352.5 423.3,343.9 "/>
<polygon class="st16" points="447.8,335.4 438,335.4 433,343.9 438,352.5 447.8,352.5 452.7,343.9 "/>
<polygon class="st14" points="433.1,343.9 423.2,343.9 418.3,352.5 423.2,361 433.1,361 438,352.5 "/>
<polygon class="st17" points="447.8,352.5 438,352.5 433,361 438,369.6 447.8,369.6 452.7,361 "/>
<polygon class="st16" points="491.8,310.4 481.9,310.4 477,318.9 481.9,327.5 491.8,327.5 496.7,318.9 "/>
<polygon class="st14" points="477,318.9 467.2,318.9 462.3,327.5 467.2,336 477,336 482,327.5 "/>
<polygon class="st17" points="491.8,327.5 481.9,327.5 477,336 481.9,344.6 491.8,344.6 496.7,336 "/>
<polygon class="st16" points="477,336 467.2,336 462.3,344.5 467.2,353.1 477,353.1 482,344.5 "/>
<polygon class="st17" points="477,353.1 467.2,353.1 462.3,361.6 467.2,370.1 477,370.1 482,361.6 "/>
<polygon class="st16" points="506.5,336 496.6,336 491.7,344.5 496.6,353.1 506.5,353.1 511.4,344.5 "/>
<polygon class="st14" points="491.8,344.5 481.9,344.5 477,353.1 481.9,361.6 491.8,361.6 496.7,353.1 "/>
<polygon class="st17" points="506.5,353.1 496.6,353.1 491.7,361.6 496.6,370.1 506.5,370.1 511.4,361.6 "/>
<polygon class="st16" points="491.8,361.6 481.9,361.6 477,370.1 481.9,378.7 491.8,378.7 496.7,370.1 "/>
<polygon class="st14" points="477,370.1 467.2,370.1 462.3,378.7 467.2,387.2 477,387.2 482,378.7 "/>
<polygon class="st17" points="491.8,378.7 481.9,378.7 477,387.2 481.9,395.7 491.8,395.7 496.7,387.2 "/>
<polygon class="st17" points="491.9,122.5 482,122.5 477.1,131.1 482,139.6 491.9,139.6 496.8,131.1 "/>
<polygon class="st14" points="506.6,114 496.8,114 491.8,122.5 496.8,131.1 506.6,131.1 511.6,122.5 "/>
<polygon class="st14" points="506.6,165.3 496.8,165.3 491.8,173.8 496.8,182.3 506.6,182.3 511.6,173.8 "/>
<polygon class="st17" points="521.3,122.5 511.5,122.5 506.6,131.1 511.5,139.6 521.3,139.6 526.3,131.1 "/>
<polygon class="st16" points="506.6,131.1 496.8,131.1 491.8,139.6 496.8,148.1 506.6,148.1 511.6,139.6 "/>
<polygon class="st14" points="491.9,139.6 482,139.6 477.1,148.1 482,156.7 491.9,156.7 496.8,148.1 "/>
<polygon class="st17" points="506.6,148.1 496.8,148.1 491.8,156.7 496.8,165.2 506.6,165.2 511.6,156.7 "/>
<polygon class="st16" points="447.5,284.7 437.7,284.7 432.7,293.2 437.7,301.7 447.5,301.7 452.4,293.2 "/>
<polygon class="st14" points="432.8,293.2 422.9,293.2 418,301.7 422.9,310.3 432.8,310.3 437.7,301.7 "/>
<polygon class="st17" points="447.5,301.7 437.7,301.7 432.7,310.3 437.7,318.8 447.5,318.8 452.4,310.3 "/>
<polygon class="st16" points="477,284.7 467.2,284.7 462.3,293.2 467.2,301.7 477,301.7 482,293.2 "/>
<polygon class="st14" points="462.3,293.2 452.5,293.2 447.5,301.7 452.5,310.3 462.3,310.3 467.2,301.7 "/>
<polygon class="st17" points="477,301.7 467.2,301.7 462.3,310.3 467.2,318.8 477,318.8 482,310.3 "/>
<polygon class="st16" points="462.2,310.1 452.4,310.1 447.4,318.6 452.4,327.1 462.2,327.1 467.1,318.6 "/>
<polygon class="st14" points="447.5,318.6 437.6,318.6 432.7,327.1 437.6,335.7 447.5,335.7 452.4,327.1 "/>
<polygon class="st17" points="462.2,327.1 452.4,327.1 447.4,335.7 452.4,344.2 462.2,344.2 467.1,335.7 "/>
<polygon class="st16" points="432.7,310.1 422.9,310.1 417.9,318.6 422.9,327.1 432.7,327.1 437.6,318.6 "/>
<polygon class="st14" points="418,318.6 408.1,318.6 403.2,327.1 408.1,335.7 418,335.7 422.9,327.1 "/>
<polygon class="st17" points="432.7,327.1 422.9,327.1 417.9,335.7 422.9,344.2 432.7,344.2 437.6,335.7 "/>
<polygon class="st16" points="432.9,208.1 423.1,208.1 418.2,216.6 423.1,225.2 432.9,225.2 437.9,216.6 "/>
<polygon class="st14" points="418.2,216.6 408.4,216.6 403.4,225.2 408.4,233.7 418.2,233.7 423.1,225.2 "/>
<polygon class="st17" points="432.9,225.2 423.1,225.2 418.2,233.7 423.1,242.3 432.9,242.3 437.9,233.7 "/>
<polygon class="st16" points="462.2,259.2 452.4,259.2 447.5,267.7 452.4,276.3 462.2,276.3 467.2,267.7 "/>
<polygon class="st14" points="447.5,267.7 437.7,267.7 432.7,276.3 437.7,284.8 447.5,284.8 452.4,276.3 "/>
<polygon class="st17" points="462.2,276.3 452.4,276.3 447.5,284.8 452.4,293.3 462.2,293.3 467.2,284.8 "/>
<polygon class="st16" points="447.5,233.6 437.7,233.6 432.7,242.1 437.7,250.6 447.5,250.6 452.4,242.1 "/>
<polygon class="st17" points="447.5,250.6 437.7,250.6 432.7,259.2 437.7,267.7 447.5,267.7 452.4,259.2 "/>
<polygon class="st1" points="264.2,96.1 261.9,92.3 257.6,93.2 260.6,89.9 258.3,86 262.4,87.8 265.4,84.5 264.9,88.9 269,90.7 
	264.6,91.7 "/>
<polygon class="st1" points="318.9,513 316.7,509.2 312.3,510.1 315.3,506.8 313,503 317.1,504.7 320.1,501.4 319.6,505.9 
	323.7,507.7 319.3,508.6 "/>
<polygon class="st1" points="305.5,436.8 303.3,433 299,433.9 301.9,430.6 299.7,426.7 303.8,428.5 306.7,425.2 306.3,429.7 
	310.3,431.4 306,432.4 "/>
<polygon class="st1" points="208.9,208.9 206.7,205 202.3,206 205.3,202.6 203,198.8 207.1,200.6 210.1,197.3 209.6,201.7 
	213.7,203.5 209.4,204.4 "/>
<polygon class="st1" points="74.8,265 72.6,261.1 68.2,262.1 71.2,258.8 68.9,254.9 73,256.7 76,253.4 75.5,257.8 79.6,259.6 
	75.2,260.6 "/>
<polygon class="st1" points="103.9,215.5 103.4,214.6 102.3,214.8 103,214 102.5,213.1 103.5,213.5 104.2,212.7 104.1,213.8 
	105,214.2 104,214.4 "/>
<polygon class="st1" points="128.1,398.6 127.5,397.7 126.5,397.9 127.2,397.1 126.7,396.2 127.6,396.6 128.3,395.9 128.2,396.9 
	129.2,397.3 128.2,397.6 "/>
<polygon class="st1" points="40,243.8 39.5,242.9 38.5,243.1 39.2,242.4 38.6,241.5 39.6,241.9 40.3,241.1 40.2,242.1 41.2,242.6 
	40.1,242.8 "/>
<polygon class="st1" points="199.9,147.8 199.4,146.9 198.3,147.1 199,146.3 198.5,145.4 199.5,145.9 200.2,145.1 200.1,146.1 
	201,146.5 200,146.8 "/>
<polygon class="st1" points="366,185.4 365.5,184.4 364.5,184.7 365.2,183.9 364.6,183 365.6,183.4 366.3,182.6 366.2,183.7 
	367.2,184.1 366.1,184.3 "/>
<polygon class="st1" points="116.7,269.1 116.2,268.2 115.1,268.4 115.8,267.6 115.3,266.7 116.3,267.2 117,266.4 116.9,267.4 
	117.8,267.8 116.8,268.1 "/>
<polygon class="st1" points="409,426.4 406.8,422.5 402.4,423.5 405.4,420.2 403.2,416.3 407.2,418.1 410.2,414.8 409.7,419.2 
	413.8,421 409.5,422 "/>
<polygon class="st1" points="117.4,452 115.1,448.1 110.8,449.1 113.7,445.7 111.5,441.9 115.6,443.7 118.5,440.4 118.1,444.8 
	122.2,446.6 117.8,447.5 "/>
<polygon class="st1" points="270.8,155.2 268.5,151.4 264.2,152.3 267.1,149 264.9,145.1 269,146.9 271.9,143.6 271.5,148 
	275.5,149.8 271.2,150.8 "/>
<polygon class="st1" points="128.8,179.6 126.5,175.8 122.2,176.7 125.1,173.4 122.9,169.5 127,171.3 129.9,168 129.5,172.4 
	133.5,174.2 129.2,175.2 "/>
<polygon class="st1" points="26.2,218.6 23.9,214.7 19.6,215.6 22.6,212.3 20.3,208.5 24.4,210.3 27.4,207 26.9,211.4 31,213.2 
	26.6,214.1 "/>
<polygon class="st1" points="117.4,311.5 115.1,307.7 110.8,308.6 113.7,305.3 111.5,301.4 115.6,303.2 118.5,299.9 118.1,304.3 
	122.2,306.1 117.8,307.1 "/>
<polygon class="st1" points="389.9,113.6 387.7,109.7 383.4,110.7 386.3,107.3 384.1,103.5 388.2,105.3 391.1,102 390.7,106.4 
	394.7,108.2 390.4,109.1 "/>
<polygon class="st1" points="219.8,413.6 219.2,412.7 218.2,412.9 218.9,412.1 218.4,411.2 219.4,411.6 220.1,410.8 219.9,411.9 
	220.9,412.3 219.9,412.5 "/>
<polygon class="st1" points="361.6,485.3 361.1,484.4 360.1,484.6 360.8,483.8 360.2,482.9 361.2,483.3 361.9,482.6 361.8,483.6 
	362.8,484 361.7,484.3 "/>
<polygon class="st1" points="257.8,466.4 257.3,465.5 256.2,465.7 256.9,464.9 256.4,464 257.4,464.4 258.1,463.6 258,464.7 
	258.9,465.1 257.9,465.3 "/>
<polygon class="st1" points="305.5,68.3 305,67.4 303.9,67.7 304.6,66.9 304.1,66 305.1,66.4 305.8,65.6 305.7,66.6 306.6,67.1 
	305.6,67.3 "/>
<polygon class="st1" points="284.7,129.1 284.2,128.2 283.2,128.4 283.9,127.6 283.3,126.7 284.3,127.2 285,126.4 284.9,127.4 
	285.9,127.8 284.8,128.1 "/>
<polygon class="st1" points="428,127.7 427.5,126.8 426.4,127.1 427.1,126.3 426.6,125.4 427.6,125.8 428.3,125 428.2,126 
	429.1,126.5 428.1,126.7 "/>
<polygon class="st1" points="221.1,79.4 220.6,78.5 219.6,78.7 220.3,77.9 219.7,77 220.7,77.5 221.4,76.7 221.3,77.7 222.3,78.1 
	221.2,78.4 "/>
<polygon class="st1" points="163.8,451.8 163.3,450.9 162.3,451.2 163,450.4 162.5,449.5 163.4,449.9 164.1,449.1 164,450.2 
	165,450.6 163.9,450.8 "/>
<polygon class="st1" points="68.4,469.1 67.9,468.2 66.9,468.5 67.6,467.7 67,466.8 68,467.2 68.7,466.4 68.6,467.5 69.5,467.9 
	68.5,468.1 "/>
<polygon class="st1" points="279.7,516.2 279.1,515.3 278.1,515.5 278.8,514.7 278.3,513.8 279.2,514.2 279.9,513.4 279.8,514.5 
	280.8,514.9 279.8,515.1 "/>
<polygon class="st1" points="368.7,426.2 368.2,425.3 367.2,425.5 367.9,424.7 367.3,423.8 368.3,424.2 369,423.4 368.9,424.5 
	369.8,424.9 368.8,425.1 "/>
</svg>
