<?xml version="1.0" encoding="utf-8"?>
<!-- Generator: Adobe Illustrator 22.1.0, SVG Export Plug-In . SVG Version: 6.00 Build 0)  -->
<svg version="1.1" id="Calque_2" xmlns="http://www.w3.org/2000/svg" xmlns:xlink="http://www.w3.org/1999/xlink" x="0px" y="0px"
	 viewBox="0 0 468.6 383.7" style="enable-background:new 0 0 468.6 383.7;" xml:space="preserve">
<style type="text/css">
	.st0{fill:#FCC55C;}
	.st1{fill:#DEA949;}
	.st2{fill:#C78A2A;}
	.st3{fill:#3AAA35;}
	.st4{fill:#683C11;}
	.st5{fill:#BC7E15;}
	.st6{fill:#C07711;}
	.st7{fill:#B17F4A;}
	.st8{fill:#71CBF4;}
	.st9{fill:#432918;}
	.st10{fill:#FFED00;}
	.st11{fill:#99D7F7;}
</style>
<path class="st0" d="M334.2,310.4c0,3.3-2.2,6.4-6.2,9c0,0,0,0,0,0c-7.5,5-21,8.4-36.4,8.4c-23.5,0-42.6-7.8-42.6-17.4
	c0-0.5,0-0.9,0.1-1.4c1.1-5.8,9.3-10.9,21.1-13.7c6.3-1.5,13.6-2.4,21.4-2.4c8,0,15.5,0.9,21.9,2.5c10.7,2.6,18.4,7.1,20.3,12.4
	c0.1,0.4,0.3,0.8,0.3,1.2C334.2,309.5,334.2,309.9,334.2,310.4z"/>
<path class="st1" d="M353.4,290.7c0,7.2-7.4,13.8-19.4,18.4c-1.2,0.5-2.5,0.9-3.9,1.4c-10.6,3.5-24,5.5-38.6,5.5
	c-16.4,0-31.4-2.6-42.5-6.9c-11.9-4.6-19.4-11.1-19.4-18.4c0-1.8,0.5-3.6,1.4-5.3c2.7-5.3,9.6-10,19.1-13.5c11-4,25.5-6.5,41.4-6.5
	c15.5,0,29.6,2.3,40.4,6.1c9.6,3.4,16.6,7.9,19.6,13.1c0.3,0.4,0.5,0.9,0.7,1.3C353.1,287.5,353.4,289.1,353.4,290.7z"/>
<path class="st2" d="M370.4,267.3c0,7.1-6.7,13.6-18,18.7c-1.8,0.8-3.7,1.6-5.7,2.3c-1.5,0.6-3.1,1.1-4.8,1.6
	c-8.2,2.5-17.9,4.5-28.5,5.6c-6.7,0.7-13.7,1.1-21,1.1c-7.7,0-15.2-0.4-22.2-1.2c-15.7-1.7-29.3-5.3-39.1-10
	c-10.4-5-16.6-11.3-16.6-18.1c0-1.9,0.5-3.7,1.4-5.5c3.5-6.8,13.3-12.8,27-17.1c13.5-4.2,30.7-6.7,49.5-6.7
	c19.1,0,36.5,2.6,50.1,6.9c12.3,3.9,21.3,9.1,25.4,15.1c0.1,0.1,0.1,0.2,0.2,0.3C369.6,262.5,370.4,264.9,370.4,267.3z"/>
<path class="st3" d="M332.6,73.6c13.5,3.4,26.9-37.5-12.6-70.2c8.6,22.5-6.8,24.2-7.8,35.1S316,69.4,332.6,73.6z"/>
<path class="st4" d="M468.8,51.6C446.3,62.9,436,69,407.4,69c-28.7,0-72.7,6.1-102.4,0c19.5,11.3,92.1,3.1,92.1,15.4
	S250.7,138.7,220,138.7s-47.1-6.1-67.6-43.5c12.3,31.2,16.4,37.4,29.7,43.5s31.7,18.4,86,12.3c54.3-6.1,125.9-38.9,141.3-41
	c15.4-2,55.3-17.4,72.7-28.7S468.8,51.6,468.8,51.6z"/>
<path class="st5" d="M384.5,240.2c0,7.1-5.6,13.6-15.4,19.1c-0.4,0.2-0.8,0.4-1.2,0.7c-9.1,4.9-21.4,8.9-35.9,11.5
	c-12.6,2.3-26.8,3.6-41.9,3.6c-14.3,0-27.8-1.2-39.9-3.3c-13.5-2.3-25.2-5.8-34.3-10.1c-12.6-5.9-20.1-13.4-20.1-21.6
	c0-5,2.8-9.7,7.9-14c5.5-4.7,13.7-8.8,23.9-12.2c16.6-5.5,38.5-8.8,62.6-8.8c25.5,0,48.6,3.8,65.6,9.8c10.5,3.8,18.6,8.4,23.5,13.6
	h0C382.7,232.3,384.5,236.2,384.5,240.2z"/>
<path class="st6" d="M395.9,202.1c0,9.8-6.1,18.9-16.5,26.5c-0.1,0-0.1,0.1-0.1,0.1c-1.6,1.2-3.4,2.3-5.2,3.5
	c-0.1,0-0.1,0.1-0.1,0.1v0c-8.5,5.1-19.2,9.4-31.4,12.6c-14.7,3.8-31.5,6-49.4,6c-18.2,0-35.3-2.2-50.1-6.2
	c-16.4-4.3-30-10.7-39.3-18.5c-8.5-7.1-13.4-15.3-13.4-24.1c0-4.4,1.2-8.8,3.6-12.8c3.3-5.8,8.8-11.2,16.1-15.9
	c11.2-7.3,26.6-13,44.4-16.5c11.9-2.3,25-3.6,38.7-3.6c13.4,0,26.3,1.2,38,3.4c16.6,3.1,31.1,8.3,42.1,14.8c0.1,0,0.1,0.1,0.1,0.1
	c2.1,1.2,4,2.5,5.9,3.8c5.8,4.2,10.2,8.8,13,13.8C394.7,193.4,395.9,197.7,395.9,202.1z"/>
<path class="st5" d="M395.9,176.4c0,4.4-1.2,8.8-3.6,12.8c-1.6,2.9-3.8,5.6-6.5,8.2c-0.1,0.1-0.3,0.3-0.5,0.4
	c-7,6.7-17.2,12.6-29.6,17.1c-17.4,6.4-39.1,10.1-62.7,10.1c-24.9,0-47.7-4.2-65.5-11.2c-16.1-6.3-28.1-14.9-33.8-24.7
	c-2.4-4.1-3.6-8.4-3.6-12.8c0-5.9,2.2-11.6,6.4-16.9c5.1-6.6,13.2-12.5,23.4-17.4c8.6-4.1,18.7-7.5,29.9-10
	c13.1-2.9,27.8-4.5,43.2-4.5c14.7,0,28.7,1.5,41.4,4.1c9.6,2,18.4,4.7,26.1,7.9c1.6,0.7,3.2,1.4,4.8,2.1c7.7,3.6,14.2,7.7,19.1,12.3
	C391.8,160.8,395.9,168.4,395.9,176.4z"/>
<path class="st2" d="M384.5,155c0,6-4,11.6-11.1,16.5c-0.1,0-0.1,0.1-0.2,0.1c-15.9,10.9-47.2,18.4-83.1,18.4
	c-33.9,0-63.6-6.6-80.2-16.6c-6.9-4.1-11.6-8.8-13.4-13.9c-0.5-1.5-0.8-3-0.8-4.6c0-7.9,7.1-15.2,19-21c6.4-3.1,14.1-5.8,22.9-8
	c15-3.8,33.1-5.9,52.5-5.9c20.4,0,39.2,2.4,54.7,6.5c3.5,0.9,6.9,2,10.1,3.1c5.5,1.9,10.4,4.1,14.5,6.4c9.2,5.2,14.6,11.4,15.1,18.1
	C384.5,154.4,384.5,154.7,384.5,155z"/>
<path class="st1" d="M370.4,131.4c0,1.6-0.3,3.1-0.9,4.6c-0.8,2-2.2,3.9-4.1,5.8c-1.7,1.7-3.8,3.3-6.3,4.8
	c-6.9,4.2-16.5,7.8-28,10.2c-11.4,2.5-24.6,3.9-38.7,3.9c-13.8,0-26.8-1.4-38.1-3.7c-15.5-3.3-27.8-8.5-34.4-14.8
	c-2.7-2.6-4.5-5.4-5.1-8.2c-0.2-0.8-0.3-1.7-0.3-2.5c0-6.5,5.7-12.6,15.3-17.4c14.2-7.2,37-11.9,62.6-11.9c16,0,30.8,1.8,43.1,4.9
	c6.8,1.7,12.8,3.8,17.9,6.1C364,118.2,370.4,124.5,370.4,131.4z"/>
<path class="st0" d="M353.4,113.6c0,4.4-2.8,8.6-7.7,12.2v0c-0.3,0.2-0.7,0.5-1,0.7c-2.9,2-6.4,3.8-10.4,5.4
	c-11.1,4.4-26.2,7-42.8,7c-16.1,0-30.8-2.5-41.8-6.6c-4.8-1.8-9-3.9-12.2-6.3c-4.8-3.5-7.7-7.6-7.8-11.9c0-0.1,0-0.3,0-0.4
	c0-14,27.7-25.3,61.8-25.3c6.9,0,13.5,0.5,19.7,1.3c24.2,3.3,41.8,12.6,42.1,23.6C353.4,113.3,353.4,113.4,353.4,113.6z"/>
<path class="st7" d="M379.3,228.7c3.4,3.6,5.2,7.5,5.2,11.5c0,7.1-5.6,13.6-15.4,19.1c6.5-6.6,8-20.1,4.8-27.1v0
	c0.1,0,0.1-0.1,0.1-0.1C376.1,231.2,377.8,230,379.3,228.7z"/>
<path class="st7" d="M392.3,189.3c2.4,4.1,3.6,8.4,3.6,12.8c0,9.8-6.1,18.9-16.5,26.5c9.8-8.8,7.7-23.2,5.9-30.6
	c0.2-0.1,0.3-0.3,0.5-0.4c3.5-4,0.3-15.4-6.6-22c-1.7-1.7-3.7-3-5.9-3.8c0-0.1,0-0.1,0-0.2c0.5-6.6,0-19.6-14.3-24.9
	c1.3-2,1.8-4.4,1.5-6.9c-0.4-3.6-2.3-7.4-5.7-10.1c-2.4-2-5.4-3.3-9.1-3.8v0c2.7-4.8-1.8-11.4-10.2-18.7c-6.4-5.6-15-11.5-24.3-17.4
	c24.2,3.3,41.8,12.6,42.1,23.6c10.6,5,16.9,11.3,16.9,18.2c0,1.6-0.3,3.1-0.9,4.6c9.2,5.2,14.6,11.4,15.1,18.1
	c7.3,6.7,11.4,14.3,11.4,22.3C395.9,180.9,394.7,185.2,392.3,189.3z"/>
<path class="st3" d="M182.1,138.7c-27.6-4.1-51.2,14.3-51.2,66.5c21.5-19.5,76.5-37.6,64.8-60.2L182.1,138.7z"/>
<path class="st0" d="M283.8,219.4c0,10.8-6.4,20.1-15.5,23.9c-2.9,1.2-6.1,1.9-9.4,1.9c-13.7,0-24.8-11.5-24.8-25.8
	c0-14.2,11.1-25.8,24.8-25.8c1,0,2,0.1,2.9,0.2C274.2,195.4,283.8,206.2,283.8,219.4z"/>
<path d="M283.8,219.4c0,0.2,0,0.4,0,0.6c-0.2,10.6-6.5,19.6-15.5,23.3c-11-4.3-16.8-11.6-17.6-23.9c-0.6-9.6,3.1-20.6,10.9-25.4
	c0.1-0.1,0.2-0.1,0.2-0.2c1.4,0.2,2.8,0.5,4.2,0.9c2.4,0.7,4.6,1.8,6.6,3.2c1.8,1.2,3.4,2.7,4.8,4.3l0.5,0.6c1,1.2,1.8,2.5,2.6,3.9
	c0.4,0.7,0.7,1.4,1,2.1c0.9,2,1.5,4.1,1.8,6.2c0,0,0,0,0,0c0.2,1.3,0.3,2.6,0.3,3.9C283.8,219.2,283.8,219.3,283.8,219.4z"/>
<g>
	<path class="st8" d="M277.5,202.2c-1.4-1.6-3-3.1-4.8-4.3c0,3,0.8,6.3,1.6,8.5c0.1,0.4,0.3,0.8,0.5,1.1c0.1,0.2,0.5-0.1,1-0.8v0
		c0.6-0.9,1.4-2.3,2.2-3.9L277.5,202.2z"/>
	<path d="M261.3,202.3c1,1.1-0.2,6.7-4.1,5.8C253.3,207.3,258.8,199.7,261.3,202.3z"/>
	<path class="st9" d="M283.8,219.4c0,0.2,0,0.4,0,0.6c-0.3,0-0.5,0.1-0.8,0.1c-0.6,0.1-1.3,0.1-1.9,0.1c-0.9,0-1.8,0-2.7,0
		c-1.2-0.1-2.3-0.2-3.4-0.4c-2.1-0.3-4.1-0.9-6-1.7c-1-0.4-2-0.9-2.8-1.4c-0.9-0.5-1.7-1.1-2.4-1.8c-0.3-0.3-0.6-0.6-0.7-0.9
		c-1.4-2.8,4-7.2,4-7.2c0.6-0.3,1.3-0.5,2.1-0.6c0.7-0.1,1.5-0.1,2.4-0.1c0.8,0,1.7,0.1,2.6,0.2c0.1,0,0.1,0,0.2,0
		c0.5,0.1,1,0.2,1.5,0.3c0.7,0.2,1.5,0.4,2.3,0.6c0.3,0.1,0.6,0.2,0.8,0.3h0c0.7,0.2,1.4,0.5,2.1,0.9c0.2,0.1,0.4,0.2,0.6,0.3
		c0.9,2,1.5,4.1,1.8,6.2c0,0,0,0,0,0c0.2,1.3,0.3,2.6,0.3,3.9C283.8,219.2,283.8,219.3,283.8,219.4z"/>
	<path class="st10" d="M283.8,219.4c0,0.2,0,0.4,0,0.6c-0.3,0-0.5,0.1-0.8,0.1c0.2-0.3,0.5-0.6,0.8-1
		C283.8,219.2,283.8,219.3,283.8,219.4z"/>
	<path class="st10" d="M263.8,215c0.7,0.7,1.5,1.2,2.4,1.8c4.9-3,5.5-7.7,5.3-10.6c-1.8-0.1-3.4,0.2-4.5,0.8
		C267,207,260.4,212.3,263.8,215z"/>
	<circle class="st9" cx="262.8" cy="207.7" r="6.4"/>
	<path class="st10" d="M269,218.2c1.9,0.8,3.9,1.3,6,1.7c1.9-2.1,4.2-6.1,3.1-12.4c-1.3-0.5-2.7-0.8-4-1
		C274.5,209.5,275.3,214,269,218.2z"/>
	<path class="st10" d="M283.4,215.1C283.4,215.1,283.4,215.1,283.4,215.1c-0.5,2.4-1.6,4.1-2.4,5.1c-0.9,0-1.8,0-2.7,0
		c3.1-4.5,2.9-8.7,2.6-11.6c0.2,0.1,0.4,0.2,0.6,0.3C282.5,210.8,283.1,212.9,283.4,215.1z"/>
	<path d="M264.6,204.3c1,1.1-0.2,6.7-4.1,5.8C256.6,209.3,262.1,201.7,264.6,204.3z"/>
	<path class="st11" d="M278,202.9c1,1.2,1.8,2.5,2.6,3.9c-0.6,0.4-1.1,0.7-1.6,1h0c-0.3,0.1-0.5,0.3-0.7,0.4
		c-1.7,0.9-2.8,1.2-2.8,0.8c0.1-0.6,0.2-1.4,0.4-2.2v0c0.4-1.4,0.9-3,1.7-4.5L278,202.9z"/>
	<g>
		<path d="M261.7,194c0.7,1.1,1.1,2.3,1.3,3.5c0.1,0.6,0.2,1.2,0.2,1.9c0,0.6-0.1,1.3-0.3,1.9c-0.4-1.2-0.7-2.4-0.9-3.6
			C261.8,196.5,261.6,195.3,261.7,194z"/>
	</g>
	<g>
		<path d="M266.1,194.7c0.2,0.7,0.2,1.4,0.2,2.1c0,0.7-0.2,1.4-0.3,2.1c-0.3,1.3-0.8,2.7-1.7,3.8c0-0.7,0.2-1.4,0.3-2.1
			c0.1-0.7,0.3-1.3,0.4-2C265.3,197.4,265.7,196.1,266.1,194.7z"/>
	</g>
</g>
<g>
	<path class="st8" d="M254.7,339.3c1.5-3.1,2.8-11.7-1.9-11S254.2,340.2,254.7,339.3z"/>
	<path d="M263.5,335.8c-0.7,0.7,0.1,4.4,2.7,3.8S265.2,334.1,263.5,335.8z"/>
	<path class="st9" d="M261.9,344.1c-0.5,0.4-1,0.8-1.6,1.2c-0.6,0.4-1.2,0.7-1.9,0.9c-1.2,0.5-2.5,0.9-3.9,1.1
		c-0.7,0.1-1.5,0.2-2.3,0.2c-0.6,0-1.2,0-1.8,0c-0.4,0-0.8,0-1.3-0.1c-0.7-0.1-1.3-0.2-2-0.3c-1-0.2-1.9-0.5-2.7-0.9
		c0.2-1.1,0.8-2.2,1.5-3.1c0.3-0.4,0.7-0.8,1.1-1.1c0,0,0,0,0,0c0.5-0.5,1.1-0.9,1.7-1.3c0.5-0.3,1.1-0.6,1.6-0.9
		c0.6-0.3,1.3-0.5,1.9-0.8c0.9-0.3,1.8-0.5,2.6-0.6c0.6-0.1,1.2-0.1,1.7-0.2c1.2,0,2.2,0.1,2.9,0.5
		C259.8,338.8,264.1,342.3,261.9,344.1z"/>
	<path class="st10" d="M249.3,347.5c-0.7-0.1-1.3-0.2-2-0.3c-1-1.4-1.2-2.6-1.2-4c0.3-0.4,0.7-0.8,1.1-1.1
		C247.6,345,248.6,346.6,249.3,347.5z"/>
	<path class="st10" d="M261.9,344.1c-0.5,0.4-1,0.8-1.6,1.2c-3.2-2-3.6-5-3.5-6.9c1.2,0,2.2,0.1,2.9,0.5
		C259.8,338.8,264.1,342.3,261.9,344.1z"/>
	<circle class="st9" cx="262.5" cy="339.3" r="4.2"/>
	<path class="st10" d="M258.5,346.2c-1.2,0.5-2.5,0.9-3.9,1.1c-1.2-1.4-2.7-4-2-8.2c0.9-0.3,1.8-0.5,2.6-0.6
		C254.9,340.5,254.4,343.4,258.5,346.2z"/>
	<path class="st10" d="M252.3,347.5c-0.6,0-1.2,0-1.8,0c-0.8-1.1-2.2-3.4-1.6-6.8c0.5-0.3,1.1-0.6,1.6-0.9
		C250.4,341.8,250.3,344.6,252.3,347.5z"/>
	<path d="M261.4,337.1c-0.7,0.7,0.1,4.4,2.7,3.8C266.6,340.4,263,335.4,261.4,337.1z"/>
	<path class="st11" d="M254.3,340.1c-0.4-3.4-4-11.3-7.6-8.3C243.2,335,254.4,341.2,254.3,340.1z"/>
	<g>
		<path d="M262.5,335.1c-0.2-0.7-0.2-1.4-0.2-2.1c0-0.7,0.1-1.4,0.3-2.1c0.2-0.7,0.4-1.4,0.8-2c0.2-0.3,0.4-0.6,0.7-0.9
			c0.2-0.1,0.3-0.2,0.5-0.3c0.2,0,0.4,0,0.5,0.2c-0.4-0.1-0.6,0.2-0.7,0.4c-0.2,0.3-0.3,0.6-0.4,0.9c-0.2,0.6-0.4,1.3-0.5,1.9
			l-0.5,2C262.9,333.8,262.7,334.4,262.5,335.1z"/>
	</g>
	<g>
		<path d="M261.6,336.1c-0.8-1-1.2-2.2-1.5-3.4c-0.1-0.6-0.2-1.2-0.1-1.9c0-0.3,0.1-0.7,0.3-1c0.2-0.3,0.5-0.6,0.9-0.5
			c-0.5,0.4-0.4,0.9-0.4,1.5c0.1,0.6,0.2,1.1,0.3,1.7C261.3,333.7,261.6,334.8,261.6,336.1z"/>
	</g>
</g>
<g>
	<path class="st8" d="M79.8,334.3c1.5-3.1,2.8-11.7-1.9-11S79.3,335.2,79.8,334.3z"/>
	<path d="M88.6,330.8c-0.7,0.7,0.1,4.4,2.7,3.8S90.2,329.1,88.6,330.8z"/>
	<path class="st9" d="M87,339.1c-0.5,0.4-1,0.8-1.6,1.2c-0.6,0.4-1.2,0.7-1.9,0.9c-1.2,0.5-2.5,0.9-3.9,1.1
		c-0.7,0.1-1.5,0.2-2.3,0.2c-0.6,0-1.2,0-1.8,0c-0.4,0-0.8,0-1.3-0.1c-0.7-0.1-1.3-0.2-2-0.3c-1-0.2-1.9-0.5-2.7-0.9
		c0.2-1.1,0.8-2.2,1.5-3.1c0.3-0.4,0.7-0.8,1.1-1.1c0,0,0,0,0,0c0.5-0.5,1.1-0.9,1.7-1.3c0.5-0.3,1.1-0.6,1.6-0.9
		c0.6-0.3,1.3-0.5,1.9-0.8c0.9-0.3,1.8-0.5,2.6-0.6c0.6-0.1,1.2-0.1,1.7-0.2c1.2,0,2.2,0.1,2.9,0.5C84.9,333.9,89.2,337.4,87,339.1z
		"/>
	<path class="st10" d="M74.4,342.5c-0.7-0.1-1.3-0.2-2-0.3c-1-1.4-1.2-2.6-1.2-4c0.3-0.4,0.7-0.8,1.1-1.1
		C72.7,340,73.6,341.6,74.4,342.5z"/>
	<path class="st10" d="M87,339.1c-0.5,0.4-1,0.8-1.6,1.2c-3.2-2-3.6-5-3.5-6.9c1.2,0,2.2,0.1,2.9,0.5
		C84.9,333.9,89.2,337.4,87,339.1z"/>
	<circle class="st9" cx="87.6" cy="334.3" r="4.2"/>
	<path class="st10" d="M83.6,341.2c-1.2,0.5-2.5,0.9-3.9,1.1c-1.2-1.4-2.7-4-2-8.2c0.9-0.3,1.8-0.5,2.6-0.6
		C80,335.5,79.5,338.5,83.6,341.2z"/>
	<path class="st10" d="M77.4,342.6c-0.6,0-1.2,0-1.8,0c-0.8-1.1-2.2-3.4-1.6-6.8c0.5-0.3,1.1-0.6,1.6-0.9
		C75.5,336.9,75.4,339.6,77.4,342.6z"/>
	<path d="M86.5,332.1c-0.7,0.7,0.1,4.4,2.7,3.8S88.1,330.4,86.5,332.1z"/>
	<path class="st11" d="M79.4,335.2c-0.4-3.4-4-11.3-7.6-8.3C68.3,330,79.5,336.2,79.4,335.2z"/>
	<g>
		<path d="M87.6,330.1c-0.2-0.7-0.2-1.4-0.2-2.1c0-0.7,0.1-1.4,0.3-2.1c0.2-0.7,0.4-1.4,0.8-2c0.2-0.3,0.4-0.6,0.7-0.9
			c0.2-0.1,0.3-0.2,0.5-0.3c0.2,0,0.4,0,0.5,0.2c-0.4-0.1-0.6,0.2-0.7,0.4c-0.2,0.3-0.3,0.6-0.4,0.9c-0.2,0.6-0.4,1.3-0.5,1.9
			l-0.5,2C88,328.8,87.8,329.4,87.6,330.1z"/>
	</g>
	<g>
		<path d="M86.7,331.1c-0.8-1-1.2-2.2-1.5-3.4c-0.1-0.6-0.2-1.2-0.1-1.9c0-0.3,0.1-0.7,0.3-1c0.2-0.3,0.5-0.6,0.9-0.5
			c-0.5,0.4-0.4,0.9-0.4,1.5c0.1,0.6,0.2,1.1,0.3,1.7C86.4,328.7,86.6,329.8,86.7,331.1z"/>
	</g>
</g>
<g>
	<path class="st8" d="M213.3,75.3c1.5-3.1,2.8-11.7-1.9-11S212.9,76.3,213.3,75.3z"/>
	<path d="M222.2,71.9c-0.7,0.7,0.1,4.4,2.7,3.8C227.4,75.1,223.8,70.1,222.2,71.9z"/>
	<path class="st9" d="M220.6,80.2c-0.5,0.4-1,0.8-1.6,1.2c-0.6,0.4-1.2,0.7-1.9,0.9c-1.2,0.5-2.5,0.9-3.9,1.1
		c-0.7,0.1-1.5,0.2-2.3,0.2c-0.6,0-1.2,0-1.8,0c-0.4,0-0.8,0-1.3-0.1c-0.7-0.1-1.3-0.2-2-0.3c-1-0.2-1.9-0.5-2.7-0.9
		c0.2-1.1,0.8-2.2,1.5-3.1c0.3-0.4,0.7-0.8,1.1-1.1c0,0,0,0,0,0c0.5-0.5,1.1-0.9,1.7-1.3c0.5-0.3,1.1-0.6,1.6-0.9
		c0.6-0.3,1.3-0.5,1.9-0.8c0.9-0.3,1.8-0.5,2.6-0.6c0.6-0.1,1.2-0.1,1.7-0.2c1.2,0,2.2,0.1,2.9,0.5
		C218.4,74.9,222.7,78.4,220.6,80.2z"/>
	<path class="st10" d="M208,83.5c-0.7-0.1-1.3-0.2-2-0.3c-1-1.4-1.2-2.6-1.2-4c0.3-0.4,0.7-0.8,1.1-1.1
		C206.3,81,207.2,82.7,208,83.5z"/>
	<path class="st10" d="M220.6,80.2c-0.5,0.4-1,0.8-1.6,1.2c-3.2-2-3.6-5-3.5-6.9c1.2,0,2.2,0.1,2.9,0.5
		C218.4,74.9,222.7,78.4,220.6,80.2z"/>
	<circle class="st9" cx="221.2" cy="75.4" r="4.2"/>
	<path class="st10" d="M217.1,82.3c-1.2,0.5-2.5,0.9-3.9,1.1c-1.2-1.4-2.7-4-2-8.2c0.9-0.3,1.8-0.5,2.6-0.6
		C213.5,76.6,213,79.5,217.1,82.3z"/>
	<path class="st10" d="M211,83.6c-0.6,0-1.2,0-1.8,0c-0.8-1.1-2.2-3.4-1.6-6.8c0.5-0.3,1.1-0.6,1.6-0.9
		C209.1,77.9,208.9,80.7,211,83.6z"/>
	<path d="M220,73.2c-0.7,0.7,0.1,4.4,2.7,3.8C225.2,76.5,221.6,71.5,220,73.2z"/>
	<path class="st11" d="M212.9,76.2c-0.4-3.4-4-11.3-7.6-8.3S213.1,77.3,212.9,76.2z"/>
	<g>
		<path d="M221.2,71.2c-0.2-0.7-0.2-1.4-0.2-2.1c0-0.7,0.1-1.4,0.3-2.1c0.2-0.7,0.4-1.4,0.8-2c0.2-0.3,0.4-0.6,0.7-0.9
			c0.2-0.1,0.3-0.2,0.5-0.3c0.2,0,0.4,0,0.5,0.2c-0.4-0.1-0.6,0.2-0.7,0.4c-0.2,0.3-0.3,0.6-0.4,0.9c-0.2,0.6-0.4,1.3-0.5,1.9
			l-0.5,2C221.6,69.8,221.4,70.5,221.2,71.2z"/>
	</g>
	<g>
		<path d="M220.2,72.2c-0.8-1-1.2-2.2-1.5-3.4c-0.1-0.6-0.2-1.2-0.1-1.9c0-0.3,0.1-0.7,0.3-1c0.2-0.3,0.5-0.6,0.9-0.5
			c-0.5,0.4-0.4,0.9-0.4,1.5c0.1,0.6,0.2,1.1,0.3,1.7C219.9,69.8,220.2,70.9,220.2,72.2z"/>
	</g>
</g>
<g>
	<path class="st8" d="M136.9,258.6c-2.4-4.9-4.5-18.6,2.9-17.6C147.3,242,137.7,260.1,136.9,258.6z"/>
	<path d="M122.9,253c1.1,1.1-0.2,7-4.2,6.1S120.3,250.3,122.9,253z"/>
	<path class="st9" d="M125.4,266.3c0.8,0.7,1.6,1.3,2.5,1.9c0.9,0.6,1.9,1.1,3,1.5c1.9,0.8,4.1,1.4,6.2,1.7c1.2,0.2,2.4,0.3,3.6,0.4
		c0.9,0,1.9,0.1,2.8,0c0.7,0,1.3-0.1,2-0.1c1.1-0.1,2.1-0.3,3.1-0.5c1.5-0.3,3-0.8,4.3-1.4c-0.4-1.8-1.3-3.4-2.4-4.9
		c-0.5-0.6-1.1-1.2-1.7-1.8c0,0,0,0,0,0c-0.8-0.7-1.8-1.4-2.7-2c-0.8-0.5-1.7-1-2.6-1.4c-1-0.5-2-0.9-3.1-1.2
		c-1.4-0.5-2.8-0.8-4.2-1c-0.9-0.2-1.9-0.2-2.7-0.3c-1.9-0.1-3.5,0.2-4.7,0.8C128.9,257.9,122,263.5,125.4,266.3z"/>
	<path class="st10" d="M145.5,271.6c1.1-0.1,2.1-0.3,3.1-0.5c1.6-2.3,1.9-4.2,1.9-6.3c-0.5-0.6-1.1-1.2-1.7-1.8
		C148.2,267.6,146.7,270.2,145.5,271.6z"/>
	<path class="st10" d="M125.4,266.3c0.8,0.7,1.6,1.3,2.5,1.9c5.1-3.1,5.7-8,5.6-11c-1.9-0.1-3.5,0.2-4.7,0.8
		C128.9,257.9,122,263.5,125.4,266.3z"/>
	<circle class="st9" cx="124.5" cy="258.7" r="6.7"/>
	<path class="st10" d="M130.9,269.6c1.9,0.8,4.1,1.4,6.2,1.7c1.9-2.2,4.4-6.4,3.3-13c-1.4-0.5-2.8-0.8-4.2-1
		C136.7,260.5,137.5,265.2,130.9,269.6z"/>
	<path class="st10" d="M140.7,271.8c0.9,0,1.9,0.1,2.8,0c1.3-1.7,3.4-5.4,2.6-10.8c-0.8-0.5-1.7-1-2.6-1.4
		C143.7,262.7,143.9,267.1,140.7,271.8z"/>
	<path d="M126.3,255.2c1.1,1.1-0.2,7-4.2,6.1S123.7,252.4,126.3,255.2z"/>
	<path class="st11" d="M137.6,260c0.6-5.4,6.3-18.1,12-13.1C155.3,251.7,137.4,261.6,137.6,260z"/>
	<g>
		<path d="M124.5,251.9c-0.2-1.1-0.5-2.1-0.7-3.2c-0.2-1.1-0.5-2.1-0.7-3.2c-0.3-1-0.5-2.1-0.9-3.1c-0.2-0.5-0.4-1-0.7-1.4
			c-0.3-0.4-0.7-0.8-1.3-0.6c0.2-0.2,0.5-0.3,0.8-0.2c0.3,0.1,0.6,0.3,0.8,0.5c0.4,0.4,0.7,0.9,1,1.4c0.5,1,0.9,2.1,1.1,3.2
			c0.3,1.1,0.5,2.2,0.5,3.3C124.6,249.7,124.7,250.8,124.5,251.9z"/>
	</g>
	<g>
		<path d="M125.9,253.5c0.3-1.9,0.8-3.8,1.1-5.6c0.2-0.9,0.3-1.8,0.4-2.7c0-0.5,0-0.9-0.1-1.3c-0.1-0.4-0.3-0.8-0.8-1
			c0.5,0,1,0.4,1.2,0.8c0.2,0.5,0.3,1,0.4,1.5c0.1,1,0,2-0.2,2.9c-0.2,1-0.5,1.9-0.8,2.8C126.9,251.8,126.5,252.7,125.9,253.5z"/>
	</g>
</g>
<g>
	<path class="st8" d="M57.3,129.9c-1.9-3.8-3.5-14.5,2.3-13.7C65.3,117,57.8,131,57.3,129.9z"/>
	<path d="M46.3,125.6c0.8,0.9-0.1,5.4-3.3,4.7S44.3,123.4,46.3,125.6z"/>
	<path class="st9" d="M48.3,135.8c0.6,0.5,1.2,1,2,1.4c0.7,0.4,1.5,0.8,2.3,1.2c1.5,0.6,3.2,1.1,4.9,1.4c0.9,0.2,1.9,0.3,2.8,0.3
		c0.7,0,1.5,0,2.2,0c0.5,0,1-0.1,1.6-0.1c0.8-0.1,1.6-0.2,2.4-0.4c1.2-0.3,2.3-0.6,3.4-1.1c-0.3-1.4-1-2.7-1.9-3.8
		c-0.4-0.5-0.8-0.9-1.3-1.4c0,0,0,0,0,0c-0.6-0.6-1.4-1.1-2.1-1.6c-0.7-0.4-1.3-0.8-2-1.1c-0.8-0.4-1.6-0.7-2.4-0.9
		c-1.1-0.4-2.2-0.6-3.2-0.8c-0.7-0.1-1.4-0.2-2.1-0.2c-1.5,0-2.7,0.2-3.6,0.6C51,129.3,45.6,133.7,48.3,135.8z"/>
	<path class="st10" d="M63.9,140c0.8-0.1,1.6-0.2,2.4-0.4c1.3-1.8,1.5-3.3,1.5-4.9c-0.4-0.5-0.8-0.9-1.3-1.4
		C66,136.9,64.9,138.9,63.9,140z"/>
	<path class="st10" d="M48.3,135.8c0.6,0.5,1.2,1,2,1.4c4-2.4,4.4-6.2,4.3-8.6c-1.5,0-2.7,0.2-3.6,0.6
		C51,129.3,45.6,133.7,48.3,135.8z"/>
	<circle class="st9" cx="47.6" cy="129.9" r="5.2"/>
	<path class="st10" d="M52.6,138.5c1.5,0.6,3.2,1.1,4.9,1.4c1.5-1.7,3.4-5,2.5-10.1c-1.1-0.4-2.2-0.6-3.2-0.8
		C57.1,131.4,57.7,135,52.6,138.5z"/>
	<path class="st10" d="M60.2,140.1c0.7,0,1.5,0,2.2,0c1-1.3,2.7-4.2,2-8.4c-0.7-0.4-1.3-0.8-2-1.1C62.6,133,62.7,136.5,60.2,140.1z"
		/>
	<path d="M49,127.2c0.8,0.9-0.1,5.4-3.3,4.7S47,125.1,49,127.2z"/>
	<path class="st11" d="M57.8,130.9c0.5-4.2,4.9-14,9.4-10.2C71.5,124.5,57.6,132.2,57.8,130.9z"/>
	<g>
		<path d="M47.6,124.7l-1.2-4.9c-0.2-0.8-0.4-1.6-0.7-2.4c-0.1-0.4-0.3-0.8-0.5-1.1c-0.2-0.3-0.5-0.6-0.9-0.5
			c0.2-0.1,0.4-0.2,0.7-0.2c0.3,0,0.5,0.2,0.6,0.3c0.4,0.3,0.6,0.7,0.8,1.1c0.4,0.8,0.7,1.6,0.9,2.5c0.2,0.8,0.3,1.7,0.4,2.6
			C47.8,123,47.8,123.8,47.6,124.7z"/>
	</g>
	<g>
		<path d="M48.7,125.9c0.2-1.5,0.5-3,0.8-4.4c0.1-0.7,0.3-1.4,0.3-2.1c0-0.7,0.1-1.4-0.5-1.8c0.4,0,0.8,0.3,1,0.6
			c0.2,0.4,0.3,0.8,0.3,1.2c0.1,0.8,0,1.6-0.1,2.3C50.1,123.2,49.6,124.7,48.7,125.9z"/>
	</g>
</g>
<g>
	<path class="st8" d="M22.8,205c-1.1-2.2-2-8.2,1.3-7.8C27.4,197.6,23.2,205.6,22.8,205z"/>
	<path d="M16.6,202.5c0.5,0.5-0.1,3.1-1.9,2.7C12.9,204.8,15.5,201.3,16.6,202.5z"/>
	<path class="st9" d="M17.7,208.4c0.3,0.3,0.7,0.6,1.1,0.8c0.4,0.2,0.8,0.5,1.3,0.7c0.9,0.4,1.8,0.6,2.8,0.8
		c0.5,0.1,1.1,0.1,1.6,0.2c0.4,0,0.8,0,1.2,0c0.3,0,0.6,0,0.9-0.1c0.5,0,0.9-0.1,1.4-0.2c0.7-0.2,1.3-0.4,1.9-0.6
		c-0.2-0.8-0.6-1.5-1.1-2.2c-0.2-0.3-0.5-0.5-0.8-0.8c0,0,0,0,0,0c-0.4-0.3-0.8-0.6-1.2-0.9c-0.4-0.2-0.8-0.4-1.2-0.6
		c-0.4-0.2-0.9-0.4-1.4-0.5c-0.6-0.2-1.3-0.4-1.8-0.4c-0.4-0.1-0.8-0.1-1.2-0.1c-0.8,0-1.6,0.1-2.1,0.4
		C19.3,204.7,16.2,207.1,17.7,208.4z"/>
	<path class="st10" d="M26.6,210.7c0.5,0,0.9-0.1,1.4-0.2c0.7-1,0.9-1.9,0.8-2.8c-0.2-0.3-0.5-0.5-0.8-0.8
		C27.8,209,27.2,210.1,26.6,210.7z"/>
	<path class="st10" d="M17.7,208.4c0.3,0.3,0.7,0.6,1.1,0.8c2.3-1.4,2.5-3.6,2.5-4.9c-0.8,0-1.6,0.1-2.1,0.4
		C19.3,204.7,16.2,207.1,17.7,208.4z"/>
	<circle class="st9" cx="17.3" cy="205" r="3"/>
	<path class="st10" d="M20.2,209.9c0.9,0.4,1.8,0.6,2.8,0.8c0.9-1,1.9-2.8,1.4-5.8c-0.6-0.2-1.3-0.4-1.8-0.4
		C22.7,205.8,23.1,207.9,20.2,209.9z"/>
	<path class="st10" d="M24.5,210.8c0.4,0,0.8,0,1.2,0c0.6-0.8,1.5-2.4,1.1-4.8c-0.4-0.2-0.8-0.4-1.2-0.6
		C25.9,206.8,25.9,208.7,24.5,210.8z"/>
	<path d="M18.1,203.5c0.5,0.5-0.1,3.1-1.9,2.7C14.4,205.8,17,202.2,18.1,203.5z"/>
	<path class="st11" d="M23.1,205.6c0.3-2.4,2.8-8,5.3-5.8S23,206.3,23.1,205.6z"/>
	<g>
		<path d="M17.3,202c-0.4-0.9-0.7-1.8-0.9-2.8l-0.3-1.3c-0.1-0.2-0.1-0.4-0.2-0.6c-0.1-0.2-0.2-0.4-0.5-0.4c0.1-0.1,0.2-0.2,0.4-0.2
			c0.2,0,0.3,0.1,0.4,0.2c0.2,0.2,0.4,0.4,0.5,0.6c0.3,0.5,0.5,0.9,0.6,1.4c0.1,0.5,0.2,1,0.2,1.5C17.6,201,17.5,201.5,17.3,202z"/>
	</g>
	<g>
		<path d="M18,202.7c-0.1-0.9,0.1-1.7,0.2-2.5l0.2-1.2c0-0.4,0.2-0.7-0.1-1c0.2-0.1,0.5,0.1,0.7,0.3c0.1,0.2,0.2,0.5,0.3,0.7
			c0.1,0.5,0,0.9,0,1.4C19,201.2,18.6,202.1,18,202.7z"/>
	</g>
</g>
<g>
	<path class="st8" d="M348,363.9c-2.4-4.9-4.5-18.6,2.9-17.6C358.4,347.3,348.7,365.3,348,363.9z"/>
	<path d="M333.9,358.3c1.1,1.1-0.2,7-4.2,6.1C325.6,363.5,331.4,355.6,333.9,358.3z"/>
	<path class="st9" d="M336.5,371.6c0.8,0.7,1.6,1.3,2.5,1.9c0.9,0.6,1.9,1.1,3,1.5c1.9,0.8,4.1,1.4,6.2,1.7c1.2,0.2,2.4,0.3,3.6,0.4
		c0.9,0,1.9,0.1,2.8,0c0.7,0,1.3-0.1,2-0.1c1.1-0.1,2.1-0.3,3.1-0.5c1.5-0.3,3-0.8,4.3-1.4c-0.4-1.8-1.3-3.4-2.4-4.9
		c-0.5-0.6-1.1-1.2-1.7-1.8c0,0,0,0,0,0c-0.8-0.7-1.8-1.4-2.7-2c-0.8-0.5-1.7-1-2.6-1.4c-1-0.5-2-0.9-3.1-1.2
		c-1.4-0.5-2.8-0.8-4.2-1c-0.9-0.2-1.9-0.2-2.7-0.3c-1.9-0.1-3.5,0.2-4.7,0.8C339.9,363.2,333,368.8,336.5,371.6z"/>
	<path class="st10" d="M356.6,376.9c1.1-0.1,2.1-0.3,3.1-0.5c1.6-2.3,1.9-4.2,1.9-6.3c-0.5-0.6-1.1-1.2-1.7-1.8
		C359.2,372.9,357.8,375.5,356.6,376.9z"/>
	<path class="st10" d="M336.5,371.6c0.8,0.7,1.6,1.3,2.5,1.9c5.1-3.1,5.7-8,5.6-11c-1.9-0.1-3.5,0.2-4.7,0.8
		C339.9,363.2,333,368.8,336.5,371.6z"/>
	<circle class="st9" cx="335.5" cy="363.9" r="6.7"/>
	<path class="st10" d="M342,374.9c1.9,0.8,4.1,1.4,6.2,1.7c1.9-2.2,4.4-6.4,3.3-13c-1.4-0.5-2.8-0.8-4.2-1
		C347.7,365.8,348.5,370.5,342,374.9z"/>
	<path class="st10" d="M351.8,377c0.9,0,1.9,0.1,2.8,0c1.3-1.7,3.4-5.4,2.6-10.8c-0.8-0.5-1.7-1-2.6-1.4
		C354.8,368,355,372.4,351.8,377z"/>
	<path d="M337.4,360.4c1.1,1.1-0.2,7-4.2,6.1C329,365.6,334.8,357.7,337.4,360.4z"/>
	<path class="st11" d="M348.6,365.2c0.6-5.4,6.3-18.1,12-13.1C366.3,357,348.4,366.9,348.6,365.2z"/>
	<g>
		<path d="M335.5,357.2c-0.2-1.1-0.5-2.1-0.7-3.2c-0.2-1.1-0.5-2.1-0.7-3.2c-0.3-1-0.5-2.1-0.9-3.1c-0.2-0.5-0.4-1-0.7-1.4
			c-0.3-0.4-0.7-0.8-1.3-0.6c0.2-0.2,0.5-0.3,0.8-0.2c0.3,0.1,0.6,0.3,0.8,0.5c0.4,0.4,0.7,0.9,1,1.4c0.5,1,0.9,2.1,1.1,3.2
			c0.3,1.1,0.5,2.2,0.5,3.3C335.7,355,335.7,356.1,335.5,357.2z"/>
	</g>
	<g>
		<path d="M337,358.8c0.3-1.9,0.8-3.8,1.1-5.6c0.2-0.9,0.3-1.8,0.4-2.7c0-0.5,0-0.9-0.1-1.3c-0.1-0.4-0.3-0.8-0.8-1
			c0.5,0,1,0.4,1.2,0.8c0.2,0.5,0.3,1,0.4,1.5c0.1,1,0,2-0.2,2.9c-0.2,1-0.5,1.9-0.8,2.8C338,357.1,337.5,358,337,358.8z"/>
	</g>
</g>
<path class="st7" d="M368.1,260.3c1.4,2.2,2.2,4.6,2.2,7c0,7.1-6.7,13.6-18,18.7c0.7,1.5,1.1,3.1,1.1,4.7c0,7.2-7.4,13.8-19.4,18.4
	c0.1,0.4,0.1,0.9,0.1,1.4c0,3.3-2.2,6.4-6.2,9c1.8-3.7,2.4-7.2,2.2-9c1.1-0.3,2.3-1.2,3.5-2.5c4.5-4.8,9.1-14.5,8.2-18
	c1.5-0.1,3.1-0.7,4.8-1.6s3.3-2.2,5-3.6c6.5-5.8,12.4-15.3,12.3-22C365.5,262.1,366.9,261.3,368.1,260.3z"/>
</svg>
